%TF.GenerationSoftware,KiCad,Pcbnew,(5.99.0-11737-gca42f31bb5)*%
%TF.CreationDate,2021-09-24T22:35:00+02:00*%
%TF.ProjectId,Drucksensor,44727563-6b73-4656-9e73-6f722e6b6963,rev?*%
%TF.SameCoordinates,Original*%
%TF.FileFunction,Legend,Top*%
%TF.FilePolarity,Positive*%
%FSLAX46Y46*%
G04 Gerber Fmt 4.6, Leading zero omitted, Abs format (unit mm)*
G04 Created by KiCad (PCBNEW (5.99.0-11737-gca42f31bb5)) date 2021-09-24 22:35:00*
%MOMM*%
%LPD*%
G01*
G04 APERTURE LIST*
%ADD10C,0.150000*%
%ADD11C,0.120000*%
%ADD12C,0.415000*%
G04 APERTURE END LIST*
D10*
X134638095Y-79300000D02*
X134542857Y-79252380D01*
X134400000Y-79252380D01*
X134257142Y-79300000D01*
X134161904Y-79395238D01*
X134114285Y-79490476D01*
X134066666Y-79680952D01*
X134066666Y-79823809D01*
X134114285Y-80014285D01*
X134161904Y-80109523D01*
X134257142Y-80204761D01*
X134400000Y-80252380D01*
X134495238Y-80252380D01*
X134638095Y-80204761D01*
X134685714Y-80157142D01*
X134685714Y-79823809D01*
X134495238Y-79823809D01*
X135114285Y-80252380D02*
X135114285Y-79252380D01*
X135685714Y-80252380D01*
X135685714Y-79252380D01*
X136161904Y-80252380D02*
X136161904Y-79252380D01*
X136400000Y-79252380D01*
X136542857Y-79300000D01*
X136638095Y-79395238D01*
X136685714Y-79490476D01*
X136733333Y-79680952D01*
X136733333Y-79823809D01*
X136685714Y-80014285D01*
X136638095Y-80109523D01*
X136542857Y-80204761D01*
X136400000Y-80252380D01*
X136161904Y-80252380D01*
X87852380Y-36528333D02*
X87804761Y-36480714D01*
X87709523Y-36337857D01*
X87661904Y-36242619D01*
X87614285Y-36099761D01*
X87566666Y-35861666D01*
X87566666Y-35671190D01*
X87614285Y-35433095D01*
X87661904Y-35290238D01*
X87709523Y-35195000D01*
X87804761Y-35052142D01*
X87852380Y-35004523D01*
X88804761Y-36052142D02*
X88757142Y-36099761D01*
X88614285Y-36147380D01*
X88519047Y-36147380D01*
X88376190Y-36099761D01*
X88280952Y-36004523D01*
X88233333Y-35909285D01*
X88185714Y-35718809D01*
X88185714Y-35575952D01*
X88233333Y-35385476D01*
X88280952Y-35290238D01*
X88376190Y-35195000D01*
X88519047Y-35147380D01*
X88614285Y-35147380D01*
X88757142Y-35195000D01*
X88804761Y-35242619D01*
X89138095Y-36528333D02*
X89185714Y-36480714D01*
X89280952Y-36337857D01*
X89328571Y-36242619D01*
X89376190Y-36099761D01*
X89423809Y-35861666D01*
X89423809Y-35671190D01*
X89376190Y-35433095D01*
X89328571Y-35290238D01*
X89280952Y-35195000D01*
X89185714Y-35052142D01*
X89138095Y-35004523D01*
X89852380Y-35242619D02*
X89900000Y-35195000D01*
X89995238Y-35147380D01*
X90233333Y-35147380D01*
X90328571Y-35195000D01*
X90376190Y-35242619D01*
X90423809Y-35337857D01*
X90423809Y-35433095D01*
X90376190Y-35575952D01*
X89804761Y-36147380D01*
X90423809Y-36147380D01*
X91042857Y-35147380D02*
X91138095Y-35147380D01*
X91233333Y-35195000D01*
X91280952Y-35242619D01*
X91328571Y-35337857D01*
X91376190Y-35528333D01*
X91376190Y-35766428D01*
X91328571Y-35956904D01*
X91280952Y-36052142D01*
X91233333Y-36099761D01*
X91138095Y-36147380D01*
X91042857Y-36147380D01*
X90947619Y-36099761D01*
X90900000Y-36052142D01*
X90852380Y-35956904D01*
X90804761Y-35766428D01*
X90804761Y-35528333D01*
X90852380Y-35337857D01*
X90900000Y-35242619D01*
X90947619Y-35195000D01*
X91042857Y-35147380D01*
X91757142Y-35242619D02*
X91804761Y-35195000D01*
X91900000Y-35147380D01*
X92138095Y-35147380D01*
X92233333Y-35195000D01*
X92280952Y-35242619D01*
X92328571Y-35337857D01*
X92328571Y-35433095D01*
X92280952Y-35575952D01*
X91709523Y-36147380D01*
X92328571Y-36147380D01*
X93280952Y-36147380D02*
X92709523Y-36147380D01*
X92995238Y-36147380D02*
X92995238Y-35147380D01*
X92900000Y-35290238D01*
X92804761Y-35385476D01*
X92709523Y-35433095D01*
X85590476Y-37709761D02*
X85733333Y-37757380D01*
X85971428Y-37757380D01*
X86066666Y-37709761D01*
X86114285Y-37662142D01*
X86161904Y-37566904D01*
X86161904Y-37471666D01*
X86114285Y-37376428D01*
X86066666Y-37328809D01*
X85971428Y-37281190D01*
X85780952Y-37233571D01*
X85685714Y-37185952D01*
X85638095Y-37138333D01*
X85590476Y-37043095D01*
X85590476Y-36947857D01*
X85638095Y-36852619D01*
X85685714Y-36805000D01*
X85780952Y-36757380D01*
X86019047Y-36757380D01*
X86161904Y-36805000D01*
X86590476Y-37662142D02*
X86638095Y-37709761D01*
X86590476Y-37757380D01*
X86542857Y-37709761D01*
X86590476Y-37662142D01*
X86590476Y-37757380D01*
X86923809Y-36757380D02*
X87495238Y-36757380D01*
X87209523Y-37757380D02*
X87209523Y-36757380D01*
X87828571Y-37662142D02*
X87876190Y-37709761D01*
X87828571Y-37757380D01*
X87780952Y-37709761D01*
X87828571Y-37662142D01*
X87828571Y-37757380D01*
X88257142Y-37709761D02*
X88400000Y-37757380D01*
X88638095Y-37757380D01*
X88733333Y-37709761D01*
X88780952Y-37662142D01*
X88828571Y-37566904D01*
X88828571Y-37471666D01*
X88780952Y-37376428D01*
X88733333Y-37328809D01*
X88638095Y-37281190D01*
X88447619Y-37233571D01*
X88352380Y-37185952D01*
X88304761Y-37138333D01*
X88257142Y-37043095D01*
X88257142Y-36947857D01*
X88304761Y-36852619D01*
X88352380Y-36805000D01*
X88447619Y-36757380D01*
X88685714Y-36757380D01*
X88828571Y-36805000D01*
X89685714Y-37709761D02*
X89590476Y-37757380D01*
X89400000Y-37757380D01*
X89304761Y-37709761D01*
X89257142Y-37662142D01*
X89209523Y-37566904D01*
X89209523Y-37281190D01*
X89257142Y-37185952D01*
X89304761Y-37138333D01*
X89400000Y-37090714D01*
X89590476Y-37090714D01*
X89685714Y-37138333D01*
X90114285Y-37757380D02*
X90114285Y-36757380D01*
X90542857Y-37757380D02*
X90542857Y-37233571D01*
X90495238Y-37138333D01*
X90400000Y-37090714D01*
X90257142Y-37090714D01*
X90161904Y-37138333D01*
X90114285Y-37185952D01*
X91019047Y-37090714D02*
X91019047Y-37757380D01*
X91019047Y-37185952D02*
X91066666Y-37138333D01*
X91161904Y-37090714D01*
X91304761Y-37090714D01*
X91400000Y-37138333D01*
X91447619Y-37233571D01*
X91447619Y-37757380D01*
X92304761Y-37709761D02*
X92209523Y-37757380D01*
X92019047Y-37757380D01*
X91923809Y-37709761D01*
X91876190Y-37614523D01*
X91876190Y-37233571D01*
X91923809Y-37138333D01*
X92019047Y-37090714D01*
X92209523Y-37090714D01*
X92304761Y-37138333D01*
X92352380Y-37233571D01*
X92352380Y-37328809D01*
X91876190Y-37424047D01*
X92780952Y-37757380D02*
X92780952Y-37090714D01*
X92780952Y-36757380D02*
X92733333Y-36805000D01*
X92780952Y-36852619D01*
X92828571Y-36805000D01*
X92780952Y-36757380D01*
X92780952Y-36852619D01*
X93685714Y-37757380D02*
X93685714Y-36757380D01*
X93685714Y-37709761D02*
X93590476Y-37757380D01*
X93400000Y-37757380D01*
X93304761Y-37709761D01*
X93257142Y-37662142D01*
X93209523Y-37566904D01*
X93209523Y-37281190D01*
X93257142Y-37185952D01*
X93304761Y-37138333D01*
X93400000Y-37090714D01*
X93590476Y-37090714D01*
X93685714Y-37138333D01*
X94542857Y-37709761D02*
X94447619Y-37757380D01*
X94257142Y-37757380D01*
X94161904Y-37709761D01*
X94114285Y-37614523D01*
X94114285Y-37233571D01*
X94161904Y-37138333D01*
X94257142Y-37090714D01*
X94447619Y-37090714D01*
X94542857Y-37138333D01*
X94590476Y-37233571D01*
X94590476Y-37328809D01*
X94114285Y-37424047D01*
X95019047Y-37757380D02*
X95019047Y-37090714D01*
X95019047Y-37281190D02*
X95066666Y-37185952D01*
X95114285Y-37138333D01*
X95209523Y-37090714D01*
X95304761Y-37090714D01*
X148409523Y-79447619D02*
X148457142Y-79400000D01*
X148552380Y-79352380D01*
X148790476Y-79352380D01*
X148885714Y-79400000D01*
X148933333Y-79447619D01*
X148980952Y-79542857D01*
X148980952Y-79638095D01*
X148933333Y-79780952D01*
X148361904Y-80352380D01*
X148980952Y-80352380D01*
X149838095Y-79685714D02*
X149838095Y-80352380D01*
X149600000Y-79304761D02*
X149361904Y-80019047D01*
X149980952Y-80019047D01*
X150219047Y-79352380D02*
X150552380Y-80352380D01*
X150885714Y-79352380D01*
X74178571Y-26678571D02*
X72678571Y-26678571D01*
X72678571Y-26107142D01*
X72750000Y-25964285D01*
X72821428Y-25892857D01*
X72964285Y-25821428D01*
X73178571Y-25821428D01*
X73321428Y-25892857D01*
X73392857Y-25964285D01*
X73464285Y-26107142D01*
X73464285Y-26678571D01*
X74178571Y-25178571D02*
X73178571Y-25178571D01*
X72678571Y-25178571D02*
X72750000Y-25250000D01*
X72821428Y-25178571D01*
X72750000Y-25107142D01*
X72678571Y-25178571D01*
X72821428Y-25178571D01*
X74178571Y-24464285D02*
X73178571Y-24464285D01*
X73464285Y-24464285D02*
X73321428Y-24392857D01*
X73250000Y-24321428D01*
X73178571Y-24178571D01*
X73178571Y-24035714D01*
X74178571Y-22892857D02*
X73392857Y-22892857D01*
X73250000Y-22964285D01*
X73178571Y-23107142D01*
X73178571Y-23392857D01*
X73250000Y-23535714D01*
X74107142Y-22892857D02*
X74178571Y-23035714D01*
X74178571Y-23392857D01*
X74107142Y-23535714D01*
X73964285Y-23607142D01*
X73821428Y-23607142D01*
X73678571Y-23535714D01*
X73607142Y-23392857D01*
X73607142Y-23035714D01*
X73535714Y-22892857D01*
X73178571Y-22178571D02*
X74178571Y-22178571D01*
X73321428Y-22178571D02*
X73250000Y-22107142D01*
X73178571Y-21964285D01*
X73178571Y-21750000D01*
X73250000Y-21607142D01*
X73392857Y-21535714D01*
X74178571Y-21535714D01*
X74178571Y-20821428D02*
X73178571Y-20821428D01*
X72678571Y-20821428D02*
X72750000Y-20892857D01*
X72821428Y-20821428D01*
X72750000Y-20750000D01*
X72678571Y-20821428D01*
X72821428Y-20821428D01*
X61011904Y-58154761D02*
X61392857Y-58154761D01*
X61583333Y-58250000D01*
X61773809Y-58440476D01*
X61869047Y-58821428D01*
X61869047Y-59488095D01*
X61773809Y-59869047D01*
X61583333Y-60059523D01*
X61392857Y-60154761D01*
X61011904Y-60154761D01*
X60821428Y-60059523D01*
X60630952Y-59869047D01*
X60535714Y-59488095D01*
X60535714Y-58821428D01*
X60630952Y-58440476D01*
X60821428Y-58250000D01*
X61011904Y-58154761D01*
X62726190Y-60154761D02*
X62726190Y-58154761D01*
X63869047Y-60154761D01*
X63869047Y-58154761D01*
X104661904Y-82728571D02*
X104995238Y-82728571D01*
X105138095Y-83252380D02*
X104661904Y-83252380D01*
X104661904Y-82252380D01*
X105138095Y-82252380D01*
X105995238Y-83252380D02*
X105995238Y-82252380D01*
X105995238Y-83204761D02*
X105900000Y-83252380D01*
X105709523Y-83252380D01*
X105614285Y-83204761D01*
X105566666Y-83157142D01*
X105519047Y-83061904D01*
X105519047Y-82776190D01*
X105566666Y-82680952D01*
X105614285Y-82633333D01*
X105709523Y-82585714D01*
X105900000Y-82585714D01*
X105995238Y-82633333D01*
X106376190Y-82585714D02*
X106566666Y-83252380D01*
X106757142Y-82776190D01*
X106947619Y-83252380D01*
X107138095Y-82585714D01*
X107947619Y-83252380D02*
X107947619Y-82728571D01*
X107900000Y-82633333D01*
X107804761Y-82585714D01*
X107614285Y-82585714D01*
X107519047Y-82633333D01*
X107947619Y-83204761D02*
X107852380Y-83252380D01*
X107614285Y-83252380D01*
X107519047Y-83204761D01*
X107471428Y-83109523D01*
X107471428Y-83014285D01*
X107519047Y-82919047D01*
X107614285Y-82871428D01*
X107852380Y-82871428D01*
X107947619Y-82823809D01*
X108423809Y-83252380D02*
X108423809Y-82585714D01*
X108423809Y-82776190D02*
X108471428Y-82680952D01*
X108519047Y-82633333D01*
X108614285Y-82585714D01*
X108709523Y-82585714D01*
X109471428Y-83252380D02*
X109471428Y-82252380D01*
X109471428Y-83204761D02*
X109376190Y-83252380D01*
X109185714Y-83252380D01*
X109090476Y-83204761D01*
X109042857Y-83157142D01*
X108995238Y-83061904D01*
X108995238Y-82776190D01*
X109042857Y-82680952D01*
X109090476Y-82633333D01*
X109185714Y-82585714D01*
X109376190Y-82585714D01*
X109471428Y-82633333D01*
X109900000Y-83204761D02*
X109995238Y-83252380D01*
X110185714Y-83252380D01*
X110280952Y-83204761D01*
X110328571Y-83109523D01*
X110328571Y-83061904D01*
X110280952Y-82966666D01*
X110185714Y-82919047D01*
X110042857Y-82919047D01*
X109947619Y-82871428D01*
X109900000Y-82776190D01*
X109900000Y-82728571D01*
X109947619Y-82633333D01*
X110042857Y-82585714D01*
X110185714Y-82585714D01*
X110280952Y-82633333D01*
X111376190Y-82252380D02*
X111947619Y-82252380D01*
X111661904Y-83252380D02*
X111661904Y-82252380D01*
X112709523Y-82585714D02*
X112709523Y-83252380D01*
X112280952Y-82585714D02*
X112280952Y-83109523D01*
X112328571Y-83204761D01*
X112423809Y-83252380D01*
X112566666Y-83252380D01*
X112661904Y-83204761D01*
X112709523Y-83157142D01*
X113185714Y-83252380D02*
X113185714Y-82585714D01*
X113185714Y-82776190D02*
X113233333Y-82680952D01*
X113280952Y-82633333D01*
X113376190Y-82585714D01*
X113471428Y-82585714D01*
X113804761Y-83252380D02*
X113804761Y-82252380D01*
X113804761Y-82633333D02*
X113900000Y-82585714D01*
X114090476Y-82585714D01*
X114185714Y-82633333D01*
X114233333Y-82680952D01*
X114280952Y-82776190D01*
X114280952Y-83061904D01*
X114233333Y-83157142D01*
X114185714Y-83204761D01*
X114090476Y-83252380D01*
X113900000Y-83252380D01*
X113804761Y-83204761D01*
X114852380Y-83252380D02*
X114757142Y-83204761D01*
X114709523Y-83157142D01*
X114661904Y-83061904D01*
X114661904Y-82776190D01*
X114709523Y-82680952D01*
X114757142Y-82633333D01*
X114852380Y-82585714D01*
X114995238Y-82585714D01*
X115090476Y-82633333D01*
X115138095Y-82680952D01*
X115185714Y-82776190D01*
X115185714Y-83061904D01*
X115138095Y-83157142D01*
X115090476Y-83204761D01*
X114995238Y-83252380D01*
X114852380Y-83252380D01*
X146952380Y-65035714D02*
X146476190Y-65369047D01*
X146952380Y-65607142D02*
X145952380Y-65607142D01*
X145952380Y-65226190D01*
X146000000Y-65130952D01*
X146047619Y-65083333D01*
X146142857Y-65035714D01*
X146285714Y-65035714D01*
X146380952Y-65083333D01*
X146428571Y-65130952D01*
X146476190Y-65226190D01*
X146476190Y-65607142D01*
X145952380Y-64702380D02*
X146952380Y-64035714D01*
X145952380Y-64035714D02*
X146952380Y-64702380D01*
X145952380Y-62273809D02*
X145952380Y-61702380D01*
X146952380Y-61988095D02*
X145952380Y-61988095D01*
X145952380Y-61464285D02*
X146952380Y-60797619D01*
X145952380Y-60797619D02*
X146952380Y-61464285D01*
X73500000Y-49964285D02*
X73500000Y-49250000D01*
X73928571Y-50107142D02*
X72428571Y-49607142D01*
X73928571Y-49107142D01*
X73928571Y-48607142D02*
X72428571Y-48607142D01*
X73928571Y-47892857D02*
X72428571Y-47892857D01*
X73500000Y-47392857D01*
X72428571Y-46892857D01*
X73928571Y-46892857D01*
X73357142Y-46178571D02*
X73357142Y-45035714D01*
X72428571Y-44464285D02*
X73928571Y-43464285D01*
X72428571Y-43464285D02*
X73928571Y-44464285D01*
X56552380Y-54328571D02*
X56885714Y-54328571D01*
X57028571Y-54852380D02*
X56552380Y-54852380D01*
X56552380Y-53852380D01*
X57028571Y-53852380D01*
X57885714Y-54852380D02*
X57885714Y-53852380D01*
X57885714Y-54804761D02*
X57790476Y-54852380D01*
X57600000Y-54852380D01*
X57504761Y-54804761D01*
X57457142Y-54757142D01*
X57409523Y-54661904D01*
X57409523Y-54376190D01*
X57457142Y-54280952D01*
X57504761Y-54233333D01*
X57600000Y-54185714D01*
X57790476Y-54185714D01*
X57885714Y-54233333D01*
X58266666Y-54185714D02*
X58457142Y-54852380D01*
X58647619Y-54376190D01*
X58838095Y-54852380D01*
X59028571Y-54185714D01*
X59838095Y-54852380D02*
X59838095Y-54328571D01*
X59790476Y-54233333D01*
X59695238Y-54185714D01*
X59504761Y-54185714D01*
X59409523Y-54233333D01*
X59838095Y-54804761D02*
X59742857Y-54852380D01*
X59504761Y-54852380D01*
X59409523Y-54804761D01*
X59361904Y-54709523D01*
X59361904Y-54614285D01*
X59409523Y-54519047D01*
X59504761Y-54471428D01*
X59742857Y-54471428D01*
X59838095Y-54423809D01*
X60314285Y-54852380D02*
X60314285Y-54185714D01*
X60314285Y-54376190D02*
X60361904Y-54280952D01*
X60409523Y-54233333D01*
X60504761Y-54185714D01*
X60600000Y-54185714D01*
X61361904Y-54852380D02*
X61361904Y-53852380D01*
X61361904Y-54804761D02*
X61266666Y-54852380D01*
X61076190Y-54852380D01*
X60980952Y-54804761D01*
X60933333Y-54757142D01*
X60885714Y-54661904D01*
X60885714Y-54376190D01*
X60933333Y-54280952D01*
X60980952Y-54233333D01*
X61076190Y-54185714D01*
X61266666Y-54185714D01*
X61361904Y-54233333D01*
X61790476Y-54804761D02*
X61885714Y-54852380D01*
X62076190Y-54852380D01*
X62171428Y-54804761D01*
X62219047Y-54709523D01*
X62219047Y-54661904D01*
X62171428Y-54566666D01*
X62076190Y-54519047D01*
X61933333Y-54519047D01*
X61838095Y-54471428D01*
X61790476Y-54376190D01*
X61790476Y-54328571D01*
X61838095Y-54233333D01*
X61933333Y-54185714D01*
X62076190Y-54185714D01*
X62171428Y-54233333D01*
X63409523Y-54852380D02*
X63409523Y-53852380D01*
X63742857Y-54566666D01*
X64076190Y-53852380D01*
X64076190Y-54852380D01*
X64980952Y-54852380D02*
X64980952Y-54328571D01*
X64933333Y-54233333D01*
X64838095Y-54185714D01*
X64647619Y-54185714D01*
X64552380Y-54233333D01*
X64980952Y-54804761D02*
X64885714Y-54852380D01*
X64647619Y-54852380D01*
X64552380Y-54804761D01*
X64504761Y-54709523D01*
X64504761Y-54614285D01*
X64552380Y-54519047D01*
X64647619Y-54471428D01*
X64885714Y-54471428D01*
X64980952Y-54423809D01*
X65885714Y-54185714D02*
X65885714Y-54995238D01*
X65838095Y-55090476D01*
X65790476Y-55138095D01*
X65695238Y-55185714D01*
X65552380Y-55185714D01*
X65457142Y-55138095D01*
X65885714Y-54804761D02*
X65790476Y-54852380D01*
X65600000Y-54852380D01*
X65504761Y-54804761D01*
X65457142Y-54757142D01*
X65409523Y-54661904D01*
X65409523Y-54376190D01*
X65457142Y-54280952D01*
X65504761Y-54233333D01*
X65600000Y-54185714D01*
X65790476Y-54185714D01*
X65885714Y-54233333D01*
X66361904Y-54185714D02*
X66361904Y-54852380D01*
X66361904Y-54280952D02*
X66409523Y-54233333D01*
X66504761Y-54185714D01*
X66647619Y-54185714D01*
X66742857Y-54233333D01*
X66790476Y-54328571D01*
X66790476Y-54852380D01*
X67647619Y-54804761D02*
X67552380Y-54852380D01*
X67361904Y-54852380D01*
X67266666Y-54804761D01*
X67219047Y-54709523D01*
X67219047Y-54328571D01*
X67266666Y-54233333D01*
X67361904Y-54185714D01*
X67552380Y-54185714D01*
X67647619Y-54233333D01*
X67695238Y-54328571D01*
X67695238Y-54423809D01*
X67219047Y-54519047D01*
X67980952Y-54185714D02*
X68361904Y-54185714D01*
X68123809Y-53852380D02*
X68123809Y-54709523D01*
X68171428Y-54804761D01*
X68266666Y-54852380D01*
X68361904Y-54852380D01*
X68695238Y-54852380D02*
X68695238Y-54185714D01*
X68695238Y-54376190D02*
X68742857Y-54280952D01*
X68790476Y-54233333D01*
X68885714Y-54185714D01*
X68980952Y-54185714D01*
X69457142Y-54852380D02*
X69361904Y-54804761D01*
X69314285Y-54757142D01*
X69266666Y-54661904D01*
X69266666Y-54376190D01*
X69314285Y-54280952D01*
X69361904Y-54233333D01*
X69457142Y-54185714D01*
X69600000Y-54185714D01*
X69695238Y-54233333D01*
X69742857Y-54280952D01*
X69790476Y-54376190D01*
X69790476Y-54661904D01*
X69742857Y-54757142D01*
X69695238Y-54804761D01*
X69600000Y-54852380D01*
X69457142Y-54852380D01*
X70219047Y-54185714D02*
X70219047Y-54852380D01*
X70219047Y-54280952D02*
X70266666Y-54233333D01*
X70361904Y-54185714D01*
X70504761Y-54185714D01*
X70600000Y-54233333D01*
X70647619Y-54328571D01*
X70647619Y-54852380D01*
X84038095Y-31747380D02*
X84038095Y-30747380D01*
X84419047Y-30747380D01*
X84514285Y-30795000D01*
X84561904Y-30842619D01*
X84609523Y-30937857D01*
X84609523Y-31080714D01*
X84561904Y-31175952D01*
X84514285Y-31223571D01*
X84419047Y-31271190D01*
X84038095Y-31271190D01*
X85038095Y-31747380D02*
X85038095Y-31080714D01*
X85038095Y-30747380D02*
X84990476Y-30795000D01*
X85038095Y-30842619D01*
X85085714Y-30795000D01*
X85038095Y-30747380D01*
X85038095Y-30842619D01*
X85514285Y-31747380D02*
X85514285Y-31080714D01*
X85514285Y-31271190D02*
X85561904Y-31175952D01*
X85609523Y-31128333D01*
X85704761Y-31080714D01*
X85800000Y-31080714D01*
X86561904Y-31747380D02*
X86561904Y-31223571D01*
X86514285Y-31128333D01*
X86419047Y-31080714D01*
X86228571Y-31080714D01*
X86133333Y-31128333D01*
X86561904Y-31699761D02*
X86466666Y-31747380D01*
X86228571Y-31747380D01*
X86133333Y-31699761D01*
X86085714Y-31604523D01*
X86085714Y-31509285D01*
X86133333Y-31414047D01*
X86228571Y-31366428D01*
X86466666Y-31366428D01*
X86561904Y-31318809D01*
X87038095Y-31080714D02*
X87038095Y-31747380D01*
X87038095Y-31175952D02*
X87085714Y-31128333D01*
X87180952Y-31080714D01*
X87323809Y-31080714D01*
X87419047Y-31128333D01*
X87466666Y-31223571D01*
X87466666Y-31747380D01*
X87942857Y-31747380D02*
X87942857Y-31080714D01*
X87942857Y-30747380D02*
X87895238Y-30795000D01*
X87942857Y-30842619D01*
X87990476Y-30795000D01*
X87942857Y-30747380D01*
X87942857Y-30842619D01*
X89704761Y-31747380D02*
X89133333Y-31747380D01*
X89419047Y-31747380D02*
X89419047Y-30747380D01*
X89323809Y-30890238D01*
X89228571Y-30985476D01*
X89133333Y-31033095D01*
X90133333Y-31223571D02*
X90466666Y-31223571D01*
X90609523Y-31747380D02*
X90133333Y-31747380D01*
X90133333Y-30747380D01*
X90609523Y-30747380D01*
X91038095Y-31366428D02*
X91800000Y-31366428D01*
X91419047Y-31747380D02*
X91419047Y-30985476D01*
X92180952Y-30747380D02*
X92800000Y-30747380D01*
X92466666Y-31128333D01*
X92609523Y-31128333D01*
X92704761Y-31175952D01*
X92752380Y-31223571D01*
X92800000Y-31318809D01*
X92800000Y-31556904D01*
X92752380Y-31652142D01*
X92704761Y-31699761D01*
X92609523Y-31747380D01*
X92323809Y-31747380D01*
X92228571Y-31699761D01*
X92180952Y-31652142D01*
X94514285Y-31747380D02*
X93942857Y-31747380D01*
X94228571Y-31747380D02*
X94228571Y-30747380D01*
X94133333Y-30890238D01*
X94038095Y-30985476D01*
X93942857Y-31033095D01*
X94942857Y-31223571D02*
X95276190Y-31223571D01*
X95419047Y-31747380D02*
X94942857Y-31747380D01*
X94942857Y-30747380D01*
X95419047Y-30747380D01*
X95847619Y-31366428D02*
X96609523Y-31366428D01*
X96990476Y-30747380D02*
X97609523Y-30747380D01*
X97276190Y-31128333D01*
X97419047Y-31128333D01*
X97514285Y-31175952D01*
X97561904Y-31223571D01*
X97609523Y-31318809D01*
X97609523Y-31556904D01*
X97561904Y-31652142D01*
X97514285Y-31699761D01*
X97419047Y-31747380D01*
X97133333Y-31747380D01*
X97038095Y-31699761D01*
X96990476Y-31652142D01*
X82371428Y-33357380D02*
X82371428Y-32357380D01*
X82704761Y-33071666D01*
X83038095Y-32357380D01*
X83038095Y-33357380D01*
X83942857Y-33357380D02*
X83942857Y-32833571D01*
X83895238Y-32738333D01*
X83800000Y-32690714D01*
X83609523Y-32690714D01*
X83514285Y-32738333D01*
X83942857Y-33309761D02*
X83847619Y-33357380D01*
X83609523Y-33357380D01*
X83514285Y-33309761D01*
X83466666Y-33214523D01*
X83466666Y-33119285D01*
X83514285Y-33024047D01*
X83609523Y-32976428D01*
X83847619Y-32976428D01*
X83942857Y-32928809D01*
X84847619Y-32690714D02*
X84847619Y-33500238D01*
X84800000Y-33595476D01*
X84752380Y-33643095D01*
X84657142Y-33690714D01*
X84514285Y-33690714D01*
X84419047Y-33643095D01*
X84847619Y-33309761D02*
X84752380Y-33357380D01*
X84561904Y-33357380D01*
X84466666Y-33309761D01*
X84419047Y-33262142D01*
X84371428Y-33166904D01*
X84371428Y-32881190D01*
X84419047Y-32785952D01*
X84466666Y-32738333D01*
X84561904Y-32690714D01*
X84752380Y-32690714D01*
X84847619Y-32738333D01*
X85323809Y-32690714D02*
X85323809Y-33357380D01*
X85323809Y-32785952D02*
X85371428Y-32738333D01*
X85466666Y-32690714D01*
X85609523Y-32690714D01*
X85704761Y-32738333D01*
X85752380Y-32833571D01*
X85752380Y-33357380D01*
X86609523Y-33309761D02*
X86514285Y-33357380D01*
X86323809Y-33357380D01*
X86228571Y-33309761D01*
X86180952Y-33214523D01*
X86180952Y-32833571D01*
X86228571Y-32738333D01*
X86323809Y-32690714D01*
X86514285Y-32690714D01*
X86609523Y-32738333D01*
X86657142Y-32833571D01*
X86657142Y-32928809D01*
X86180952Y-33024047D01*
X86942857Y-32690714D02*
X87323809Y-32690714D01*
X87085714Y-32357380D02*
X87085714Y-33214523D01*
X87133333Y-33309761D01*
X87228571Y-33357380D01*
X87323809Y-33357380D01*
X87657142Y-33357380D02*
X87657142Y-32690714D01*
X87657142Y-32881190D02*
X87704761Y-32785952D01*
X87752380Y-32738333D01*
X87847619Y-32690714D01*
X87942857Y-32690714D01*
X88419047Y-33357380D02*
X88323809Y-33309761D01*
X88276190Y-33262142D01*
X88228571Y-33166904D01*
X88228571Y-32881190D01*
X88276190Y-32785952D01*
X88323809Y-32738333D01*
X88419047Y-32690714D01*
X88561904Y-32690714D01*
X88657142Y-32738333D01*
X88704761Y-32785952D01*
X88752380Y-32881190D01*
X88752380Y-33166904D01*
X88704761Y-33262142D01*
X88657142Y-33309761D01*
X88561904Y-33357380D01*
X88419047Y-33357380D01*
X89180952Y-32690714D02*
X89180952Y-33357380D01*
X89180952Y-32785952D02*
X89228571Y-32738333D01*
X89323809Y-32690714D01*
X89466666Y-32690714D01*
X89561904Y-32738333D01*
X89609523Y-32833571D01*
X89609523Y-33357380D01*
X91371428Y-33357380D02*
X90800000Y-33357380D01*
X91085714Y-33357380D02*
X91085714Y-32357380D01*
X90990476Y-32500238D01*
X90895238Y-32595476D01*
X90800000Y-32643095D01*
X91800000Y-32833571D02*
X92133333Y-32833571D01*
X92276190Y-33357380D02*
X91800000Y-33357380D01*
X91800000Y-32357380D01*
X92276190Y-32357380D01*
X92704761Y-32976428D02*
X93466666Y-32976428D01*
X93895238Y-32452619D02*
X93942857Y-32405000D01*
X94038095Y-32357380D01*
X94276190Y-32357380D01*
X94371428Y-32405000D01*
X94419047Y-32452619D01*
X94466666Y-32547857D01*
X94466666Y-32643095D01*
X94419047Y-32785952D01*
X93847619Y-33357380D01*
X94466666Y-33357380D01*
X96180952Y-33357380D02*
X95609523Y-33357380D01*
X95895238Y-33357380D02*
X95895238Y-32357380D01*
X95800000Y-32500238D01*
X95704761Y-32595476D01*
X95609523Y-32643095D01*
X96609523Y-32833571D02*
X96942857Y-32833571D01*
X97085714Y-33357380D02*
X96609523Y-33357380D01*
X96609523Y-32357380D01*
X97085714Y-32357380D01*
X97514285Y-32976428D02*
X98276190Y-32976428D01*
X98800000Y-33357380D02*
X98990476Y-33357380D01*
X99085714Y-33309761D01*
X99133333Y-33262142D01*
X99228571Y-33119285D01*
X99276190Y-32928809D01*
X99276190Y-32547857D01*
X99228571Y-32452619D01*
X99180952Y-32405000D01*
X99085714Y-32357380D01*
X98895238Y-32357380D01*
X98800000Y-32405000D01*
X98752380Y-32452619D01*
X98704761Y-32547857D01*
X98704761Y-32785952D01*
X98752380Y-32881190D01*
X98800000Y-32928809D01*
X98895238Y-32976428D01*
X99085714Y-32976428D01*
X99180952Y-32928809D01*
X99228571Y-32881190D01*
X99276190Y-32785952D01*
X59845238Y-67404761D02*
X60226190Y-67404761D01*
X60416666Y-67500000D01*
X60607142Y-67690476D01*
X60702380Y-68071428D01*
X60702380Y-68738095D01*
X60607142Y-69119047D01*
X60416666Y-69309523D01*
X60226190Y-69404761D01*
X59845238Y-69404761D01*
X59654761Y-69309523D01*
X59464285Y-69119047D01*
X59369047Y-68738095D01*
X59369047Y-68071428D01*
X59464285Y-67690476D01*
X59654761Y-67500000D01*
X59845238Y-67404761D01*
X62226190Y-68357142D02*
X61559523Y-68357142D01*
X61559523Y-69404761D02*
X61559523Y-67404761D01*
X62511904Y-67404761D01*
X63940476Y-68357142D02*
X63273809Y-68357142D01*
X63273809Y-69404761D02*
X63273809Y-67404761D01*
X64226190Y-67404761D01*
X88804761Y-39152380D02*
X88471428Y-38676190D01*
X88233333Y-39152380D02*
X88233333Y-38152380D01*
X88614285Y-38152380D01*
X88709523Y-38200000D01*
X88757142Y-38247619D01*
X88804761Y-38342857D01*
X88804761Y-38485714D01*
X88757142Y-38580952D01*
X88709523Y-38628571D01*
X88614285Y-38676190D01*
X88233333Y-38676190D01*
X89614285Y-39104761D02*
X89519047Y-39152380D01*
X89328571Y-39152380D01*
X89233333Y-39104761D01*
X89185714Y-39009523D01*
X89185714Y-38628571D01*
X89233333Y-38533333D01*
X89328571Y-38485714D01*
X89519047Y-38485714D01*
X89614285Y-38533333D01*
X89661904Y-38628571D01*
X89661904Y-38723809D01*
X89185714Y-38819047D01*
X89995238Y-38485714D02*
X90233333Y-39152380D01*
X90471428Y-38485714D01*
X90852380Y-39057142D02*
X90900000Y-39104761D01*
X90852380Y-39152380D01*
X90804761Y-39104761D01*
X90852380Y-39057142D01*
X90852380Y-39152380D01*
X90852380Y-38533333D02*
X90900000Y-38580952D01*
X90852380Y-38628571D01*
X90804761Y-38580952D01*
X90852380Y-38533333D01*
X90852380Y-38628571D01*
X92614285Y-39152380D02*
X92042857Y-39152380D01*
X92328571Y-39152380D02*
X92328571Y-38152380D01*
X92233333Y-38295238D01*
X92138095Y-38390476D01*
X92042857Y-38438095D01*
X58204761Y-35952380D02*
X58204761Y-34952380D01*
X58585714Y-34952380D01*
X58680952Y-35000000D01*
X58728571Y-35047619D01*
X58776190Y-35142857D01*
X58776190Y-35285714D01*
X58728571Y-35380952D01*
X58680952Y-35428571D01*
X58585714Y-35476190D01*
X58204761Y-35476190D01*
X59061904Y-35285714D02*
X59442857Y-35285714D01*
X59204761Y-35952380D02*
X59204761Y-35095238D01*
X59252380Y-35000000D01*
X59347619Y-34952380D01*
X59442857Y-34952380D01*
X60157142Y-35904761D02*
X60061904Y-35952380D01*
X59871428Y-35952380D01*
X59776190Y-35904761D01*
X59728571Y-35809523D01*
X59728571Y-35428571D01*
X59776190Y-35333333D01*
X59871428Y-35285714D01*
X60061904Y-35285714D01*
X60157142Y-35333333D01*
X60204761Y-35428571D01*
X60204761Y-35523809D01*
X59728571Y-35619047D01*
X60633333Y-35952380D02*
X60633333Y-35285714D01*
X60633333Y-34952380D02*
X60585714Y-35000000D01*
X60633333Y-35047619D01*
X60680952Y-35000000D01*
X60633333Y-34952380D01*
X60633333Y-35047619D01*
X60966666Y-35285714D02*
X61347619Y-35285714D01*
X61109523Y-35952380D02*
X61109523Y-35095238D01*
X61157142Y-35000000D01*
X61252380Y-34952380D01*
X61347619Y-34952380D01*
X61538095Y-35285714D02*
X61919047Y-35285714D01*
X61680952Y-35952380D02*
X61680952Y-35095238D01*
X61728571Y-35000000D01*
X61823809Y-34952380D01*
X61919047Y-34952380D01*
X62633333Y-35904761D02*
X62538095Y-35952380D01*
X62347619Y-35952380D01*
X62252380Y-35904761D01*
X62204761Y-35809523D01*
X62204761Y-35428571D01*
X62252380Y-35333333D01*
X62347619Y-35285714D01*
X62538095Y-35285714D01*
X62633333Y-35333333D01*
X62680952Y-35428571D01*
X62680952Y-35523809D01*
X62204761Y-35619047D01*
X63109523Y-35952380D02*
X63109523Y-35285714D01*
X63109523Y-35476190D02*
X63157142Y-35380952D01*
X63204761Y-35333333D01*
X63300000Y-35285714D01*
X63395238Y-35285714D01*
X64490476Y-35952380D02*
X64490476Y-34952380D01*
X64871428Y-34952380D01*
X64966666Y-35000000D01*
X65014285Y-35047619D01*
X65061904Y-35142857D01*
X65061904Y-35285714D01*
X65014285Y-35380952D01*
X64966666Y-35428571D01*
X64871428Y-35476190D01*
X64490476Y-35476190D01*
X65490476Y-35952380D02*
X65490476Y-35285714D01*
X65490476Y-34952380D02*
X65442857Y-35000000D01*
X65490476Y-35047619D01*
X65538095Y-35000000D01*
X65490476Y-34952380D01*
X65490476Y-35047619D01*
X65966666Y-35952380D02*
X65966666Y-35285714D01*
X65966666Y-35476190D02*
X66014285Y-35380952D01*
X66061904Y-35333333D01*
X66157142Y-35285714D01*
X66252380Y-35285714D01*
X67014285Y-35952380D02*
X67014285Y-35428571D01*
X66966666Y-35333333D01*
X66871428Y-35285714D01*
X66680952Y-35285714D01*
X66585714Y-35333333D01*
X67014285Y-35904761D02*
X66919047Y-35952380D01*
X66680952Y-35952380D01*
X66585714Y-35904761D01*
X66538095Y-35809523D01*
X66538095Y-35714285D01*
X66585714Y-35619047D01*
X66680952Y-35571428D01*
X66919047Y-35571428D01*
X67014285Y-35523809D01*
X67490476Y-35285714D02*
X67490476Y-35952380D01*
X67490476Y-35380952D02*
X67538095Y-35333333D01*
X67633333Y-35285714D01*
X67776190Y-35285714D01*
X67871428Y-35333333D01*
X67919047Y-35428571D01*
X67919047Y-35952380D01*
X68395238Y-35952380D02*
X68395238Y-35285714D01*
X68395238Y-34952380D02*
X68347619Y-35000000D01*
X68395238Y-35047619D01*
X68442857Y-35000000D01*
X68395238Y-34952380D01*
X68395238Y-35047619D01*
X83142857Y-29952380D02*
X83142857Y-28952380D01*
X83142857Y-29428571D02*
X83714285Y-29428571D01*
X83714285Y-29952380D02*
X83714285Y-28952380D01*
X84190476Y-29952380D02*
X84190476Y-29285714D01*
X84190476Y-28952380D02*
X84142857Y-29000000D01*
X84190476Y-29047619D01*
X84238095Y-29000000D01*
X84190476Y-28952380D01*
X84190476Y-29047619D01*
X85095238Y-29285714D02*
X85095238Y-30095238D01*
X85047619Y-30190476D01*
X85000000Y-30238095D01*
X84904761Y-30285714D01*
X84761904Y-30285714D01*
X84666666Y-30238095D01*
X85095238Y-29904761D02*
X85000000Y-29952380D01*
X84809523Y-29952380D01*
X84714285Y-29904761D01*
X84666666Y-29857142D01*
X84619047Y-29761904D01*
X84619047Y-29476190D01*
X84666666Y-29380952D01*
X84714285Y-29333333D01*
X84809523Y-29285714D01*
X85000000Y-29285714D01*
X85095238Y-29333333D01*
X85571428Y-29952380D02*
X85571428Y-28952380D01*
X86000000Y-29952380D02*
X86000000Y-29428571D01*
X85952380Y-29333333D01*
X85857142Y-29285714D01*
X85714285Y-29285714D01*
X85619047Y-29333333D01*
X85571428Y-29380952D01*
X86476190Y-29571428D02*
X87238095Y-29571428D01*
X87571428Y-28952380D02*
X87904761Y-29952380D01*
X88238095Y-28952380D01*
X89000000Y-29952380D02*
X89000000Y-29428571D01*
X88952380Y-29333333D01*
X88857142Y-29285714D01*
X88666666Y-29285714D01*
X88571428Y-29333333D01*
X89000000Y-29904761D02*
X88904761Y-29952380D01*
X88666666Y-29952380D01*
X88571428Y-29904761D01*
X88523809Y-29809523D01*
X88523809Y-29714285D01*
X88571428Y-29619047D01*
X88666666Y-29571428D01*
X88904761Y-29571428D01*
X89000000Y-29523809D01*
X89904761Y-29904761D02*
X89809523Y-29952380D01*
X89619047Y-29952380D01*
X89523809Y-29904761D01*
X89476190Y-29857142D01*
X89428571Y-29761904D01*
X89428571Y-29476190D01*
X89476190Y-29380952D01*
X89523809Y-29333333D01*
X89619047Y-29285714D01*
X89809523Y-29285714D01*
X89904761Y-29333333D01*
X90761904Y-29285714D02*
X90761904Y-29952380D01*
X90333333Y-29285714D02*
X90333333Y-29809523D01*
X90380952Y-29904761D01*
X90476190Y-29952380D01*
X90619047Y-29952380D01*
X90714285Y-29904761D01*
X90761904Y-29857142D01*
X91666666Y-29285714D02*
X91666666Y-29952380D01*
X91238095Y-29285714D02*
X91238095Y-29809523D01*
X91285714Y-29904761D01*
X91380952Y-29952380D01*
X91523809Y-29952380D01*
X91619047Y-29904761D01*
X91666666Y-29857142D01*
X92142857Y-29952380D02*
X92142857Y-29285714D01*
X92142857Y-29380952D02*
X92190476Y-29333333D01*
X92285714Y-29285714D01*
X92428571Y-29285714D01*
X92523809Y-29333333D01*
X92571428Y-29428571D01*
X92571428Y-29952380D01*
X92571428Y-29428571D02*
X92619047Y-29333333D01*
X92714285Y-29285714D01*
X92857142Y-29285714D01*
X92952380Y-29333333D01*
X93000000Y-29428571D01*
X93000000Y-29952380D01*
X93476190Y-29571428D02*
X94238095Y-29571428D01*
X94666666Y-29904761D02*
X94809523Y-29952380D01*
X95047619Y-29952380D01*
X95142857Y-29904761D01*
X95190476Y-29857142D01*
X95238095Y-29761904D01*
X95238095Y-29666666D01*
X95190476Y-29571428D01*
X95142857Y-29523809D01*
X95047619Y-29476190D01*
X94857142Y-29428571D01*
X94761904Y-29380952D01*
X94714285Y-29333333D01*
X94666666Y-29238095D01*
X94666666Y-29142857D01*
X94714285Y-29047619D01*
X94761904Y-29000000D01*
X94857142Y-28952380D01*
X95095238Y-28952380D01*
X95238095Y-29000000D01*
X95666666Y-29952380D02*
X95666666Y-28952380D01*
X96095238Y-29952380D02*
X96095238Y-29428571D01*
X96047619Y-29333333D01*
X95952380Y-29285714D01*
X95809523Y-29285714D01*
X95714285Y-29333333D01*
X95666666Y-29380952D01*
X96571428Y-29952380D02*
X96571428Y-29285714D01*
X96571428Y-28952380D02*
X96523809Y-29000000D01*
X96571428Y-29047619D01*
X96619047Y-29000000D01*
X96571428Y-28952380D01*
X96571428Y-29047619D01*
X97428571Y-29904761D02*
X97333333Y-29952380D01*
X97142857Y-29952380D01*
X97047619Y-29904761D01*
X97000000Y-29809523D01*
X97000000Y-29428571D01*
X97047619Y-29333333D01*
X97142857Y-29285714D01*
X97333333Y-29285714D01*
X97428571Y-29333333D01*
X97476190Y-29428571D01*
X97476190Y-29523809D01*
X97000000Y-29619047D01*
X98047619Y-29952380D02*
X97952380Y-29904761D01*
X97904761Y-29809523D01*
X97904761Y-28952380D01*
X98857142Y-29952380D02*
X98857142Y-28952380D01*
X98857142Y-29904761D02*
X98761904Y-29952380D01*
X98571428Y-29952380D01*
X98476190Y-29904761D01*
X98428571Y-29857142D01*
X98380952Y-29761904D01*
X98380952Y-29476190D01*
X98428571Y-29380952D01*
X98476190Y-29333333D01*
X98571428Y-29285714D01*
X98761904Y-29285714D01*
X98857142Y-29333333D01*
%TO.C,C106*%
X87880952Y-82787142D02*
X87833333Y-82834761D01*
X87690476Y-82882380D01*
X87595238Y-82882380D01*
X87452380Y-82834761D01*
X87357142Y-82739523D01*
X87309523Y-82644285D01*
X87261904Y-82453809D01*
X87261904Y-82310952D01*
X87309523Y-82120476D01*
X87357142Y-82025238D01*
X87452380Y-81930000D01*
X87595238Y-81882380D01*
X87690476Y-81882380D01*
X87833333Y-81930000D01*
X87880952Y-81977619D01*
X88833333Y-82882380D02*
X88261904Y-82882380D01*
X88547619Y-82882380D02*
X88547619Y-81882380D01*
X88452380Y-82025238D01*
X88357142Y-82120476D01*
X88261904Y-82168095D01*
X89452380Y-81882380D02*
X89547619Y-81882380D01*
X89642857Y-81930000D01*
X89690476Y-81977619D01*
X89738095Y-82072857D01*
X89785714Y-82263333D01*
X89785714Y-82501428D01*
X89738095Y-82691904D01*
X89690476Y-82787142D01*
X89642857Y-82834761D01*
X89547619Y-82882380D01*
X89452380Y-82882380D01*
X89357142Y-82834761D01*
X89309523Y-82787142D01*
X89261904Y-82691904D01*
X89214285Y-82501428D01*
X89214285Y-82263333D01*
X89261904Y-82072857D01*
X89309523Y-81977619D01*
X89357142Y-81930000D01*
X89452380Y-81882380D01*
X90642857Y-81882380D02*
X90452380Y-81882380D01*
X90357142Y-81930000D01*
X90309523Y-81977619D01*
X90214285Y-82120476D01*
X90166666Y-82310952D01*
X90166666Y-82691904D01*
X90214285Y-82787142D01*
X90261904Y-82834761D01*
X90357142Y-82882380D01*
X90547619Y-82882380D01*
X90642857Y-82834761D01*
X90690476Y-82787142D01*
X90738095Y-82691904D01*
X90738095Y-82453809D01*
X90690476Y-82358571D01*
X90642857Y-82310952D01*
X90547619Y-82263333D01*
X90357142Y-82263333D01*
X90261904Y-82310952D01*
X90214285Y-82358571D01*
X90166666Y-82453809D01*
%TO.C,D101*%
X74309523Y-54772380D02*
X74309523Y-53772380D01*
X74547619Y-53772380D01*
X74690476Y-53820000D01*
X74785714Y-53915238D01*
X74833333Y-54010476D01*
X74880952Y-54200952D01*
X74880952Y-54343809D01*
X74833333Y-54534285D01*
X74785714Y-54629523D01*
X74690476Y-54724761D01*
X74547619Y-54772380D01*
X74309523Y-54772380D01*
X75833333Y-54772380D02*
X75261904Y-54772380D01*
X75547619Y-54772380D02*
X75547619Y-53772380D01*
X75452380Y-53915238D01*
X75357142Y-54010476D01*
X75261904Y-54058095D01*
X76452380Y-53772380D02*
X76547619Y-53772380D01*
X76642857Y-53820000D01*
X76690476Y-53867619D01*
X76738095Y-53962857D01*
X76785714Y-54153333D01*
X76785714Y-54391428D01*
X76738095Y-54581904D01*
X76690476Y-54677142D01*
X76642857Y-54724761D01*
X76547619Y-54772380D01*
X76452380Y-54772380D01*
X76357142Y-54724761D01*
X76309523Y-54677142D01*
X76261904Y-54581904D01*
X76214285Y-54391428D01*
X76214285Y-54153333D01*
X76261904Y-53962857D01*
X76309523Y-53867619D01*
X76357142Y-53820000D01*
X76452380Y-53772380D01*
X77738095Y-54772380D02*
X77166666Y-54772380D01*
X77452380Y-54772380D02*
X77452380Y-53772380D01*
X77357142Y-53915238D01*
X77261904Y-54010476D01*
X77166666Y-54058095D01*
%TO.C,R201*%
X110102380Y-27119047D02*
X109626190Y-27452380D01*
X110102380Y-27690476D02*
X109102380Y-27690476D01*
X109102380Y-27309523D01*
X109150000Y-27214285D01*
X109197619Y-27166666D01*
X109292857Y-27119047D01*
X109435714Y-27119047D01*
X109530952Y-27166666D01*
X109578571Y-27214285D01*
X109626190Y-27309523D01*
X109626190Y-27690476D01*
X109197619Y-26738095D02*
X109150000Y-26690476D01*
X109102380Y-26595238D01*
X109102380Y-26357142D01*
X109150000Y-26261904D01*
X109197619Y-26214285D01*
X109292857Y-26166666D01*
X109388095Y-26166666D01*
X109530952Y-26214285D01*
X110102380Y-26785714D01*
X110102380Y-26166666D01*
X109102380Y-25547619D02*
X109102380Y-25452380D01*
X109150000Y-25357142D01*
X109197619Y-25309523D01*
X109292857Y-25261904D01*
X109483333Y-25214285D01*
X109721428Y-25214285D01*
X109911904Y-25261904D01*
X110007142Y-25309523D01*
X110054761Y-25357142D01*
X110102380Y-25452380D01*
X110102380Y-25547619D01*
X110054761Y-25642857D01*
X110007142Y-25690476D01*
X109911904Y-25738095D01*
X109721428Y-25785714D01*
X109483333Y-25785714D01*
X109292857Y-25738095D01*
X109197619Y-25690476D01*
X109150000Y-25642857D01*
X109102380Y-25547619D01*
X110102380Y-24261904D02*
X110102380Y-24833333D01*
X110102380Y-24547619D02*
X109102380Y-24547619D01*
X109245238Y-24642857D01*
X109340476Y-24738095D01*
X109388095Y-24833333D01*
%TO.C,R114*%
X74130952Y-40272380D02*
X73797619Y-39796190D01*
X73559523Y-40272380D02*
X73559523Y-39272380D01*
X73940476Y-39272380D01*
X74035714Y-39320000D01*
X74083333Y-39367619D01*
X74130952Y-39462857D01*
X74130952Y-39605714D01*
X74083333Y-39700952D01*
X74035714Y-39748571D01*
X73940476Y-39796190D01*
X73559523Y-39796190D01*
X75083333Y-40272380D02*
X74511904Y-40272380D01*
X74797619Y-40272380D02*
X74797619Y-39272380D01*
X74702380Y-39415238D01*
X74607142Y-39510476D01*
X74511904Y-39558095D01*
X76035714Y-40272380D02*
X75464285Y-40272380D01*
X75750000Y-40272380D02*
X75750000Y-39272380D01*
X75654761Y-39415238D01*
X75559523Y-39510476D01*
X75464285Y-39558095D01*
X76892857Y-39605714D02*
X76892857Y-40272380D01*
X76654761Y-39224761D02*
X76416666Y-39939047D01*
X77035714Y-39939047D01*
%TO.C,R104*%
X78630952Y-37772380D02*
X78297619Y-37296190D01*
X78059523Y-37772380D02*
X78059523Y-36772380D01*
X78440476Y-36772380D01*
X78535714Y-36820000D01*
X78583333Y-36867619D01*
X78630952Y-36962857D01*
X78630952Y-37105714D01*
X78583333Y-37200952D01*
X78535714Y-37248571D01*
X78440476Y-37296190D01*
X78059523Y-37296190D01*
X79583333Y-37772380D02*
X79011904Y-37772380D01*
X79297619Y-37772380D02*
X79297619Y-36772380D01*
X79202380Y-36915238D01*
X79107142Y-37010476D01*
X79011904Y-37058095D01*
X80202380Y-36772380D02*
X80297619Y-36772380D01*
X80392857Y-36820000D01*
X80440476Y-36867619D01*
X80488095Y-36962857D01*
X80535714Y-37153333D01*
X80535714Y-37391428D01*
X80488095Y-37581904D01*
X80440476Y-37677142D01*
X80392857Y-37724761D01*
X80297619Y-37772380D01*
X80202380Y-37772380D01*
X80107142Y-37724761D01*
X80059523Y-37677142D01*
X80011904Y-37581904D01*
X79964285Y-37391428D01*
X79964285Y-37153333D01*
X80011904Y-36962857D01*
X80059523Y-36867619D01*
X80107142Y-36820000D01*
X80202380Y-36772380D01*
X81392857Y-37105714D02*
X81392857Y-37772380D01*
X81154761Y-36724761D02*
X80916666Y-37439047D01*
X81535714Y-37439047D01*
%TO.C,R109*%
X78630952Y-49522380D02*
X78297619Y-49046190D01*
X78059523Y-49522380D02*
X78059523Y-48522380D01*
X78440476Y-48522380D01*
X78535714Y-48570000D01*
X78583333Y-48617619D01*
X78630952Y-48712857D01*
X78630952Y-48855714D01*
X78583333Y-48950952D01*
X78535714Y-48998571D01*
X78440476Y-49046190D01*
X78059523Y-49046190D01*
X79583333Y-49522380D02*
X79011904Y-49522380D01*
X79297619Y-49522380D02*
X79297619Y-48522380D01*
X79202380Y-48665238D01*
X79107142Y-48760476D01*
X79011904Y-48808095D01*
X80202380Y-48522380D02*
X80297619Y-48522380D01*
X80392857Y-48570000D01*
X80440476Y-48617619D01*
X80488095Y-48712857D01*
X80535714Y-48903333D01*
X80535714Y-49141428D01*
X80488095Y-49331904D01*
X80440476Y-49427142D01*
X80392857Y-49474761D01*
X80297619Y-49522380D01*
X80202380Y-49522380D01*
X80107142Y-49474761D01*
X80059523Y-49427142D01*
X80011904Y-49331904D01*
X79964285Y-49141428D01*
X79964285Y-48903333D01*
X80011904Y-48712857D01*
X80059523Y-48617619D01*
X80107142Y-48570000D01*
X80202380Y-48522380D01*
X81011904Y-49522380D02*
X81202380Y-49522380D01*
X81297619Y-49474761D01*
X81345238Y-49427142D01*
X81440476Y-49284285D01*
X81488095Y-49093809D01*
X81488095Y-48712857D01*
X81440476Y-48617619D01*
X81392857Y-48570000D01*
X81297619Y-48522380D01*
X81107142Y-48522380D01*
X81011904Y-48570000D01*
X80964285Y-48617619D01*
X80916666Y-48712857D01*
X80916666Y-48950952D01*
X80964285Y-49046190D01*
X81011904Y-49093809D01*
X81107142Y-49141428D01*
X81297619Y-49141428D01*
X81392857Y-49093809D01*
X81440476Y-49046190D01*
X81488095Y-48950952D01*
%TO.C,C109*%
X112107142Y-67119047D02*
X112154761Y-67166666D01*
X112202380Y-67309523D01*
X112202380Y-67404761D01*
X112154761Y-67547619D01*
X112059523Y-67642857D01*
X111964285Y-67690476D01*
X111773809Y-67738095D01*
X111630952Y-67738095D01*
X111440476Y-67690476D01*
X111345238Y-67642857D01*
X111250000Y-67547619D01*
X111202380Y-67404761D01*
X111202380Y-67309523D01*
X111250000Y-67166666D01*
X111297619Y-67119047D01*
X112202380Y-66166666D02*
X112202380Y-66738095D01*
X112202380Y-66452380D02*
X111202380Y-66452380D01*
X111345238Y-66547619D01*
X111440476Y-66642857D01*
X111488095Y-66738095D01*
X111202380Y-65547619D02*
X111202380Y-65452380D01*
X111250000Y-65357142D01*
X111297619Y-65309523D01*
X111392857Y-65261904D01*
X111583333Y-65214285D01*
X111821428Y-65214285D01*
X112011904Y-65261904D01*
X112107142Y-65309523D01*
X112154761Y-65357142D01*
X112202380Y-65452380D01*
X112202380Y-65547619D01*
X112154761Y-65642857D01*
X112107142Y-65690476D01*
X112011904Y-65738095D01*
X111821428Y-65785714D01*
X111583333Y-65785714D01*
X111392857Y-65738095D01*
X111297619Y-65690476D01*
X111250000Y-65642857D01*
X111202380Y-65547619D01*
X112202380Y-64738095D02*
X112202380Y-64547619D01*
X112154761Y-64452380D01*
X112107142Y-64404761D01*
X111964285Y-64309523D01*
X111773809Y-64261904D01*
X111392857Y-64261904D01*
X111297619Y-64309523D01*
X111250000Y-64357142D01*
X111202380Y-64452380D01*
X111202380Y-64642857D01*
X111250000Y-64738095D01*
X111297619Y-64785714D01*
X111392857Y-64833333D01*
X111630952Y-64833333D01*
X111726190Y-64785714D01*
X111773809Y-64738095D01*
X111821428Y-64642857D01*
X111821428Y-64452380D01*
X111773809Y-64357142D01*
X111726190Y-64309523D01*
X111630952Y-64261904D01*
%TO.C,C113*%
X85787142Y-26319047D02*
X85834761Y-26366666D01*
X85882380Y-26509523D01*
X85882380Y-26604761D01*
X85834761Y-26747619D01*
X85739523Y-26842857D01*
X85644285Y-26890476D01*
X85453809Y-26938095D01*
X85310952Y-26938095D01*
X85120476Y-26890476D01*
X85025238Y-26842857D01*
X84930000Y-26747619D01*
X84882380Y-26604761D01*
X84882380Y-26509523D01*
X84930000Y-26366666D01*
X84977619Y-26319047D01*
X85882380Y-25366666D02*
X85882380Y-25938095D01*
X85882380Y-25652380D02*
X84882380Y-25652380D01*
X85025238Y-25747619D01*
X85120476Y-25842857D01*
X85168095Y-25938095D01*
X85882380Y-24414285D02*
X85882380Y-24985714D01*
X85882380Y-24700000D02*
X84882380Y-24700000D01*
X85025238Y-24795238D01*
X85120476Y-24890476D01*
X85168095Y-24985714D01*
X84882380Y-24080952D02*
X84882380Y-23461904D01*
X85263333Y-23795238D01*
X85263333Y-23652380D01*
X85310952Y-23557142D01*
X85358571Y-23509523D01*
X85453809Y-23461904D01*
X85691904Y-23461904D01*
X85787142Y-23509523D01*
X85834761Y-23557142D01*
X85882380Y-23652380D01*
X85882380Y-23938095D01*
X85834761Y-24033333D01*
X85787142Y-24080952D01*
%TO.C,F101*%
X66208571Y-76285714D02*
X66208571Y-76619047D01*
X66732380Y-76619047D02*
X65732380Y-76619047D01*
X65732380Y-76142857D01*
X66732380Y-75238095D02*
X66732380Y-75809523D01*
X66732380Y-75523809D02*
X65732380Y-75523809D01*
X65875238Y-75619047D01*
X65970476Y-75714285D01*
X66018095Y-75809523D01*
X65732380Y-74619047D02*
X65732380Y-74523809D01*
X65780000Y-74428571D01*
X65827619Y-74380952D01*
X65922857Y-74333333D01*
X66113333Y-74285714D01*
X66351428Y-74285714D01*
X66541904Y-74333333D01*
X66637142Y-74380952D01*
X66684761Y-74428571D01*
X66732380Y-74523809D01*
X66732380Y-74619047D01*
X66684761Y-74714285D01*
X66637142Y-74761904D01*
X66541904Y-74809523D01*
X66351428Y-74857142D01*
X66113333Y-74857142D01*
X65922857Y-74809523D01*
X65827619Y-74761904D01*
X65780000Y-74714285D01*
X65732380Y-74619047D01*
X66732380Y-73333333D02*
X66732380Y-73904761D01*
X66732380Y-73619047D02*
X65732380Y-73619047D01*
X65875238Y-73714285D01*
X65970476Y-73809523D01*
X66018095Y-73904761D01*
%TO.C,R218*%
X140602380Y-21869047D02*
X140126190Y-22202380D01*
X140602380Y-22440476D02*
X139602380Y-22440476D01*
X139602380Y-22059523D01*
X139650000Y-21964285D01*
X139697619Y-21916666D01*
X139792857Y-21869047D01*
X139935714Y-21869047D01*
X140030952Y-21916666D01*
X140078571Y-21964285D01*
X140126190Y-22059523D01*
X140126190Y-22440476D01*
X139697619Y-21488095D02*
X139650000Y-21440476D01*
X139602380Y-21345238D01*
X139602380Y-21107142D01*
X139650000Y-21011904D01*
X139697619Y-20964285D01*
X139792857Y-20916666D01*
X139888095Y-20916666D01*
X140030952Y-20964285D01*
X140602380Y-21535714D01*
X140602380Y-20916666D01*
X140602380Y-19964285D02*
X140602380Y-20535714D01*
X140602380Y-20250000D02*
X139602380Y-20250000D01*
X139745238Y-20345238D01*
X139840476Y-20440476D01*
X139888095Y-20535714D01*
X140030952Y-19392857D02*
X139983333Y-19488095D01*
X139935714Y-19535714D01*
X139840476Y-19583333D01*
X139792857Y-19583333D01*
X139697619Y-19535714D01*
X139650000Y-19488095D01*
X139602380Y-19392857D01*
X139602380Y-19202380D01*
X139650000Y-19107142D01*
X139697619Y-19059523D01*
X139792857Y-19011904D01*
X139840476Y-19011904D01*
X139935714Y-19059523D01*
X139983333Y-19107142D01*
X140030952Y-19202380D01*
X140030952Y-19392857D01*
X140078571Y-19488095D01*
X140126190Y-19535714D01*
X140221428Y-19583333D01*
X140411904Y-19583333D01*
X140507142Y-19535714D01*
X140554761Y-19488095D01*
X140602380Y-19392857D01*
X140602380Y-19202380D01*
X140554761Y-19107142D01*
X140507142Y-19059523D01*
X140411904Y-19011904D01*
X140221428Y-19011904D01*
X140126190Y-19059523D01*
X140078571Y-19107142D01*
X140030952Y-19202380D01*
%TO.C,U206*%
X138852380Y-55714285D02*
X139661904Y-55714285D01*
X139757142Y-55666666D01*
X139804761Y-55619047D01*
X139852380Y-55523809D01*
X139852380Y-55333333D01*
X139804761Y-55238095D01*
X139757142Y-55190476D01*
X139661904Y-55142857D01*
X138852380Y-55142857D01*
X138947619Y-54714285D02*
X138900000Y-54666666D01*
X138852380Y-54571428D01*
X138852380Y-54333333D01*
X138900000Y-54238095D01*
X138947619Y-54190476D01*
X139042857Y-54142857D01*
X139138095Y-54142857D01*
X139280952Y-54190476D01*
X139852380Y-54761904D01*
X139852380Y-54142857D01*
X138852380Y-53523809D02*
X138852380Y-53428571D01*
X138900000Y-53333333D01*
X138947619Y-53285714D01*
X139042857Y-53238095D01*
X139233333Y-53190476D01*
X139471428Y-53190476D01*
X139661904Y-53238095D01*
X139757142Y-53285714D01*
X139804761Y-53333333D01*
X139852380Y-53428571D01*
X139852380Y-53523809D01*
X139804761Y-53619047D01*
X139757142Y-53666666D01*
X139661904Y-53714285D01*
X139471428Y-53761904D01*
X139233333Y-53761904D01*
X139042857Y-53714285D01*
X138947619Y-53666666D01*
X138900000Y-53619047D01*
X138852380Y-53523809D01*
X138852380Y-52333333D02*
X138852380Y-52523809D01*
X138900000Y-52619047D01*
X138947619Y-52666666D01*
X139090476Y-52761904D01*
X139280952Y-52809523D01*
X139661904Y-52809523D01*
X139757142Y-52761904D01*
X139804761Y-52714285D01*
X139852380Y-52619047D01*
X139852380Y-52428571D01*
X139804761Y-52333333D01*
X139757142Y-52285714D01*
X139661904Y-52238095D01*
X139423809Y-52238095D01*
X139328571Y-52285714D01*
X139280952Y-52333333D01*
X139233333Y-52428571D01*
X139233333Y-52619047D01*
X139280952Y-52714285D01*
X139328571Y-52761904D01*
X139423809Y-52809523D01*
%TO.C,R101*%
X74880952Y-52022380D02*
X74547619Y-51546190D01*
X74309523Y-52022380D02*
X74309523Y-51022380D01*
X74690476Y-51022380D01*
X74785714Y-51070000D01*
X74833333Y-51117619D01*
X74880952Y-51212857D01*
X74880952Y-51355714D01*
X74833333Y-51450952D01*
X74785714Y-51498571D01*
X74690476Y-51546190D01*
X74309523Y-51546190D01*
X75833333Y-52022380D02*
X75261904Y-52022380D01*
X75547619Y-52022380D02*
X75547619Y-51022380D01*
X75452380Y-51165238D01*
X75357142Y-51260476D01*
X75261904Y-51308095D01*
X76452380Y-51022380D02*
X76547619Y-51022380D01*
X76642857Y-51070000D01*
X76690476Y-51117619D01*
X76738095Y-51212857D01*
X76785714Y-51403333D01*
X76785714Y-51641428D01*
X76738095Y-51831904D01*
X76690476Y-51927142D01*
X76642857Y-51974761D01*
X76547619Y-52022380D01*
X76452380Y-52022380D01*
X76357142Y-51974761D01*
X76309523Y-51927142D01*
X76261904Y-51831904D01*
X76214285Y-51641428D01*
X76214285Y-51403333D01*
X76261904Y-51212857D01*
X76309523Y-51117619D01*
X76357142Y-51070000D01*
X76452380Y-51022380D01*
X77738095Y-52022380D02*
X77166666Y-52022380D01*
X77452380Y-52022380D02*
X77452380Y-51022380D01*
X77357142Y-51165238D01*
X77261904Y-51260476D01*
X77166666Y-51308095D01*
%TO.C,J103*%
X70327619Y-25681785D02*
X69613333Y-25681785D01*
X69470476Y-25634166D01*
X69375238Y-25538928D01*
X69327619Y-25396071D01*
X69327619Y-25300833D01*
X69327619Y-26681785D02*
X69327619Y-26110357D01*
X69327619Y-26396071D02*
X70327619Y-26396071D01*
X70184761Y-26300833D01*
X70089523Y-26205595D01*
X70041904Y-26110357D01*
X70327619Y-27300833D02*
X70327619Y-27396071D01*
X70280000Y-27491309D01*
X70232380Y-27538928D01*
X70137142Y-27586547D01*
X69946666Y-27634166D01*
X69708571Y-27634166D01*
X69518095Y-27586547D01*
X69422857Y-27538928D01*
X69375238Y-27491309D01*
X69327619Y-27396071D01*
X69327619Y-27300833D01*
X69375238Y-27205595D01*
X69422857Y-27157976D01*
X69518095Y-27110357D01*
X69708571Y-27062738D01*
X69946666Y-27062738D01*
X70137142Y-27110357D01*
X70232380Y-27157976D01*
X70280000Y-27205595D01*
X70327619Y-27300833D01*
X70327619Y-27967500D02*
X70327619Y-28586547D01*
X69946666Y-28253214D01*
X69946666Y-28396071D01*
X69899047Y-28491309D01*
X69851428Y-28538928D01*
X69756190Y-28586547D01*
X69518095Y-28586547D01*
X69422857Y-28538928D01*
X69375238Y-28491309D01*
X69327619Y-28396071D01*
X69327619Y-28110357D01*
X69375238Y-28015119D01*
X69422857Y-27967500D01*
%TO.C,R106*%
X74380952Y-32272380D02*
X74047619Y-31796190D01*
X73809523Y-32272380D02*
X73809523Y-31272380D01*
X74190476Y-31272380D01*
X74285714Y-31320000D01*
X74333333Y-31367619D01*
X74380952Y-31462857D01*
X74380952Y-31605714D01*
X74333333Y-31700952D01*
X74285714Y-31748571D01*
X74190476Y-31796190D01*
X73809523Y-31796190D01*
X75333333Y-32272380D02*
X74761904Y-32272380D01*
X75047619Y-32272380D02*
X75047619Y-31272380D01*
X74952380Y-31415238D01*
X74857142Y-31510476D01*
X74761904Y-31558095D01*
X75952380Y-31272380D02*
X76047619Y-31272380D01*
X76142857Y-31320000D01*
X76190476Y-31367619D01*
X76238095Y-31462857D01*
X76285714Y-31653333D01*
X76285714Y-31891428D01*
X76238095Y-32081904D01*
X76190476Y-32177142D01*
X76142857Y-32224761D01*
X76047619Y-32272380D01*
X75952380Y-32272380D01*
X75857142Y-32224761D01*
X75809523Y-32177142D01*
X75761904Y-32081904D01*
X75714285Y-31891428D01*
X75714285Y-31653333D01*
X75761904Y-31462857D01*
X75809523Y-31367619D01*
X75857142Y-31320000D01*
X75952380Y-31272380D01*
X77142857Y-31272380D02*
X76952380Y-31272380D01*
X76857142Y-31320000D01*
X76809523Y-31367619D01*
X76714285Y-31510476D01*
X76666666Y-31700952D01*
X76666666Y-32081904D01*
X76714285Y-32177142D01*
X76761904Y-32224761D01*
X76857142Y-32272380D01*
X77047619Y-32272380D01*
X77142857Y-32224761D01*
X77190476Y-32177142D01*
X77238095Y-32081904D01*
X77238095Y-31843809D01*
X77190476Y-31748571D01*
X77142857Y-31700952D01*
X77047619Y-31653333D01*
X76857142Y-31653333D01*
X76761904Y-31700952D01*
X76714285Y-31748571D01*
X76666666Y-31843809D01*
%TO.C,R206*%
X106102380Y-27119047D02*
X105626190Y-27452380D01*
X106102380Y-27690476D02*
X105102380Y-27690476D01*
X105102380Y-27309523D01*
X105150000Y-27214285D01*
X105197619Y-27166666D01*
X105292857Y-27119047D01*
X105435714Y-27119047D01*
X105530952Y-27166666D01*
X105578571Y-27214285D01*
X105626190Y-27309523D01*
X105626190Y-27690476D01*
X105197619Y-26738095D02*
X105150000Y-26690476D01*
X105102380Y-26595238D01*
X105102380Y-26357142D01*
X105150000Y-26261904D01*
X105197619Y-26214285D01*
X105292857Y-26166666D01*
X105388095Y-26166666D01*
X105530952Y-26214285D01*
X106102380Y-26785714D01*
X106102380Y-26166666D01*
X105102380Y-25547619D02*
X105102380Y-25452380D01*
X105150000Y-25357142D01*
X105197619Y-25309523D01*
X105292857Y-25261904D01*
X105483333Y-25214285D01*
X105721428Y-25214285D01*
X105911904Y-25261904D01*
X106007142Y-25309523D01*
X106054761Y-25357142D01*
X106102380Y-25452380D01*
X106102380Y-25547619D01*
X106054761Y-25642857D01*
X106007142Y-25690476D01*
X105911904Y-25738095D01*
X105721428Y-25785714D01*
X105483333Y-25785714D01*
X105292857Y-25738095D01*
X105197619Y-25690476D01*
X105150000Y-25642857D01*
X105102380Y-25547619D01*
X105102380Y-24357142D02*
X105102380Y-24547619D01*
X105150000Y-24642857D01*
X105197619Y-24690476D01*
X105340476Y-24785714D01*
X105530952Y-24833333D01*
X105911904Y-24833333D01*
X106007142Y-24785714D01*
X106054761Y-24738095D01*
X106102380Y-24642857D01*
X106102380Y-24452380D01*
X106054761Y-24357142D01*
X106007142Y-24309523D01*
X105911904Y-24261904D01*
X105673809Y-24261904D01*
X105578571Y-24309523D01*
X105530952Y-24357142D01*
X105483333Y-24452380D01*
X105483333Y-24642857D01*
X105530952Y-24738095D01*
X105578571Y-24785714D01*
X105673809Y-24833333D01*
%TO.C,R117*%
X87880952Y-79882380D02*
X87547619Y-79406190D01*
X87309523Y-79882380D02*
X87309523Y-78882380D01*
X87690476Y-78882380D01*
X87785714Y-78930000D01*
X87833333Y-78977619D01*
X87880952Y-79072857D01*
X87880952Y-79215714D01*
X87833333Y-79310952D01*
X87785714Y-79358571D01*
X87690476Y-79406190D01*
X87309523Y-79406190D01*
X88833333Y-79882380D02*
X88261904Y-79882380D01*
X88547619Y-79882380D02*
X88547619Y-78882380D01*
X88452380Y-79025238D01*
X88357142Y-79120476D01*
X88261904Y-79168095D01*
X89785714Y-79882380D02*
X89214285Y-79882380D01*
X89500000Y-79882380D02*
X89500000Y-78882380D01*
X89404761Y-79025238D01*
X89309523Y-79120476D01*
X89214285Y-79168095D01*
X90119047Y-78882380D02*
X90785714Y-78882380D01*
X90357142Y-79882380D01*
%TO.C,R110*%
X82880952Y-49522380D02*
X82547619Y-49046190D01*
X82309523Y-49522380D02*
X82309523Y-48522380D01*
X82690476Y-48522380D01*
X82785714Y-48570000D01*
X82833333Y-48617619D01*
X82880952Y-48712857D01*
X82880952Y-48855714D01*
X82833333Y-48950952D01*
X82785714Y-48998571D01*
X82690476Y-49046190D01*
X82309523Y-49046190D01*
X83833333Y-49522380D02*
X83261904Y-49522380D01*
X83547619Y-49522380D02*
X83547619Y-48522380D01*
X83452380Y-48665238D01*
X83357142Y-48760476D01*
X83261904Y-48808095D01*
X84785714Y-49522380D02*
X84214285Y-49522380D01*
X84500000Y-49522380D02*
X84500000Y-48522380D01*
X84404761Y-48665238D01*
X84309523Y-48760476D01*
X84214285Y-48808095D01*
X85404761Y-48522380D02*
X85500000Y-48522380D01*
X85595238Y-48570000D01*
X85642857Y-48617619D01*
X85690476Y-48712857D01*
X85738095Y-48903333D01*
X85738095Y-49141428D01*
X85690476Y-49331904D01*
X85642857Y-49427142D01*
X85595238Y-49474761D01*
X85500000Y-49522380D01*
X85404761Y-49522380D01*
X85309523Y-49474761D01*
X85261904Y-49427142D01*
X85214285Y-49331904D01*
X85166666Y-49141428D01*
X85166666Y-48903333D01*
X85214285Y-48712857D01*
X85261904Y-48617619D01*
X85309523Y-48570000D01*
X85404761Y-48522380D01*
%TO.C,R205*%
X99552380Y-54781547D02*
X99076190Y-55114880D01*
X99552380Y-55352976D02*
X98552380Y-55352976D01*
X98552380Y-54972023D01*
X98600000Y-54876785D01*
X98647619Y-54829166D01*
X98742857Y-54781547D01*
X98885714Y-54781547D01*
X98980952Y-54829166D01*
X99028571Y-54876785D01*
X99076190Y-54972023D01*
X99076190Y-55352976D01*
X98647619Y-54400595D02*
X98600000Y-54352976D01*
X98552380Y-54257738D01*
X98552380Y-54019642D01*
X98600000Y-53924404D01*
X98647619Y-53876785D01*
X98742857Y-53829166D01*
X98838095Y-53829166D01*
X98980952Y-53876785D01*
X99552380Y-54448214D01*
X99552380Y-53829166D01*
X98552380Y-53210119D02*
X98552380Y-53114880D01*
X98600000Y-53019642D01*
X98647619Y-52972023D01*
X98742857Y-52924404D01*
X98933333Y-52876785D01*
X99171428Y-52876785D01*
X99361904Y-52924404D01*
X99457142Y-52972023D01*
X99504761Y-53019642D01*
X99552380Y-53114880D01*
X99552380Y-53210119D01*
X99504761Y-53305357D01*
X99457142Y-53352976D01*
X99361904Y-53400595D01*
X99171428Y-53448214D01*
X98933333Y-53448214D01*
X98742857Y-53400595D01*
X98647619Y-53352976D01*
X98600000Y-53305357D01*
X98552380Y-53210119D01*
X98552380Y-51972023D02*
X98552380Y-52448214D01*
X99028571Y-52495833D01*
X98980952Y-52448214D01*
X98933333Y-52352976D01*
X98933333Y-52114880D01*
X98980952Y-52019642D01*
X99028571Y-51972023D01*
X99123809Y-51924404D01*
X99361904Y-51924404D01*
X99457142Y-51972023D01*
X99504761Y-52019642D01*
X99552380Y-52114880D01*
X99552380Y-52352976D01*
X99504761Y-52448214D01*
X99457142Y-52495833D01*
%TO.C,R102*%
X78630952Y-32272380D02*
X78297619Y-31796190D01*
X78059523Y-32272380D02*
X78059523Y-31272380D01*
X78440476Y-31272380D01*
X78535714Y-31320000D01*
X78583333Y-31367619D01*
X78630952Y-31462857D01*
X78630952Y-31605714D01*
X78583333Y-31700952D01*
X78535714Y-31748571D01*
X78440476Y-31796190D01*
X78059523Y-31796190D01*
X79583333Y-32272380D02*
X79011904Y-32272380D01*
X79297619Y-32272380D02*
X79297619Y-31272380D01*
X79202380Y-31415238D01*
X79107142Y-31510476D01*
X79011904Y-31558095D01*
X80202380Y-31272380D02*
X80297619Y-31272380D01*
X80392857Y-31320000D01*
X80440476Y-31367619D01*
X80488095Y-31462857D01*
X80535714Y-31653333D01*
X80535714Y-31891428D01*
X80488095Y-32081904D01*
X80440476Y-32177142D01*
X80392857Y-32224761D01*
X80297619Y-32272380D01*
X80202380Y-32272380D01*
X80107142Y-32224761D01*
X80059523Y-32177142D01*
X80011904Y-32081904D01*
X79964285Y-31891428D01*
X79964285Y-31653333D01*
X80011904Y-31462857D01*
X80059523Y-31367619D01*
X80107142Y-31320000D01*
X80202380Y-31272380D01*
X80916666Y-31367619D02*
X80964285Y-31320000D01*
X81059523Y-31272380D01*
X81297619Y-31272380D01*
X81392857Y-31320000D01*
X81440476Y-31367619D01*
X81488095Y-31462857D01*
X81488095Y-31558095D01*
X81440476Y-31700952D01*
X80869047Y-32272380D01*
X81488095Y-32272380D01*
%TO.C,Q101*%
X88452380Y-64047619D02*
X88357142Y-64000000D01*
X88261904Y-63904761D01*
X88119047Y-63761904D01*
X88023809Y-63714285D01*
X87928571Y-63714285D01*
X87976190Y-63952380D02*
X87880952Y-63904761D01*
X87785714Y-63809523D01*
X87738095Y-63619047D01*
X87738095Y-63285714D01*
X87785714Y-63095238D01*
X87880952Y-63000000D01*
X87976190Y-62952380D01*
X88166666Y-62952380D01*
X88261904Y-63000000D01*
X88357142Y-63095238D01*
X88404761Y-63285714D01*
X88404761Y-63619047D01*
X88357142Y-63809523D01*
X88261904Y-63904761D01*
X88166666Y-63952380D01*
X87976190Y-63952380D01*
X89357142Y-63952380D02*
X88785714Y-63952380D01*
X89071428Y-63952380D02*
X89071428Y-62952380D01*
X88976190Y-63095238D01*
X88880952Y-63190476D01*
X88785714Y-63238095D01*
X89976190Y-62952380D02*
X90071428Y-62952380D01*
X90166666Y-63000000D01*
X90214285Y-63047619D01*
X90261904Y-63142857D01*
X90309523Y-63333333D01*
X90309523Y-63571428D01*
X90261904Y-63761904D01*
X90214285Y-63857142D01*
X90166666Y-63904761D01*
X90071428Y-63952380D01*
X89976190Y-63952380D01*
X89880952Y-63904761D01*
X89833333Y-63857142D01*
X89785714Y-63761904D01*
X89738095Y-63571428D01*
X89738095Y-63333333D01*
X89785714Y-63142857D01*
X89833333Y-63047619D01*
X89880952Y-63000000D01*
X89976190Y-62952380D01*
X91261904Y-63952380D02*
X90690476Y-63952380D01*
X90976190Y-63952380D02*
X90976190Y-62952380D01*
X90880952Y-63095238D01*
X90785714Y-63190476D01*
X90690476Y-63238095D01*
%TO.C,R203*%
X106802380Y-54869047D02*
X106326190Y-55202380D01*
X106802380Y-55440476D02*
X105802380Y-55440476D01*
X105802380Y-55059523D01*
X105850000Y-54964285D01*
X105897619Y-54916666D01*
X105992857Y-54869047D01*
X106135714Y-54869047D01*
X106230952Y-54916666D01*
X106278571Y-54964285D01*
X106326190Y-55059523D01*
X106326190Y-55440476D01*
X105897619Y-54488095D02*
X105850000Y-54440476D01*
X105802380Y-54345238D01*
X105802380Y-54107142D01*
X105850000Y-54011904D01*
X105897619Y-53964285D01*
X105992857Y-53916666D01*
X106088095Y-53916666D01*
X106230952Y-53964285D01*
X106802380Y-54535714D01*
X106802380Y-53916666D01*
X105802380Y-53297619D02*
X105802380Y-53202380D01*
X105850000Y-53107142D01*
X105897619Y-53059523D01*
X105992857Y-53011904D01*
X106183333Y-52964285D01*
X106421428Y-52964285D01*
X106611904Y-53011904D01*
X106707142Y-53059523D01*
X106754761Y-53107142D01*
X106802380Y-53202380D01*
X106802380Y-53297619D01*
X106754761Y-53392857D01*
X106707142Y-53440476D01*
X106611904Y-53488095D01*
X106421428Y-53535714D01*
X106183333Y-53535714D01*
X105992857Y-53488095D01*
X105897619Y-53440476D01*
X105850000Y-53392857D01*
X105802380Y-53297619D01*
X105802380Y-52630952D02*
X105802380Y-52011904D01*
X106183333Y-52345238D01*
X106183333Y-52202380D01*
X106230952Y-52107142D01*
X106278571Y-52059523D01*
X106373809Y-52011904D01*
X106611904Y-52011904D01*
X106707142Y-52059523D01*
X106754761Y-52107142D01*
X106802380Y-52202380D01*
X106802380Y-52488095D01*
X106754761Y-52583333D01*
X106707142Y-52630952D01*
%TO.C,R229*%
X140802380Y-49119047D02*
X140326190Y-49452380D01*
X140802380Y-49690476D02*
X139802380Y-49690476D01*
X139802380Y-49309523D01*
X139850000Y-49214285D01*
X139897619Y-49166666D01*
X139992857Y-49119047D01*
X140135714Y-49119047D01*
X140230952Y-49166666D01*
X140278571Y-49214285D01*
X140326190Y-49309523D01*
X140326190Y-49690476D01*
X139897619Y-48738095D02*
X139850000Y-48690476D01*
X139802380Y-48595238D01*
X139802380Y-48357142D01*
X139850000Y-48261904D01*
X139897619Y-48214285D01*
X139992857Y-48166666D01*
X140088095Y-48166666D01*
X140230952Y-48214285D01*
X140802380Y-48785714D01*
X140802380Y-48166666D01*
X139897619Y-47785714D02*
X139850000Y-47738095D01*
X139802380Y-47642857D01*
X139802380Y-47404761D01*
X139850000Y-47309523D01*
X139897619Y-47261904D01*
X139992857Y-47214285D01*
X140088095Y-47214285D01*
X140230952Y-47261904D01*
X140802380Y-47833333D01*
X140802380Y-47214285D01*
X140802380Y-46738095D02*
X140802380Y-46547619D01*
X140754761Y-46452380D01*
X140707142Y-46404761D01*
X140564285Y-46309523D01*
X140373809Y-46261904D01*
X139992857Y-46261904D01*
X139897619Y-46309523D01*
X139850000Y-46357142D01*
X139802380Y-46452380D01*
X139802380Y-46642857D01*
X139850000Y-46738095D01*
X139897619Y-46785714D01*
X139992857Y-46833333D01*
X140230952Y-46833333D01*
X140326190Y-46785714D01*
X140373809Y-46738095D01*
X140421428Y-46642857D01*
X140421428Y-46452380D01*
X140373809Y-46357142D01*
X140326190Y-46309523D01*
X140230952Y-46261904D01*
%TO.C,C103*%
X138280952Y-74037142D02*
X138233333Y-74084761D01*
X138090476Y-74132380D01*
X137995238Y-74132380D01*
X137852380Y-74084761D01*
X137757142Y-73989523D01*
X137709523Y-73894285D01*
X137661904Y-73703809D01*
X137661904Y-73560952D01*
X137709523Y-73370476D01*
X137757142Y-73275238D01*
X137852380Y-73180000D01*
X137995238Y-73132380D01*
X138090476Y-73132380D01*
X138233333Y-73180000D01*
X138280952Y-73227619D01*
X139233333Y-74132380D02*
X138661904Y-74132380D01*
X138947619Y-74132380D02*
X138947619Y-73132380D01*
X138852380Y-73275238D01*
X138757142Y-73370476D01*
X138661904Y-73418095D01*
X139852380Y-73132380D02*
X139947619Y-73132380D01*
X140042857Y-73180000D01*
X140090476Y-73227619D01*
X140138095Y-73322857D01*
X140185714Y-73513333D01*
X140185714Y-73751428D01*
X140138095Y-73941904D01*
X140090476Y-74037142D01*
X140042857Y-74084761D01*
X139947619Y-74132380D01*
X139852380Y-74132380D01*
X139757142Y-74084761D01*
X139709523Y-74037142D01*
X139661904Y-73941904D01*
X139614285Y-73751428D01*
X139614285Y-73513333D01*
X139661904Y-73322857D01*
X139709523Y-73227619D01*
X139757142Y-73180000D01*
X139852380Y-73132380D01*
X140519047Y-73132380D02*
X141138095Y-73132380D01*
X140804761Y-73513333D01*
X140947619Y-73513333D01*
X141042857Y-73560952D01*
X141090476Y-73608571D01*
X141138095Y-73703809D01*
X141138095Y-73941904D01*
X141090476Y-74037142D01*
X141042857Y-74084761D01*
X140947619Y-74132380D01*
X140661904Y-74132380D01*
X140566666Y-74084761D01*
X140519047Y-74037142D01*
%TO.C,R219*%
X134552380Y-49119047D02*
X134076190Y-49452380D01*
X134552380Y-49690476D02*
X133552380Y-49690476D01*
X133552380Y-49309523D01*
X133600000Y-49214285D01*
X133647619Y-49166666D01*
X133742857Y-49119047D01*
X133885714Y-49119047D01*
X133980952Y-49166666D01*
X134028571Y-49214285D01*
X134076190Y-49309523D01*
X134076190Y-49690476D01*
X133647619Y-48738095D02*
X133600000Y-48690476D01*
X133552380Y-48595238D01*
X133552380Y-48357142D01*
X133600000Y-48261904D01*
X133647619Y-48214285D01*
X133742857Y-48166666D01*
X133838095Y-48166666D01*
X133980952Y-48214285D01*
X134552380Y-48785714D01*
X134552380Y-48166666D01*
X134552380Y-47214285D02*
X134552380Y-47785714D01*
X134552380Y-47500000D02*
X133552380Y-47500000D01*
X133695238Y-47595238D01*
X133790476Y-47690476D01*
X133838095Y-47785714D01*
X134552380Y-46738095D02*
X134552380Y-46547619D01*
X134504761Y-46452380D01*
X134457142Y-46404761D01*
X134314285Y-46309523D01*
X134123809Y-46261904D01*
X133742857Y-46261904D01*
X133647619Y-46309523D01*
X133600000Y-46357142D01*
X133552380Y-46452380D01*
X133552380Y-46642857D01*
X133600000Y-46738095D01*
X133647619Y-46785714D01*
X133742857Y-46833333D01*
X133980952Y-46833333D01*
X134076190Y-46785714D01*
X134123809Y-46738095D01*
X134171428Y-46642857D01*
X134171428Y-46452380D01*
X134123809Y-46357142D01*
X134076190Y-46309523D01*
X133980952Y-46261904D01*
%TO.C,C110*%
X114607142Y-67119047D02*
X114654761Y-67166666D01*
X114702380Y-67309523D01*
X114702380Y-67404761D01*
X114654761Y-67547619D01*
X114559523Y-67642857D01*
X114464285Y-67690476D01*
X114273809Y-67738095D01*
X114130952Y-67738095D01*
X113940476Y-67690476D01*
X113845238Y-67642857D01*
X113750000Y-67547619D01*
X113702380Y-67404761D01*
X113702380Y-67309523D01*
X113750000Y-67166666D01*
X113797619Y-67119047D01*
X114702380Y-66166666D02*
X114702380Y-66738095D01*
X114702380Y-66452380D02*
X113702380Y-66452380D01*
X113845238Y-66547619D01*
X113940476Y-66642857D01*
X113988095Y-66738095D01*
X114702380Y-65214285D02*
X114702380Y-65785714D01*
X114702380Y-65500000D02*
X113702380Y-65500000D01*
X113845238Y-65595238D01*
X113940476Y-65690476D01*
X113988095Y-65785714D01*
X113702380Y-64595238D02*
X113702380Y-64500000D01*
X113750000Y-64404761D01*
X113797619Y-64357142D01*
X113892857Y-64309523D01*
X114083333Y-64261904D01*
X114321428Y-64261904D01*
X114511904Y-64309523D01*
X114607142Y-64357142D01*
X114654761Y-64404761D01*
X114702380Y-64500000D01*
X114702380Y-64595238D01*
X114654761Y-64690476D01*
X114607142Y-64738095D01*
X114511904Y-64785714D01*
X114321428Y-64833333D01*
X114083333Y-64833333D01*
X113892857Y-64785714D01*
X113797619Y-64738095D01*
X113750000Y-64690476D01*
X113702380Y-64595238D01*
%TO.C,D105*%
X76559523Y-43452380D02*
X76559523Y-42452380D01*
X76797619Y-42452380D01*
X76940476Y-42500000D01*
X77035714Y-42595238D01*
X77083333Y-42690476D01*
X77130952Y-42880952D01*
X77130952Y-43023809D01*
X77083333Y-43214285D01*
X77035714Y-43309523D01*
X76940476Y-43404761D01*
X76797619Y-43452380D01*
X76559523Y-43452380D01*
X78083333Y-43452380D02*
X77511904Y-43452380D01*
X77797619Y-43452380D02*
X77797619Y-42452380D01*
X77702380Y-42595238D01*
X77607142Y-42690476D01*
X77511904Y-42738095D01*
X78702380Y-42452380D02*
X78797619Y-42452380D01*
X78892857Y-42500000D01*
X78940476Y-42547619D01*
X78988095Y-42642857D01*
X79035714Y-42833333D01*
X79035714Y-43071428D01*
X78988095Y-43261904D01*
X78940476Y-43357142D01*
X78892857Y-43404761D01*
X78797619Y-43452380D01*
X78702380Y-43452380D01*
X78607142Y-43404761D01*
X78559523Y-43357142D01*
X78511904Y-43261904D01*
X78464285Y-43071428D01*
X78464285Y-42833333D01*
X78511904Y-42642857D01*
X78559523Y-42547619D01*
X78607142Y-42500000D01*
X78702380Y-42452380D01*
X79940476Y-42452380D02*
X79464285Y-42452380D01*
X79416666Y-42928571D01*
X79464285Y-42880952D01*
X79559523Y-42833333D01*
X79797619Y-42833333D01*
X79892857Y-42880952D01*
X79940476Y-42928571D01*
X79988095Y-43023809D01*
X79988095Y-43261904D01*
X79940476Y-43357142D01*
X79892857Y-43404761D01*
X79797619Y-43452380D01*
X79559523Y-43452380D01*
X79464285Y-43404761D01*
X79416666Y-43357142D01*
%TO.C,R111*%
X83380952Y-45022380D02*
X83047619Y-44546190D01*
X82809523Y-45022380D02*
X82809523Y-44022380D01*
X83190476Y-44022380D01*
X83285714Y-44070000D01*
X83333333Y-44117619D01*
X83380952Y-44212857D01*
X83380952Y-44355714D01*
X83333333Y-44450952D01*
X83285714Y-44498571D01*
X83190476Y-44546190D01*
X82809523Y-44546190D01*
X84333333Y-45022380D02*
X83761904Y-45022380D01*
X84047619Y-45022380D02*
X84047619Y-44022380D01*
X83952380Y-44165238D01*
X83857142Y-44260476D01*
X83761904Y-44308095D01*
X85285714Y-45022380D02*
X84714285Y-45022380D01*
X85000000Y-45022380D02*
X85000000Y-44022380D01*
X84904761Y-44165238D01*
X84809523Y-44260476D01*
X84714285Y-44308095D01*
X86238095Y-45022380D02*
X85666666Y-45022380D01*
X85952380Y-45022380D02*
X85952380Y-44022380D01*
X85857142Y-44165238D01*
X85761904Y-44260476D01*
X85666666Y-44308095D01*
%TO.C,R122*%
X91822380Y-65719047D02*
X91346190Y-66052380D01*
X91822380Y-66290476D02*
X90822380Y-66290476D01*
X90822380Y-65909523D01*
X90870000Y-65814285D01*
X90917619Y-65766666D01*
X91012857Y-65719047D01*
X91155714Y-65719047D01*
X91250952Y-65766666D01*
X91298571Y-65814285D01*
X91346190Y-65909523D01*
X91346190Y-66290476D01*
X91822380Y-64766666D02*
X91822380Y-65338095D01*
X91822380Y-65052380D02*
X90822380Y-65052380D01*
X90965238Y-65147619D01*
X91060476Y-65242857D01*
X91108095Y-65338095D01*
X90917619Y-64385714D02*
X90870000Y-64338095D01*
X90822380Y-64242857D01*
X90822380Y-64004761D01*
X90870000Y-63909523D01*
X90917619Y-63861904D01*
X91012857Y-63814285D01*
X91108095Y-63814285D01*
X91250952Y-63861904D01*
X91822380Y-64433333D01*
X91822380Y-63814285D01*
X90917619Y-63433333D02*
X90870000Y-63385714D01*
X90822380Y-63290476D01*
X90822380Y-63052380D01*
X90870000Y-62957142D01*
X90917619Y-62909523D01*
X91012857Y-62861904D01*
X91108095Y-62861904D01*
X91250952Y-62909523D01*
X91822380Y-63480952D01*
X91822380Y-62861904D01*
%TO.C,J104*%
X70327619Y-44431785D02*
X69613333Y-44431785D01*
X69470476Y-44384166D01*
X69375238Y-44288928D01*
X69327619Y-44146071D01*
X69327619Y-44050833D01*
X69327619Y-45431785D02*
X69327619Y-44860357D01*
X69327619Y-45146071D02*
X70327619Y-45146071D01*
X70184761Y-45050833D01*
X70089523Y-44955595D01*
X70041904Y-44860357D01*
X70327619Y-46050833D02*
X70327619Y-46146071D01*
X70280000Y-46241309D01*
X70232380Y-46288928D01*
X70137142Y-46336547D01*
X69946666Y-46384166D01*
X69708571Y-46384166D01*
X69518095Y-46336547D01*
X69422857Y-46288928D01*
X69375238Y-46241309D01*
X69327619Y-46146071D01*
X69327619Y-46050833D01*
X69375238Y-45955595D01*
X69422857Y-45907976D01*
X69518095Y-45860357D01*
X69708571Y-45812738D01*
X69946666Y-45812738D01*
X70137142Y-45860357D01*
X70232380Y-45907976D01*
X70280000Y-45955595D01*
X70327619Y-46050833D01*
X69994285Y-47241309D02*
X69327619Y-47241309D01*
X70375238Y-47003214D02*
X69660952Y-46765119D01*
X69660952Y-47384166D01*
%TO.C,R231*%
X143852380Y-21869047D02*
X143376190Y-22202380D01*
X143852380Y-22440476D02*
X142852380Y-22440476D01*
X142852380Y-22059523D01*
X142900000Y-21964285D01*
X142947619Y-21916666D01*
X143042857Y-21869047D01*
X143185714Y-21869047D01*
X143280952Y-21916666D01*
X143328571Y-21964285D01*
X143376190Y-22059523D01*
X143376190Y-22440476D01*
X142947619Y-21488095D02*
X142900000Y-21440476D01*
X142852380Y-21345238D01*
X142852380Y-21107142D01*
X142900000Y-21011904D01*
X142947619Y-20964285D01*
X143042857Y-20916666D01*
X143138095Y-20916666D01*
X143280952Y-20964285D01*
X143852380Y-21535714D01*
X143852380Y-20916666D01*
X142852380Y-20583333D02*
X142852380Y-19964285D01*
X143233333Y-20297619D01*
X143233333Y-20154761D01*
X143280952Y-20059523D01*
X143328571Y-20011904D01*
X143423809Y-19964285D01*
X143661904Y-19964285D01*
X143757142Y-20011904D01*
X143804761Y-20059523D01*
X143852380Y-20154761D01*
X143852380Y-20440476D01*
X143804761Y-20535714D01*
X143757142Y-20583333D01*
X143852380Y-19011904D02*
X143852380Y-19583333D01*
X143852380Y-19297619D02*
X142852380Y-19297619D01*
X142995238Y-19392857D01*
X143090476Y-19488095D01*
X143138095Y-19583333D01*
%TO.C,C112*%
X75557142Y-26219047D02*
X75604761Y-26266666D01*
X75652380Y-26409523D01*
X75652380Y-26504761D01*
X75604761Y-26647619D01*
X75509523Y-26742857D01*
X75414285Y-26790476D01*
X75223809Y-26838095D01*
X75080952Y-26838095D01*
X74890476Y-26790476D01*
X74795238Y-26742857D01*
X74700000Y-26647619D01*
X74652380Y-26504761D01*
X74652380Y-26409523D01*
X74700000Y-26266666D01*
X74747619Y-26219047D01*
X75652380Y-25266666D02*
X75652380Y-25838095D01*
X75652380Y-25552380D02*
X74652380Y-25552380D01*
X74795238Y-25647619D01*
X74890476Y-25742857D01*
X74938095Y-25838095D01*
X75652380Y-24314285D02*
X75652380Y-24885714D01*
X75652380Y-24600000D02*
X74652380Y-24600000D01*
X74795238Y-24695238D01*
X74890476Y-24790476D01*
X74938095Y-24885714D01*
X74747619Y-23933333D02*
X74700000Y-23885714D01*
X74652380Y-23790476D01*
X74652380Y-23552380D01*
X74700000Y-23457142D01*
X74747619Y-23409523D01*
X74842857Y-23361904D01*
X74938095Y-23361904D01*
X75080952Y-23409523D01*
X75652380Y-23980952D01*
X75652380Y-23361904D01*
%TO.C,R209*%
X123852380Y-27119047D02*
X123376190Y-27452380D01*
X123852380Y-27690476D02*
X122852380Y-27690476D01*
X122852380Y-27309523D01*
X122900000Y-27214285D01*
X122947619Y-27166666D01*
X123042857Y-27119047D01*
X123185714Y-27119047D01*
X123280952Y-27166666D01*
X123328571Y-27214285D01*
X123376190Y-27309523D01*
X123376190Y-27690476D01*
X122947619Y-26738095D02*
X122900000Y-26690476D01*
X122852380Y-26595238D01*
X122852380Y-26357142D01*
X122900000Y-26261904D01*
X122947619Y-26214285D01*
X123042857Y-26166666D01*
X123138095Y-26166666D01*
X123280952Y-26214285D01*
X123852380Y-26785714D01*
X123852380Y-26166666D01*
X122852380Y-25547619D02*
X122852380Y-25452380D01*
X122900000Y-25357142D01*
X122947619Y-25309523D01*
X123042857Y-25261904D01*
X123233333Y-25214285D01*
X123471428Y-25214285D01*
X123661904Y-25261904D01*
X123757142Y-25309523D01*
X123804761Y-25357142D01*
X123852380Y-25452380D01*
X123852380Y-25547619D01*
X123804761Y-25642857D01*
X123757142Y-25690476D01*
X123661904Y-25738095D01*
X123471428Y-25785714D01*
X123233333Y-25785714D01*
X123042857Y-25738095D01*
X122947619Y-25690476D01*
X122900000Y-25642857D01*
X122852380Y-25547619D01*
X123852380Y-24738095D02*
X123852380Y-24547619D01*
X123804761Y-24452380D01*
X123757142Y-24404761D01*
X123614285Y-24309523D01*
X123423809Y-24261904D01*
X123042857Y-24261904D01*
X122947619Y-24309523D01*
X122900000Y-24357142D01*
X122852380Y-24452380D01*
X122852380Y-24642857D01*
X122900000Y-24738095D01*
X122947619Y-24785714D01*
X123042857Y-24833333D01*
X123280952Y-24833333D01*
X123376190Y-24785714D01*
X123423809Y-24738095D01*
X123471428Y-24642857D01*
X123471428Y-24452380D01*
X123423809Y-24357142D01*
X123376190Y-24309523D01*
X123280952Y-24261904D01*
%TO.C,C108*%
X119607142Y-67119047D02*
X119654761Y-67166666D01*
X119702380Y-67309523D01*
X119702380Y-67404761D01*
X119654761Y-67547619D01*
X119559523Y-67642857D01*
X119464285Y-67690476D01*
X119273809Y-67738095D01*
X119130952Y-67738095D01*
X118940476Y-67690476D01*
X118845238Y-67642857D01*
X118750000Y-67547619D01*
X118702380Y-67404761D01*
X118702380Y-67309523D01*
X118750000Y-67166666D01*
X118797619Y-67119047D01*
X119702380Y-66166666D02*
X119702380Y-66738095D01*
X119702380Y-66452380D02*
X118702380Y-66452380D01*
X118845238Y-66547619D01*
X118940476Y-66642857D01*
X118988095Y-66738095D01*
X118702380Y-65547619D02*
X118702380Y-65452380D01*
X118750000Y-65357142D01*
X118797619Y-65309523D01*
X118892857Y-65261904D01*
X119083333Y-65214285D01*
X119321428Y-65214285D01*
X119511904Y-65261904D01*
X119607142Y-65309523D01*
X119654761Y-65357142D01*
X119702380Y-65452380D01*
X119702380Y-65547619D01*
X119654761Y-65642857D01*
X119607142Y-65690476D01*
X119511904Y-65738095D01*
X119321428Y-65785714D01*
X119083333Y-65785714D01*
X118892857Y-65738095D01*
X118797619Y-65690476D01*
X118750000Y-65642857D01*
X118702380Y-65547619D01*
X119130952Y-64642857D02*
X119083333Y-64738095D01*
X119035714Y-64785714D01*
X118940476Y-64833333D01*
X118892857Y-64833333D01*
X118797619Y-64785714D01*
X118750000Y-64738095D01*
X118702380Y-64642857D01*
X118702380Y-64452380D01*
X118750000Y-64357142D01*
X118797619Y-64309523D01*
X118892857Y-64261904D01*
X118940476Y-64261904D01*
X119035714Y-64309523D01*
X119083333Y-64357142D01*
X119130952Y-64452380D01*
X119130952Y-64642857D01*
X119178571Y-64738095D01*
X119226190Y-64785714D01*
X119321428Y-64833333D01*
X119511904Y-64833333D01*
X119607142Y-64785714D01*
X119654761Y-64738095D01*
X119702380Y-64642857D01*
X119702380Y-64452380D01*
X119654761Y-64357142D01*
X119607142Y-64309523D01*
X119511904Y-64261904D01*
X119321428Y-64261904D01*
X119226190Y-64309523D01*
X119178571Y-64357142D01*
X119130952Y-64452380D01*
%TO.C,R213*%
X113052380Y-54619047D02*
X112576190Y-54952380D01*
X113052380Y-55190476D02*
X112052380Y-55190476D01*
X112052380Y-54809523D01*
X112100000Y-54714285D01*
X112147619Y-54666666D01*
X112242857Y-54619047D01*
X112385714Y-54619047D01*
X112480952Y-54666666D01*
X112528571Y-54714285D01*
X112576190Y-54809523D01*
X112576190Y-55190476D01*
X112147619Y-54238095D02*
X112100000Y-54190476D01*
X112052380Y-54095238D01*
X112052380Y-53857142D01*
X112100000Y-53761904D01*
X112147619Y-53714285D01*
X112242857Y-53666666D01*
X112338095Y-53666666D01*
X112480952Y-53714285D01*
X113052380Y-54285714D01*
X113052380Y-53666666D01*
X113052380Y-52714285D02*
X113052380Y-53285714D01*
X113052380Y-53000000D02*
X112052380Y-53000000D01*
X112195238Y-53095238D01*
X112290476Y-53190476D01*
X112338095Y-53285714D01*
X112052380Y-52380952D02*
X112052380Y-51761904D01*
X112433333Y-52095238D01*
X112433333Y-51952380D01*
X112480952Y-51857142D01*
X112528571Y-51809523D01*
X112623809Y-51761904D01*
X112861904Y-51761904D01*
X112957142Y-51809523D01*
X113004761Y-51857142D01*
X113052380Y-51952380D01*
X113052380Y-52238095D01*
X113004761Y-52333333D01*
X112957142Y-52380952D01*
%TO.C,R211*%
X120552380Y-54619047D02*
X120076190Y-54952380D01*
X120552380Y-55190476D02*
X119552380Y-55190476D01*
X119552380Y-54809523D01*
X119600000Y-54714285D01*
X119647619Y-54666666D01*
X119742857Y-54619047D01*
X119885714Y-54619047D01*
X119980952Y-54666666D01*
X120028571Y-54714285D01*
X120076190Y-54809523D01*
X120076190Y-55190476D01*
X119647619Y-54238095D02*
X119600000Y-54190476D01*
X119552380Y-54095238D01*
X119552380Y-53857142D01*
X119600000Y-53761904D01*
X119647619Y-53714285D01*
X119742857Y-53666666D01*
X119838095Y-53666666D01*
X119980952Y-53714285D01*
X120552380Y-54285714D01*
X120552380Y-53666666D01*
X120552380Y-52714285D02*
X120552380Y-53285714D01*
X120552380Y-53000000D02*
X119552380Y-53000000D01*
X119695238Y-53095238D01*
X119790476Y-53190476D01*
X119838095Y-53285714D01*
X120552380Y-51761904D02*
X120552380Y-52333333D01*
X120552380Y-52047619D02*
X119552380Y-52047619D01*
X119695238Y-52142857D01*
X119790476Y-52238095D01*
X119838095Y-52333333D01*
%TO.C,C104*%
X130607142Y-67869047D02*
X130654761Y-67916666D01*
X130702380Y-68059523D01*
X130702380Y-68154761D01*
X130654761Y-68297619D01*
X130559523Y-68392857D01*
X130464285Y-68440476D01*
X130273809Y-68488095D01*
X130130952Y-68488095D01*
X129940476Y-68440476D01*
X129845238Y-68392857D01*
X129750000Y-68297619D01*
X129702380Y-68154761D01*
X129702380Y-68059523D01*
X129750000Y-67916666D01*
X129797619Y-67869047D01*
X130702380Y-66916666D02*
X130702380Y-67488095D01*
X130702380Y-67202380D02*
X129702380Y-67202380D01*
X129845238Y-67297619D01*
X129940476Y-67392857D01*
X129988095Y-67488095D01*
X129702380Y-66297619D02*
X129702380Y-66202380D01*
X129750000Y-66107142D01*
X129797619Y-66059523D01*
X129892857Y-66011904D01*
X130083333Y-65964285D01*
X130321428Y-65964285D01*
X130511904Y-66011904D01*
X130607142Y-66059523D01*
X130654761Y-66107142D01*
X130702380Y-66202380D01*
X130702380Y-66297619D01*
X130654761Y-66392857D01*
X130607142Y-66440476D01*
X130511904Y-66488095D01*
X130321428Y-66535714D01*
X130083333Y-66535714D01*
X129892857Y-66488095D01*
X129797619Y-66440476D01*
X129750000Y-66392857D01*
X129702380Y-66297619D01*
X130035714Y-65107142D02*
X130702380Y-65107142D01*
X129654761Y-65345238D02*
X130369047Y-65583333D01*
X130369047Y-64964285D01*
%TO.C,C105*%
X145357142Y-65369047D02*
X145404761Y-65416666D01*
X145452380Y-65559523D01*
X145452380Y-65654761D01*
X145404761Y-65797619D01*
X145309523Y-65892857D01*
X145214285Y-65940476D01*
X145023809Y-65988095D01*
X144880952Y-65988095D01*
X144690476Y-65940476D01*
X144595238Y-65892857D01*
X144500000Y-65797619D01*
X144452380Y-65654761D01*
X144452380Y-65559523D01*
X144500000Y-65416666D01*
X144547619Y-65369047D01*
X145452380Y-64416666D02*
X145452380Y-64988095D01*
X145452380Y-64702380D02*
X144452380Y-64702380D01*
X144595238Y-64797619D01*
X144690476Y-64892857D01*
X144738095Y-64988095D01*
X144452380Y-63797619D02*
X144452380Y-63702380D01*
X144500000Y-63607142D01*
X144547619Y-63559523D01*
X144642857Y-63511904D01*
X144833333Y-63464285D01*
X145071428Y-63464285D01*
X145261904Y-63511904D01*
X145357142Y-63559523D01*
X145404761Y-63607142D01*
X145452380Y-63702380D01*
X145452380Y-63797619D01*
X145404761Y-63892857D01*
X145357142Y-63940476D01*
X145261904Y-63988095D01*
X145071428Y-64035714D01*
X144833333Y-64035714D01*
X144642857Y-63988095D01*
X144547619Y-63940476D01*
X144500000Y-63892857D01*
X144452380Y-63797619D01*
X144452380Y-62559523D02*
X144452380Y-63035714D01*
X144928571Y-63083333D01*
X144880952Y-63035714D01*
X144833333Y-62940476D01*
X144833333Y-62702380D01*
X144880952Y-62607142D01*
X144928571Y-62559523D01*
X145023809Y-62511904D01*
X145261904Y-62511904D01*
X145357142Y-62559523D01*
X145404761Y-62607142D01*
X145452380Y-62702380D01*
X145452380Y-62940476D01*
X145404761Y-63035714D01*
X145357142Y-63083333D01*
%TO.C,C101*%
X131177142Y-62619047D02*
X131224761Y-62666666D01*
X131272380Y-62809523D01*
X131272380Y-62904761D01*
X131224761Y-63047619D01*
X131129523Y-63142857D01*
X131034285Y-63190476D01*
X130843809Y-63238095D01*
X130700952Y-63238095D01*
X130510476Y-63190476D01*
X130415238Y-63142857D01*
X130320000Y-63047619D01*
X130272380Y-62904761D01*
X130272380Y-62809523D01*
X130320000Y-62666666D01*
X130367619Y-62619047D01*
X131272380Y-61666666D02*
X131272380Y-62238095D01*
X131272380Y-61952380D02*
X130272380Y-61952380D01*
X130415238Y-62047619D01*
X130510476Y-62142857D01*
X130558095Y-62238095D01*
X130272380Y-61047619D02*
X130272380Y-60952380D01*
X130320000Y-60857142D01*
X130367619Y-60809523D01*
X130462857Y-60761904D01*
X130653333Y-60714285D01*
X130891428Y-60714285D01*
X131081904Y-60761904D01*
X131177142Y-60809523D01*
X131224761Y-60857142D01*
X131272380Y-60952380D01*
X131272380Y-61047619D01*
X131224761Y-61142857D01*
X131177142Y-61190476D01*
X131081904Y-61238095D01*
X130891428Y-61285714D01*
X130653333Y-61285714D01*
X130462857Y-61238095D01*
X130367619Y-61190476D01*
X130320000Y-61142857D01*
X130272380Y-61047619D01*
X131272380Y-59761904D02*
X131272380Y-60333333D01*
X131272380Y-60047619D02*
X130272380Y-60047619D01*
X130415238Y-60142857D01*
X130510476Y-60238095D01*
X130558095Y-60333333D01*
%TO.C,C102*%
X134280952Y-74037142D02*
X134233333Y-74084761D01*
X134090476Y-74132380D01*
X133995238Y-74132380D01*
X133852380Y-74084761D01*
X133757142Y-73989523D01*
X133709523Y-73894285D01*
X133661904Y-73703809D01*
X133661904Y-73560952D01*
X133709523Y-73370476D01*
X133757142Y-73275238D01*
X133852380Y-73180000D01*
X133995238Y-73132380D01*
X134090476Y-73132380D01*
X134233333Y-73180000D01*
X134280952Y-73227619D01*
X135233333Y-74132380D02*
X134661904Y-74132380D01*
X134947619Y-74132380D02*
X134947619Y-73132380D01*
X134852380Y-73275238D01*
X134757142Y-73370476D01*
X134661904Y-73418095D01*
X135852380Y-73132380D02*
X135947619Y-73132380D01*
X136042857Y-73180000D01*
X136090476Y-73227619D01*
X136138095Y-73322857D01*
X136185714Y-73513333D01*
X136185714Y-73751428D01*
X136138095Y-73941904D01*
X136090476Y-74037142D01*
X136042857Y-74084761D01*
X135947619Y-74132380D01*
X135852380Y-74132380D01*
X135757142Y-74084761D01*
X135709523Y-74037142D01*
X135661904Y-73941904D01*
X135614285Y-73751428D01*
X135614285Y-73513333D01*
X135661904Y-73322857D01*
X135709523Y-73227619D01*
X135757142Y-73180000D01*
X135852380Y-73132380D01*
X136566666Y-73227619D02*
X136614285Y-73180000D01*
X136709523Y-73132380D01*
X136947619Y-73132380D01*
X137042857Y-73180000D01*
X137090476Y-73227619D01*
X137138095Y-73322857D01*
X137138095Y-73418095D01*
X137090476Y-73560952D01*
X136519047Y-74132380D01*
X137138095Y-74132380D01*
%TO.C,C107*%
X124927142Y-67119047D02*
X124974761Y-67166666D01*
X125022380Y-67309523D01*
X125022380Y-67404761D01*
X124974761Y-67547619D01*
X124879523Y-67642857D01*
X124784285Y-67690476D01*
X124593809Y-67738095D01*
X124450952Y-67738095D01*
X124260476Y-67690476D01*
X124165238Y-67642857D01*
X124070000Y-67547619D01*
X124022380Y-67404761D01*
X124022380Y-67309523D01*
X124070000Y-67166666D01*
X124117619Y-67119047D01*
X125022380Y-66166666D02*
X125022380Y-66738095D01*
X125022380Y-66452380D02*
X124022380Y-66452380D01*
X124165238Y-66547619D01*
X124260476Y-66642857D01*
X124308095Y-66738095D01*
X124022380Y-65547619D02*
X124022380Y-65452380D01*
X124070000Y-65357142D01*
X124117619Y-65309523D01*
X124212857Y-65261904D01*
X124403333Y-65214285D01*
X124641428Y-65214285D01*
X124831904Y-65261904D01*
X124927142Y-65309523D01*
X124974761Y-65357142D01*
X125022380Y-65452380D01*
X125022380Y-65547619D01*
X124974761Y-65642857D01*
X124927142Y-65690476D01*
X124831904Y-65738095D01*
X124641428Y-65785714D01*
X124403333Y-65785714D01*
X124212857Y-65738095D01*
X124117619Y-65690476D01*
X124070000Y-65642857D01*
X124022380Y-65547619D01*
X124022380Y-64880952D02*
X124022380Y-64214285D01*
X125022380Y-64642857D01*
%TO.C,R108*%
X78630952Y-29272380D02*
X78297619Y-28796190D01*
X78059523Y-29272380D02*
X78059523Y-28272380D01*
X78440476Y-28272380D01*
X78535714Y-28320000D01*
X78583333Y-28367619D01*
X78630952Y-28462857D01*
X78630952Y-28605714D01*
X78583333Y-28700952D01*
X78535714Y-28748571D01*
X78440476Y-28796190D01*
X78059523Y-28796190D01*
X79583333Y-29272380D02*
X79011904Y-29272380D01*
X79297619Y-29272380D02*
X79297619Y-28272380D01*
X79202380Y-28415238D01*
X79107142Y-28510476D01*
X79011904Y-28558095D01*
X80202380Y-28272380D02*
X80297619Y-28272380D01*
X80392857Y-28320000D01*
X80440476Y-28367619D01*
X80488095Y-28462857D01*
X80535714Y-28653333D01*
X80535714Y-28891428D01*
X80488095Y-29081904D01*
X80440476Y-29177142D01*
X80392857Y-29224761D01*
X80297619Y-29272380D01*
X80202380Y-29272380D01*
X80107142Y-29224761D01*
X80059523Y-29177142D01*
X80011904Y-29081904D01*
X79964285Y-28891428D01*
X79964285Y-28653333D01*
X80011904Y-28462857D01*
X80059523Y-28367619D01*
X80107142Y-28320000D01*
X80202380Y-28272380D01*
X81107142Y-28700952D02*
X81011904Y-28653333D01*
X80964285Y-28605714D01*
X80916666Y-28510476D01*
X80916666Y-28462857D01*
X80964285Y-28367619D01*
X81011904Y-28320000D01*
X81107142Y-28272380D01*
X81297619Y-28272380D01*
X81392857Y-28320000D01*
X81440476Y-28367619D01*
X81488095Y-28462857D01*
X81488095Y-28510476D01*
X81440476Y-28605714D01*
X81392857Y-28653333D01*
X81297619Y-28700952D01*
X81107142Y-28700952D01*
X81011904Y-28748571D01*
X80964285Y-28796190D01*
X80916666Y-28891428D01*
X80916666Y-29081904D01*
X80964285Y-29177142D01*
X81011904Y-29224761D01*
X81107142Y-29272380D01*
X81297619Y-29272380D01*
X81392857Y-29224761D01*
X81440476Y-29177142D01*
X81488095Y-29081904D01*
X81488095Y-28891428D01*
X81440476Y-28796190D01*
X81392857Y-28748571D01*
X81297619Y-28700952D01*
%TO.C,U101*%
X79985714Y-21952380D02*
X79985714Y-22761904D01*
X80033333Y-22857142D01*
X80080952Y-22904761D01*
X80176190Y-22952380D01*
X80366666Y-22952380D01*
X80461904Y-22904761D01*
X80509523Y-22857142D01*
X80557142Y-22761904D01*
X80557142Y-21952380D01*
X81557142Y-22952380D02*
X80985714Y-22952380D01*
X81271428Y-22952380D02*
X81271428Y-21952380D01*
X81176190Y-22095238D01*
X81080952Y-22190476D01*
X80985714Y-22238095D01*
X82176190Y-21952380D02*
X82271428Y-21952380D01*
X82366666Y-22000000D01*
X82414285Y-22047619D01*
X82461904Y-22142857D01*
X82509523Y-22333333D01*
X82509523Y-22571428D01*
X82461904Y-22761904D01*
X82414285Y-22857142D01*
X82366666Y-22904761D01*
X82271428Y-22952380D01*
X82176190Y-22952380D01*
X82080952Y-22904761D01*
X82033333Y-22857142D01*
X81985714Y-22761904D01*
X81938095Y-22571428D01*
X81938095Y-22333333D01*
X81985714Y-22142857D01*
X82033333Y-22047619D01*
X82080952Y-22000000D01*
X82176190Y-21952380D01*
X83461904Y-22952380D02*
X82890476Y-22952380D01*
X83176190Y-22952380D02*
X83176190Y-21952380D01*
X83080952Y-22095238D01*
X82985714Y-22190476D01*
X82890476Y-22238095D01*
%TO.C,U208*%
X151852380Y-55714285D02*
X152661904Y-55714285D01*
X152757142Y-55666666D01*
X152804761Y-55619047D01*
X152852380Y-55523809D01*
X152852380Y-55333333D01*
X152804761Y-55238095D01*
X152757142Y-55190476D01*
X152661904Y-55142857D01*
X151852380Y-55142857D01*
X151947619Y-54714285D02*
X151900000Y-54666666D01*
X151852380Y-54571428D01*
X151852380Y-54333333D01*
X151900000Y-54238095D01*
X151947619Y-54190476D01*
X152042857Y-54142857D01*
X152138095Y-54142857D01*
X152280952Y-54190476D01*
X152852380Y-54761904D01*
X152852380Y-54142857D01*
X151852380Y-53523809D02*
X151852380Y-53428571D01*
X151900000Y-53333333D01*
X151947619Y-53285714D01*
X152042857Y-53238095D01*
X152233333Y-53190476D01*
X152471428Y-53190476D01*
X152661904Y-53238095D01*
X152757142Y-53285714D01*
X152804761Y-53333333D01*
X152852380Y-53428571D01*
X152852380Y-53523809D01*
X152804761Y-53619047D01*
X152757142Y-53666666D01*
X152661904Y-53714285D01*
X152471428Y-53761904D01*
X152233333Y-53761904D01*
X152042857Y-53714285D01*
X151947619Y-53666666D01*
X151900000Y-53619047D01*
X151852380Y-53523809D01*
X152280952Y-52619047D02*
X152233333Y-52714285D01*
X152185714Y-52761904D01*
X152090476Y-52809523D01*
X152042857Y-52809523D01*
X151947619Y-52761904D01*
X151900000Y-52714285D01*
X151852380Y-52619047D01*
X151852380Y-52428571D01*
X151900000Y-52333333D01*
X151947619Y-52285714D01*
X152042857Y-52238095D01*
X152090476Y-52238095D01*
X152185714Y-52285714D01*
X152233333Y-52333333D01*
X152280952Y-52428571D01*
X152280952Y-52619047D01*
X152328571Y-52714285D01*
X152376190Y-52761904D01*
X152471428Y-52809523D01*
X152661904Y-52809523D01*
X152757142Y-52761904D01*
X152804761Y-52714285D01*
X152852380Y-52619047D01*
X152852380Y-52428571D01*
X152804761Y-52333333D01*
X152757142Y-52285714D01*
X152661904Y-52238095D01*
X152471428Y-52238095D01*
X152376190Y-52285714D01*
X152328571Y-52333333D01*
X152280952Y-52428571D01*
%TO.C,U207*%
X141202380Y-36214285D02*
X142011904Y-36214285D01*
X142107142Y-36166666D01*
X142154761Y-36119047D01*
X142202380Y-36023809D01*
X142202380Y-35833333D01*
X142154761Y-35738095D01*
X142107142Y-35690476D01*
X142011904Y-35642857D01*
X141202380Y-35642857D01*
X141297619Y-35214285D02*
X141250000Y-35166666D01*
X141202380Y-35071428D01*
X141202380Y-34833333D01*
X141250000Y-34738095D01*
X141297619Y-34690476D01*
X141392857Y-34642857D01*
X141488095Y-34642857D01*
X141630952Y-34690476D01*
X142202380Y-35261904D01*
X142202380Y-34642857D01*
X141202380Y-34023809D02*
X141202380Y-33928571D01*
X141250000Y-33833333D01*
X141297619Y-33785714D01*
X141392857Y-33738095D01*
X141583333Y-33690476D01*
X141821428Y-33690476D01*
X142011904Y-33738095D01*
X142107142Y-33785714D01*
X142154761Y-33833333D01*
X142202380Y-33928571D01*
X142202380Y-34023809D01*
X142154761Y-34119047D01*
X142107142Y-34166666D01*
X142011904Y-34214285D01*
X141821428Y-34261904D01*
X141583333Y-34261904D01*
X141392857Y-34214285D01*
X141297619Y-34166666D01*
X141250000Y-34119047D01*
X141202380Y-34023809D01*
X141202380Y-33357142D02*
X141202380Y-32690476D01*
X142202380Y-33119047D01*
%TO.C,R103*%
X82880952Y-47522380D02*
X82547619Y-47046190D01*
X82309523Y-47522380D02*
X82309523Y-46522380D01*
X82690476Y-46522380D01*
X82785714Y-46570000D01*
X82833333Y-46617619D01*
X82880952Y-46712857D01*
X82880952Y-46855714D01*
X82833333Y-46950952D01*
X82785714Y-46998571D01*
X82690476Y-47046190D01*
X82309523Y-47046190D01*
X83833333Y-47522380D02*
X83261904Y-47522380D01*
X83547619Y-47522380D02*
X83547619Y-46522380D01*
X83452380Y-46665238D01*
X83357142Y-46760476D01*
X83261904Y-46808095D01*
X84452380Y-46522380D02*
X84547619Y-46522380D01*
X84642857Y-46570000D01*
X84690476Y-46617619D01*
X84738095Y-46712857D01*
X84785714Y-46903333D01*
X84785714Y-47141428D01*
X84738095Y-47331904D01*
X84690476Y-47427142D01*
X84642857Y-47474761D01*
X84547619Y-47522380D01*
X84452380Y-47522380D01*
X84357142Y-47474761D01*
X84309523Y-47427142D01*
X84261904Y-47331904D01*
X84214285Y-47141428D01*
X84214285Y-46903333D01*
X84261904Y-46712857D01*
X84309523Y-46617619D01*
X84357142Y-46570000D01*
X84452380Y-46522380D01*
X85119047Y-46522380D02*
X85738095Y-46522380D01*
X85404761Y-46903333D01*
X85547619Y-46903333D01*
X85642857Y-46950952D01*
X85690476Y-46998571D01*
X85738095Y-47093809D01*
X85738095Y-47331904D01*
X85690476Y-47427142D01*
X85642857Y-47474761D01*
X85547619Y-47522380D01*
X85261904Y-47522380D01*
X85166666Y-47474761D01*
X85119047Y-47427142D01*
%TO.C,U202*%
X110852380Y-61214285D02*
X111661904Y-61214285D01*
X111757142Y-61166666D01*
X111804761Y-61119047D01*
X111852380Y-61023809D01*
X111852380Y-60833333D01*
X111804761Y-60738095D01*
X111757142Y-60690476D01*
X111661904Y-60642857D01*
X110852380Y-60642857D01*
X110947619Y-60214285D02*
X110900000Y-60166666D01*
X110852380Y-60071428D01*
X110852380Y-59833333D01*
X110900000Y-59738095D01*
X110947619Y-59690476D01*
X111042857Y-59642857D01*
X111138095Y-59642857D01*
X111280952Y-59690476D01*
X111852380Y-60261904D01*
X111852380Y-59642857D01*
X110852380Y-59023809D02*
X110852380Y-58928571D01*
X110900000Y-58833333D01*
X110947619Y-58785714D01*
X111042857Y-58738095D01*
X111233333Y-58690476D01*
X111471428Y-58690476D01*
X111661904Y-58738095D01*
X111757142Y-58785714D01*
X111804761Y-58833333D01*
X111852380Y-58928571D01*
X111852380Y-59023809D01*
X111804761Y-59119047D01*
X111757142Y-59166666D01*
X111661904Y-59214285D01*
X111471428Y-59261904D01*
X111233333Y-59261904D01*
X111042857Y-59214285D01*
X110947619Y-59166666D01*
X110900000Y-59119047D01*
X110852380Y-59023809D01*
X110947619Y-58309523D02*
X110900000Y-58261904D01*
X110852380Y-58166666D01*
X110852380Y-57928571D01*
X110900000Y-57833333D01*
X110947619Y-57785714D01*
X111042857Y-57738095D01*
X111138095Y-57738095D01*
X111280952Y-57785714D01*
X111852380Y-58357142D01*
X111852380Y-57738095D01*
%TO.C,R224*%
X137702380Y-49119047D02*
X137226190Y-49452380D01*
X137702380Y-49690476D02*
X136702380Y-49690476D01*
X136702380Y-49309523D01*
X136750000Y-49214285D01*
X136797619Y-49166666D01*
X136892857Y-49119047D01*
X137035714Y-49119047D01*
X137130952Y-49166666D01*
X137178571Y-49214285D01*
X137226190Y-49309523D01*
X137226190Y-49690476D01*
X136797619Y-48738095D02*
X136750000Y-48690476D01*
X136702380Y-48595238D01*
X136702380Y-48357142D01*
X136750000Y-48261904D01*
X136797619Y-48214285D01*
X136892857Y-48166666D01*
X136988095Y-48166666D01*
X137130952Y-48214285D01*
X137702380Y-48785714D01*
X137702380Y-48166666D01*
X136797619Y-47785714D02*
X136750000Y-47738095D01*
X136702380Y-47642857D01*
X136702380Y-47404761D01*
X136750000Y-47309523D01*
X136797619Y-47261904D01*
X136892857Y-47214285D01*
X136988095Y-47214285D01*
X137130952Y-47261904D01*
X137702380Y-47833333D01*
X137702380Y-47214285D01*
X137035714Y-46357142D02*
X137702380Y-46357142D01*
X136654761Y-46595238D02*
X137369047Y-46833333D01*
X137369047Y-46214285D01*
%TO.C,R121*%
X67580952Y-79852380D02*
X67247619Y-79376190D01*
X67009523Y-79852380D02*
X67009523Y-78852380D01*
X67390476Y-78852380D01*
X67485714Y-78900000D01*
X67533333Y-78947619D01*
X67580952Y-79042857D01*
X67580952Y-79185714D01*
X67533333Y-79280952D01*
X67485714Y-79328571D01*
X67390476Y-79376190D01*
X67009523Y-79376190D01*
X68533333Y-79852380D02*
X67961904Y-79852380D01*
X68247619Y-79852380D02*
X68247619Y-78852380D01*
X68152380Y-78995238D01*
X68057142Y-79090476D01*
X67961904Y-79138095D01*
X68914285Y-78947619D02*
X68961904Y-78900000D01*
X69057142Y-78852380D01*
X69295238Y-78852380D01*
X69390476Y-78900000D01*
X69438095Y-78947619D01*
X69485714Y-79042857D01*
X69485714Y-79138095D01*
X69438095Y-79280952D01*
X68866666Y-79852380D01*
X69485714Y-79852380D01*
X70438095Y-79852380D02*
X69866666Y-79852380D01*
X70152380Y-79852380D02*
X70152380Y-78852380D01*
X70057142Y-78995238D01*
X69961904Y-79090476D01*
X69866666Y-79138095D01*
%TO.C,Q103*%
X79202380Y-52547619D02*
X79107142Y-52500000D01*
X79011904Y-52404761D01*
X78869047Y-52261904D01*
X78773809Y-52214285D01*
X78678571Y-52214285D01*
X78726190Y-52452380D02*
X78630952Y-52404761D01*
X78535714Y-52309523D01*
X78488095Y-52119047D01*
X78488095Y-51785714D01*
X78535714Y-51595238D01*
X78630952Y-51500000D01*
X78726190Y-51452380D01*
X78916666Y-51452380D01*
X79011904Y-51500000D01*
X79107142Y-51595238D01*
X79154761Y-51785714D01*
X79154761Y-52119047D01*
X79107142Y-52309523D01*
X79011904Y-52404761D01*
X78916666Y-52452380D01*
X78726190Y-52452380D01*
X80107142Y-52452380D02*
X79535714Y-52452380D01*
X79821428Y-52452380D02*
X79821428Y-51452380D01*
X79726190Y-51595238D01*
X79630952Y-51690476D01*
X79535714Y-51738095D01*
X80726190Y-51452380D02*
X80821428Y-51452380D01*
X80916666Y-51500000D01*
X80964285Y-51547619D01*
X81011904Y-51642857D01*
X81059523Y-51833333D01*
X81059523Y-52071428D01*
X81011904Y-52261904D01*
X80964285Y-52357142D01*
X80916666Y-52404761D01*
X80821428Y-52452380D01*
X80726190Y-52452380D01*
X80630952Y-52404761D01*
X80583333Y-52357142D01*
X80535714Y-52261904D01*
X80488095Y-52071428D01*
X80488095Y-51833333D01*
X80535714Y-51642857D01*
X80583333Y-51547619D01*
X80630952Y-51500000D01*
X80726190Y-51452380D01*
X81392857Y-51452380D02*
X82011904Y-51452380D01*
X81678571Y-51833333D01*
X81821428Y-51833333D01*
X81916666Y-51880952D01*
X81964285Y-51928571D01*
X82011904Y-52023809D01*
X82011904Y-52261904D01*
X81964285Y-52357142D01*
X81916666Y-52404761D01*
X81821428Y-52452380D01*
X81535714Y-52452380D01*
X81440476Y-52404761D01*
X81392857Y-52357142D01*
%TO.C,R212*%
X116202380Y-54619047D02*
X115726190Y-54952380D01*
X116202380Y-55190476D02*
X115202380Y-55190476D01*
X115202380Y-54809523D01*
X115250000Y-54714285D01*
X115297619Y-54666666D01*
X115392857Y-54619047D01*
X115535714Y-54619047D01*
X115630952Y-54666666D01*
X115678571Y-54714285D01*
X115726190Y-54809523D01*
X115726190Y-55190476D01*
X115297619Y-54238095D02*
X115250000Y-54190476D01*
X115202380Y-54095238D01*
X115202380Y-53857142D01*
X115250000Y-53761904D01*
X115297619Y-53714285D01*
X115392857Y-53666666D01*
X115488095Y-53666666D01*
X115630952Y-53714285D01*
X116202380Y-54285714D01*
X116202380Y-53666666D01*
X116202380Y-52714285D02*
X116202380Y-53285714D01*
X116202380Y-53000000D02*
X115202380Y-53000000D01*
X115345238Y-53095238D01*
X115440476Y-53190476D01*
X115488095Y-53285714D01*
X115297619Y-52333333D02*
X115250000Y-52285714D01*
X115202380Y-52190476D01*
X115202380Y-51952380D01*
X115250000Y-51857142D01*
X115297619Y-51809523D01*
X115392857Y-51761904D01*
X115488095Y-51761904D01*
X115630952Y-51809523D01*
X116202380Y-52380952D01*
X116202380Y-51761904D01*
%TO.C,R216*%
X123802380Y-54619047D02*
X123326190Y-54952380D01*
X123802380Y-55190476D02*
X122802380Y-55190476D01*
X122802380Y-54809523D01*
X122850000Y-54714285D01*
X122897619Y-54666666D01*
X122992857Y-54619047D01*
X123135714Y-54619047D01*
X123230952Y-54666666D01*
X123278571Y-54714285D01*
X123326190Y-54809523D01*
X123326190Y-55190476D01*
X122897619Y-54238095D02*
X122850000Y-54190476D01*
X122802380Y-54095238D01*
X122802380Y-53857142D01*
X122850000Y-53761904D01*
X122897619Y-53714285D01*
X122992857Y-53666666D01*
X123088095Y-53666666D01*
X123230952Y-53714285D01*
X123802380Y-54285714D01*
X123802380Y-53666666D01*
X123802380Y-52714285D02*
X123802380Y-53285714D01*
X123802380Y-53000000D02*
X122802380Y-53000000D01*
X122945238Y-53095238D01*
X123040476Y-53190476D01*
X123088095Y-53285714D01*
X122802380Y-51857142D02*
X122802380Y-52047619D01*
X122850000Y-52142857D01*
X122897619Y-52190476D01*
X123040476Y-52285714D01*
X123230952Y-52333333D01*
X123611904Y-52333333D01*
X123707142Y-52285714D01*
X123754761Y-52238095D01*
X123802380Y-52142857D01*
X123802380Y-51952380D01*
X123754761Y-51857142D01*
X123707142Y-51809523D01*
X123611904Y-51761904D01*
X123373809Y-51761904D01*
X123278571Y-51809523D01*
X123230952Y-51857142D01*
X123183333Y-51952380D01*
X123183333Y-52142857D01*
X123230952Y-52238095D01*
X123278571Y-52285714D01*
X123373809Y-52333333D01*
%TO.C,R217*%
X137602380Y-21869047D02*
X137126190Y-22202380D01*
X137602380Y-22440476D02*
X136602380Y-22440476D01*
X136602380Y-22059523D01*
X136650000Y-21964285D01*
X136697619Y-21916666D01*
X136792857Y-21869047D01*
X136935714Y-21869047D01*
X137030952Y-21916666D01*
X137078571Y-21964285D01*
X137126190Y-22059523D01*
X137126190Y-22440476D01*
X136697619Y-21488095D02*
X136650000Y-21440476D01*
X136602380Y-21345238D01*
X136602380Y-21107142D01*
X136650000Y-21011904D01*
X136697619Y-20964285D01*
X136792857Y-20916666D01*
X136888095Y-20916666D01*
X137030952Y-20964285D01*
X137602380Y-21535714D01*
X137602380Y-20916666D01*
X137602380Y-19964285D02*
X137602380Y-20535714D01*
X137602380Y-20250000D02*
X136602380Y-20250000D01*
X136745238Y-20345238D01*
X136840476Y-20440476D01*
X136888095Y-20535714D01*
X136602380Y-19630952D02*
X136602380Y-18964285D01*
X137602380Y-19392857D01*
%TO.C,R228*%
X143802380Y-49119047D02*
X143326190Y-49452380D01*
X143802380Y-49690476D02*
X142802380Y-49690476D01*
X142802380Y-49309523D01*
X142850000Y-49214285D01*
X142897619Y-49166666D01*
X142992857Y-49119047D01*
X143135714Y-49119047D01*
X143230952Y-49166666D01*
X143278571Y-49214285D01*
X143326190Y-49309523D01*
X143326190Y-49690476D01*
X142897619Y-48738095D02*
X142850000Y-48690476D01*
X142802380Y-48595238D01*
X142802380Y-48357142D01*
X142850000Y-48261904D01*
X142897619Y-48214285D01*
X142992857Y-48166666D01*
X143088095Y-48166666D01*
X143230952Y-48214285D01*
X143802380Y-48785714D01*
X143802380Y-48166666D01*
X142897619Y-47785714D02*
X142850000Y-47738095D01*
X142802380Y-47642857D01*
X142802380Y-47404761D01*
X142850000Y-47309523D01*
X142897619Y-47261904D01*
X142992857Y-47214285D01*
X143088095Y-47214285D01*
X143230952Y-47261904D01*
X143802380Y-47833333D01*
X143802380Y-47214285D01*
X143230952Y-46642857D02*
X143183333Y-46738095D01*
X143135714Y-46785714D01*
X143040476Y-46833333D01*
X142992857Y-46833333D01*
X142897619Y-46785714D01*
X142850000Y-46738095D01*
X142802380Y-46642857D01*
X142802380Y-46452380D01*
X142850000Y-46357142D01*
X142897619Y-46309523D01*
X142992857Y-46261904D01*
X143040476Y-46261904D01*
X143135714Y-46309523D01*
X143183333Y-46357142D01*
X143230952Y-46452380D01*
X143230952Y-46642857D01*
X143278571Y-46738095D01*
X143326190Y-46785714D01*
X143421428Y-46833333D01*
X143611904Y-46833333D01*
X143707142Y-46785714D01*
X143754761Y-46738095D01*
X143802380Y-46642857D01*
X143802380Y-46452380D01*
X143754761Y-46357142D01*
X143707142Y-46309523D01*
X143611904Y-46261904D01*
X143421428Y-46261904D01*
X143326190Y-46309523D01*
X143278571Y-46357142D01*
X143230952Y-46452380D01*
%TO.C,D103*%
X140509523Y-84652380D02*
X140509523Y-83652380D01*
X140747619Y-83652380D01*
X140890476Y-83700000D01*
X140985714Y-83795238D01*
X141033333Y-83890476D01*
X141080952Y-84080952D01*
X141080952Y-84223809D01*
X141033333Y-84414285D01*
X140985714Y-84509523D01*
X140890476Y-84604761D01*
X140747619Y-84652380D01*
X140509523Y-84652380D01*
X142033333Y-84652380D02*
X141461904Y-84652380D01*
X141747619Y-84652380D02*
X141747619Y-83652380D01*
X141652380Y-83795238D01*
X141557142Y-83890476D01*
X141461904Y-83938095D01*
X142652380Y-83652380D02*
X142747619Y-83652380D01*
X142842857Y-83700000D01*
X142890476Y-83747619D01*
X142938095Y-83842857D01*
X142985714Y-84033333D01*
X142985714Y-84271428D01*
X142938095Y-84461904D01*
X142890476Y-84557142D01*
X142842857Y-84604761D01*
X142747619Y-84652380D01*
X142652380Y-84652380D01*
X142557142Y-84604761D01*
X142509523Y-84557142D01*
X142461904Y-84461904D01*
X142414285Y-84271428D01*
X142414285Y-84033333D01*
X142461904Y-83842857D01*
X142509523Y-83747619D01*
X142557142Y-83700000D01*
X142652380Y-83652380D01*
X143319047Y-83652380D02*
X143938095Y-83652380D01*
X143604761Y-84033333D01*
X143747619Y-84033333D01*
X143842857Y-84080952D01*
X143890476Y-84128571D01*
X143938095Y-84223809D01*
X143938095Y-84461904D01*
X143890476Y-84557142D01*
X143842857Y-84604761D01*
X143747619Y-84652380D01*
X143461904Y-84652380D01*
X143366666Y-84604761D01*
X143319047Y-84557142D01*
%TO.C,R202*%
X113102380Y-27119047D02*
X112626190Y-27452380D01*
X113102380Y-27690476D02*
X112102380Y-27690476D01*
X112102380Y-27309523D01*
X112150000Y-27214285D01*
X112197619Y-27166666D01*
X112292857Y-27119047D01*
X112435714Y-27119047D01*
X112530952Y-27166666D01*
X112578571Y-27214285D01*
X112626190Y-27309523D01*
X112626190Y-27690476D01*
X112197619Y-26738095D02*
X112150000Y-26690476D01*
X112102380Y-26595238D01*
X112102380Y-26357142D01*
X112150000Y-26261904D01*
X112197619Y-26214285D01*
X112292857Y-26166666D01*
X112388095Y-26166666D01*
X112530952Y-26214285D01*
X113102380Y-26785714D01*
X113102380Y-26166666D01*
X112102380Y-25547619D02*
X112102380Y-25452380D01*
X112150000Y-25357142D01*
X112197619Y-25309523D01*
X112292857Y-25261904D01*
X112483333Y-25214285D01*
X112721428Y-25214285D01*
X112911904Y-25261904D01*
X113007142Y-25309523D01*
X113054761Y-25357142D01*
X113102380Y-25452380D01*
X113102380Y-25547619D01*
X113054761Y-25642857D01*
X113007142Y-25690476D01*
X112911904Y-25738095D01*
X112721428Y-25785714D01*
X112483333Y-25785714D01*
X112292857Y-25738095D01*
X112197619Y-25690476D01*
X112150000Y-25642857D01*
X112102380Y-25547619D01*
X112197619Y-24833333D02*
X112150000Y-24785714D01*
X112102380Y-24690476D01*
X112102380Y-24452380D01*
X112150000Y-24357142D01*
X112197619Y-24309523D01*
X112292857Y-24261904D01*
X112388095Y-24261904D01*
X112530952Y-24309523D01*
X113102380Y-24880952D01*
X113102380Y-24261904D01*
%TO.C,R226*%
X154452380Y-23119047D02*
X153976190Y-23452380D01*
X154452380Y-23690476D02*
X153452380Y-23690476D01*
X153452380Y-23309523D01*
X153500000Y-23214285D01*
X153547619Y-23166666D01*
X153642857Y-23119047D01*
X153785714Y-23119047D01*
X153880952Y-23166666D01*
X153928571Y-23214285D01*
X153976190Y-23309523D01*
X153976190Y-23690476D01*
X153547619Y-22738095D02*
X153500000Y-22690476D01*
X153452380Y-22595238D01*
X153452380Y-22357142D01*
X153500000Y-22261904D01*
X153547619Y-22214285D01*
X153642857Y-22166666D01*
X153738095Y-22166666D01*
X153880952Y-22214285D01*
X154452380Y-22785714D01*
X154452380Y-22166666D01*
X153547619Y-21785714D02*
X153500000Y-21738095D01*
X153452380Y-21642857D01*
X153452380Y-21404761D01*
X153500000Y-21309523D01*
X153547619Y-21261904D01*
X153642857Y-21214285D01*
X153738095Y-21214285D01*
X153880952Y-21261904D01*
X154452380Y-21833333D01*
X154452380Y-21214285D01*
X153452380Y-20357142D02*
X153452380Y-20547619D01*
X153500000Y-20642857D01*
X153547619Y-20690476D01*
X153690476Y-20785714D01*
X153880952Y-20833333D01*
X154261904Y-20833333D01*
X154357142Y-20785714D01*
X154404761Y-20738095D01*
X154452380Y-20642857D01*
X154452380Y-20452380D01*
X154404761Y-20357142D01*
X154357142Y-20309523D01*
X154261904Y-20261904D01*
X154023809Y-20261904D01*
X153928571Y-20309523D01*
X153880952Y-20357142D01*
X153833333Y-20452380D01*
X153833333Y-20642857D01*
X153880952Y-20738095D01*
X153928571Y-20785714D01*
X154023809Y-20833333D01*
%TO.C,Q102*%
X92952380Y-64047619D02*
X92857142Y-64000000D01*
X92761904Y-63904761D01*
X92619047Y-63761904D01*
X92523809Y-63714285D01*
X92428571Y-63714285D01*
X92476190Y-63952380D02*
X92380952Y-63904761D01*
X92285714Y-63809523D01*
X92238095Y-63619047D01*
X92238095Y-63285714D01*
X92285714Y-63095238D01*
X92380952Y-63000000D01*
X92476190Y-62952380D01*
X92666666Y-62952380D01*
X92761904Y-63000000D01*
X92857142Y-63095238D01*
X92904761Y-63285714D01*
X92904761Y-63619047D01*
X92857142Y-63809523D01*
X92761904Y-63904761D01*
X92666666Y-63952380D01*
X92476190Y-63952380D01*
X93857142Y-63952380D02*
X93285714Y-63952380D01*
X93571428Y-63952380D02*
X93571428Y-62952380D01*
X93476190Y-63095238D01*
X93380952Y-63190476D01*
X93285714Y-63238095D01*
X94476190Y-62952380D02*
X94571428Y-62952380D01*
X94666666Y-63000000D01*
X94714285Y-63047619D01*
X94761904Y-63142857D01*
X94809523Y-63333333D01*
X94809523Y-63571428D01*
X94761904Y-63761904D01*
X94714285Y-63857142D01*
X94666666Y-63904761D01*
X94571428Y-63952380D01*
X94476190Y-63952380D01*
X94380952Y-63904761D01*
X94333333Y-63857142D01*
X94285714Y-63761904D01*
X94238095Y-63571428D01*
X94238095Y-63333333D01*
X94285714Y-63142857D01*
X94333333Y-63047619D01*
X94380952Y-63000000D01*
X94476190Y-62952380D01*
X95190476Y-63047619D02*
X95238095Y-63000000D01*
X95333333Y-62952380D01*
X95571428Y-62952380D01*
X95666666Y-63000000D01*
X95714285Y-63047619D01*
X95761904Y-63142857D01*
X95761904Y-63238095D01*
X95714285Y-63380952D01*
X95142857Y-63952380D01*
X95761904Y-63952380D01*
%TO.C,R214*%
X119352380Y-27119047D02*
X118876190Y-27452380D01*
X119352380Y-27690476D02*
X118352380Y-27690476D01*
X118352380Y-27309523D01*
X118400000Y-27214285D01*
X118447619Y-27166666D01*
X118542857Y-27119047D01*
X118685714Y-27119047D01*
X118780952Y-27166666D01*
X118828571Y-27214285D01*
X118876190Y-27309523D01*
X118876190Y-27690476D01*
X118447619Y-26738095D02*
X118400000Y-26690476D01*
X118352380Y-26595238D01*
X118352380Y-26357142D01*
X118400000Y-26261904D01*
X118447619Y-26214285D01*
X118542857Y-26166666D01*
X118638095Y-26166666D01*
X118780952Y-26214285D01*
X119352380Y-26785714D01*
X119352380Y-26166666D01*
X119352380Y-25214285D02*
X119352380Y-25785714D01*
X119352380Y-25500000D02*
X118352380Y-25500000D01*
X118495238Y-25595238D01*
X118590476Y-25690476D01*
X118638095Y-25785714D01*
X118685714Y-24357142D02*
X119352380Y-24357142D01*
X118304761Y-24595238D02*
X119019047Y-24833333D01*
X119019047Y-24214285D01*
%TO.C,U203*%
X113702380Y-41714285D02*
X114511904Y-41714285D01*
X114607142Y-41666666D01*
X114654761Y-41619047D01*
X114702380Y-41523809D01*
X114702380Y-41333333D01*
X114654761Y-41238095D01*
X114607142Y-41190476D01*
X114511904Y-41142857D01*
X113702380Y-41142857D01*
X113797619Y-40714285D02*
X113750000Y-40666666D01*
X113702380Y-40571428D01*
X113702380Y-40333333D01*
X113750000Y-40238095D01*
X113797619Y-40190476D01*
X113892857Y-40142857D01*
X113988095Y-40142857D01*
X114130952Y-40190476D01*
X114702380Y-40761904D01*
X114702380Y-40142857D01*
X113702380Y-39523809D02*
X113702380Y-39428571D01*
X113750000Y-39333333D01*
X113797619Y-39285714D01*
X113892857Y-39238095D01*
X114083333Y-39190476D01*
X114321428Y-39190476D01*
X114511904Y-39238095D01*
X114607142Y-39285714D01*
X114654761Y-39333333D01*
X114702380Y-39428571D01*
X114702380Y-39523809D01*
X114654761Y-39619047D01*
X114607142Y-39666666D01*
X114511904Y-39714285D01*
X114321428Y-39761904D01*
X114083333Y-39761904D01*
X113892857Y-39714285D01*
X113797619Y-39666666D01*
X113750000Y-39619047D01*
X113702380Y-39523809D01*
X113702380Y-38857142D02*
X113702380Y-38238095D01*
X114083333Y-38571428D01*
X114083333Y-38428571D01*
X114130952Y-38333333D01*
X114178571Y-38285714D01*
X114273809Y-38238095D01*
X114511904Y-38238095D01*
X114607142Y-38285714D01*
X114654761Y-38333333D01*
X114702380Y-38428571D01*
X114702380Y-38714285D01*
X114654761Y-38809523D01*
X114607142Y-38857142D01*
%TO.C,R227*%
X148052380Y-49119047D02*
X147576190Y-49452380D01*
X148052380Y-49690476D02*
X147052380Y-49690476D01*
X147052380Y-49309523D01*
X147100000Y-49214285D01*
X147147619Y-49166666D01*
X147242857Y-49119047D01*
X147385714Y-49119047D01*
X147480952Y-49166666D01*
X147528571Y-49214285D01*
X147576190Y-49309523D01*
X147576190Y-49690476D01*
X147147619Y-48738095D02*
X147100000Y-48690476D01*
X147052380Y-48595238D01*
X147052380Y-48357142D01*
X147100000Y-48261904D01*
X147147619Y-48214285D01*
X147242857Y-48166666D01*
X147338095Y-48166666D01*
X147480952Y-48214285D01*
X148052380Y-48785714D01*
X148052380Y-48166666D01*
X147147619Y-47785714D02*
X147100000Y-47738095D01*
X147052380Y-47642857D01*
X147052380Y-47404761D01*
X147100000Y-47309523D01*
X147147619Y-47261904D01*
X147242857Y-47214285D01*
X147338095Y-47214285D01*
X147480952Y-47261904D01*
X148052380Y-47833333D01*
X148052380Y-47214285D01*
X147052380Y-46880952D02*
X147052380Y-46214285D01*
X148052380Y-46642857D01*
%TO.C,R232*%
X151202380Y-49119047D02*
X150726190Y-49452380D01*
X151202380Y-49690476D02*
X150202380Y-49690476D01*
X150202380Y-49309523D01*
X150250000Y-49214285D01*
X150297619Y-49166666D01*
X150392857Y-49119047D01*
X150535714Y-49119047D01*
X150630952Y-49166666D01*
X150678571Y-49214285D01*
X150726190Y-49309523D01*
X150726190Y-49690476D01*
X150297619Y-48738095D02*
X150250000Y-48690476D01*
X150202380Y-48595238D01*
X150202380Y-48357142D01*
X150250000Y-48261904D01*
X150297619Y-48214285D01*
X150392857Y-48166666D01*
X150488095Y-48166666D01*
X150630952Y-48214285D01*
X151202380Y-48785714D01*
X151202380Y-48166666D01*
X150202380Y-47833333D02*
X150202380Y-47214285D01*
X150583333Y-47547619D01*
X150583333Y-47404761D01*
X150630952Y-47309523D01*
X150678571Y-47261904D01*
X150773809Y-47214285D01*
X151011904Y-47214285D01*
X151107142Y-47261904D01*
X151154761Y-47309523D01*
X151202380Y-47404761D01*
X151202380Y-47690476D01*
X151154761Y-47785714D01*
X151107142Y-47833333D01*
X150297619Y-46833333D02*
X150250000Y-46785714D01*
X150202380Y-46690476D01*
X150202380Y-46452380D01*
X150250000Y-46357142D01*
X150297619Y-46309523D01*
X150392857Y-46261904D01*
X150488095Y-46261904D01*
X150630952Y-46309523D01*
X151202380Y-46880952D01*
X151202380Y-46261904D01*
%TO.C,R225*%
X151352380Y-21869047D02*
X150876190Y-22202380D01*
X151352380Y-22440476D02*
X150352380Y-22440476D01*
X150352380Y-22059523D01*
X150400000Y-21964285D01*
X150447619Y-21916666D01*
X150542857Y-21869047D01*
X150685714Y-21869047D01*
X150780952Y-21916666D01*
X150828571Y-21964285D01*
X150876190Y-22059523D01*
X150876190Y-22440476D01*
X150447619Y-21488095D02*
X150400000Y-21440476D01*
X150352380Y-21345238D01*
X150352380Y-21107142D01*
X150400000Y-21011904D01*
X150447619Y-20964285D01*
X150542857Y-20916666D01*
X150638095Y-20916666D01*
X150780952Y-20964285D01*
X151352380Y-21535714D01*
X151352380Y-20916666D01*
X150447619Y-20535714D02*
X150400000Y-20488095D01*
X150352380Y-20392857D01*
X150352380Y-20154761D01*
X150400000Y-20059523D01*
X150447619Y-20011904D01*
X150542857Y-19964285D01*
X150638095Y-19964285D01*
X150780952Y-20011904D01*
X151352380Y-20583333D01*
X151352380Y-19964285D01*
X150352380Y-19059523D02*
X150352380Y-19535714D01*
X150828571Y-19583333D01*
X150780952Y-19535714D01*
X150733333Y-19440476D01*
X150733333Y-19202380D01*
X150780952Y-19107142D01*
X150828571Y-19059523D01*
X150923809Y-19011904D01*
X151161904Y-19011904D01*
X151257142Y-19059523D01*
X151304761Y-19107142D01*
X151352380Y-19202380D01*
X151352380Y-19440476D01*
X151304761Y-19535714D01*
X151257142Y-19583333D01*
%TO.C,R223*%
X130602380Y-21869047D02*
X130126190Y-22202380D01*
X130602380Y-22440476D02*
X129602380Y-22440476D01*
X129602380Y-22059523D01*
X129650000Y-21964285D01*
X129697619Y-21916666D01*
X129792857Y-21869047D01*
X129935714Y-21869047D01*
X130030952Y-21916666D01*
X130078571Y-21964285D01*
X130126190Y-22059523D01*
X130126190Y-22440476D01*
X129697619Y-21488095D02*
X129650000Y-21440476D01*
X129602380Y-21345238D01*
X129602380Y-21107142D01*
X129650000Y-21011904D01*
X129697619Y-20964285D01*
X129792857Y-20916666D01*
X129888095Y-20916666D01*
X130030952Y-20964285D01*
X130602380Y-21535714D01*
X130602380Y-20916666D01*
X129697619Y-20535714D02*
X129650000Y-20488095D01*
X129602380Y-20392857D01*
X129602380Y-20154761D01*
X129650000Y-20059523D01*
X129697619Y-20011904D01*
X129792857Y-19964285D01*
X129888095Y-19964285D01*
X130030952Y-20011904D01*
X130602380Y-20583333D01*
X130602380Y-19964285D01*
X129602380Y-19630952D02*
X129602380Y-19011904D01*
X129983333Y-19345238D01*
X129983333Y-19202380D01*
X130030952Y-19107142D01*
X130078571Y-19059523D01*
X130173809Y-19011904D01*
X130411904Y-19011904D01*
X130507142Y-19059523D01*
X130554761Y-19107142D01*
X130602380Y-19202380D01*
X130602380Y-19488095D01*
X130554761Y-19583333D01*
X130507142Y-19630952D01*
%TO.C,R221*%
X127302380Y-49119047D02*
X126826190Y-49452380D01*
X127302380Y-49690476D02*
X126302380Y-49690476D01*
X126302380Y-49309523D01*
X126350000Y-49214285D01*
X126397619Y-49166666D01*
X126492857Y-49119047D01*
X126635714Y-49119047D01*
X126730952Y-49166666D01*
X126778571Y-49214285D01*
X126826190Y-49309523D01*
X126826190Y-49690476D01*
X126397619Y-48738095D02*
X126350000Y-48690476D01*
X126302380Y-48595238D01*
X126302380Y-48357142D01*
X126350000Y-48261904D01*
X126397619Y-48214285D01*
X126492857Y-48166666D01*
X126588095Y-48166666D01*
X126730952Y-48214285D01*
X127302380Y-48785714D01*
X127302380Y-48166666D01*
X126397619Y-47785714D02*
X126350000Y-47738095D01*
X126302380Y-47642857D01*
X126302380Y-47404761D01*
X126350000Y-47309523D01*
X126397619Y-47261904D01*
X126492857Y-47214285D01*
X126588095Y-47214285D01*
X126730952Y-47261904D01*
X127302380Y-47833333D01*
X127302380Y-47214285D01*
X127302380Y-46261904D02*
X127302380Y-46833333D01*
X127302380Y-46547619D02*
X126302380Y-46547619D01*
X126445238Y-46642857D01*
X126540476Y-46738095D01*
X126588095Y-46833333D01*
%TO.C,U201*%
X100202380Y-41714285D02*
X101011904Y-41714285D01*
X101107142Y-41666666D01*
X101154761Y-41619047D01*
X101202380Y-41523809D01*
X101202380Y-41333333D01*
X101154761Y-41238095D01*
X101107142Y-41190476D01*
X101011904Y-41142857D01*
X100202380Y-41142857D01*
X100297619Y-40714285D02*
X100250000Y-40666666D01*
X100202380Y-40571428D01*
X100202380Y-40333333D01*
X100250000Y-40238095D01*
X100297619Y-40190476D01*
X100392857Y-40142857D01*
X100488095Y-40142857D01*
X100630952Y-40190476D01*
X101202380Y-40761904D01*
X101202380Y-40142857D01*
X100202380Y-39523809D02*
X100202380Y-39428571D01*
X100250000Y-39333333D01*
X100297619Y-39285714D01*
X100392857Y-39238095D01*
X100583333Y-39190476D01*
X100821428Y-39190476D01*
X101011904Y-39238095D01*
X101107142Y-39285714D01*
X101154761Y-39333333D01*
X101202380Y-39428571D01*
X101202380Y-39523809D01*
X101154761Y-39619047D01*
X101107142Y-39666666D01*
X101011904Y-39714285D01*
X100821428Y-39761904D01*
X100583333Y-39761904D01*
X100392857Y-39714285D01*
X100297619Y-39666666D01*
X100250000Y-39619047D01*
X100202380Y-39523809D01*
X101202380Y-38238095D02*
X101202380Y-38809523D01*
X101202380Y-38523809D02*
X100202380Y-38523809D01*
X100345238Y-38619047D01*
X100440476Y-38714285D01*
X100488095Y-38809523D01*
%TO.C,SW102*%
X79714285Y-57404761D02*
X79857142Y-57452380D01*
X80095238Y-57452380D01*
X80190476Y-57404761D01*
X80238095Y-57357142D01*
X80285714Y-57261904D01*
X80285714Y-57166666D01*
X80238095Y-57071428D01*
X80190476Y-57023809D01*
X80095238Y-56976190D01*
X79904761Y-56928571D01*
X79809523Y-56880952D01*
X79761904Y-56833333D01*
X79714285Y-56738095D01*
X79714285Y-56642857D01*
X79761904Y-56547619D01*
X79809523Y-56500000D01*
X79904761Y-56452380D01*
X80142857Y-56452380D01*
X80285714Y-56500000D01*
X80619047Y-56452380D02*
X80857142Y-57452380D01*
X81047619Y-56738095D01*
X81238095Y-57452380D01*
X81476190Y-56452380D01*
X82380952Y-57452380D02*
X81809523Y-57452380D01*
X82095238Y-57452380D02*
X82095238Y-56452380D01*
X82000000Y-56595238D01*
X81904761Y-56690476D01*
X81809523Y-56738095D01*
X83000000Y-56452380D02*
X83095238Y-56452380D01*
X83190476Y-56500000D01*
X83238095Y-56547619D01*
X83285714Y-56642857D01*
X83333333Y-56833333D01*
X83333333Y-57071428D01*
X83285714Y-57261904D01*
X83238095Y-57357142D01*
X83190476Y-57404761D01*
X83095238Y-57452380D01*
X83000000Y-57452380D01*
X82904761Y-57404761D01*
X82857142Y-57357142D01*
X82809523Y-57261904D01*
X82761904Y-57071428D01*
X82761904Y-56833333D01*
X82809523Y-56642857D01*
X82857142Y-56547619D01*
X82904761Y-56500000D01*
X83000000Y-56452380D01*
X83714285Y-56547619D02*
X83761904Y-56500000D01*
X83857142Y-56452380D01*
X84095238Y-56452380D01*
X84190476Y-56500000D01*
X84238095Y-56547619D01*
X84285714Y-56642857D01*
X84285714Y-56738095D01*
X84238095Y-56880952D01*
X83666666Y-57452380D01*
X84285714Y-57452380D01*
%TO.C,R115*%
X78630952Y-40272380D02*
X78297619Y-39796190D01*
X78059523Y-40272380D02*
X78059523Y-39272380D01*
X78440476Y-39272380D01*
X78535714Y-39320000D01*
X78583333Y-39367619D01*
X78630952Y-39462857D01*
X78630952Y-39605714D01*
X78583333Y-39700952D01*
X78535714Y-39748571D01*
X78440476Y-39796190D01*
X78059523Y-39796190D01*
X79583333Y-40272380D02*
X79011904Y-40272380D01*
X79297619Y-40272380D02*
X79297619Y-39272380D01*
X79202380Y-39415238D01*
X79107142Y-39510476D01*
X79011904Y-39558095D01*
X80535714Y-40272380D02*
X79964285Y-40272380D01*
X80250000Y-40272380D02*
X80250000Y-39272380D01*
X80154761Y-39415238D01*
X80059523Y-39510476D01*
X79964285Y-39558095D01*
X81440476Y-39272380D02*
X80964285Y-39272380D01*
X80916666Y-39748571D01*
X80964285Y-39700952D01*
X81059523Y-39653333D01*
X81297619Y-39653333D01*
X81392857Y-39700952D01*
X81440476Y-39748571D01*
X81488095Y-39843809D01*
X81488095Y-40081904D01*
X81440476Y-40177142D01*
X81392857Y-40224761D01*
X81297619Y-40272380D01*
X81059523Y-40272380D01*
X80964285Y-40224761D01*
X80916666Y-40177142D01*
%TO.C,R210*%
X126852380Y-27119047D02*
X126376190Y-27452380D01*
X126852380Y-27690476D02*
X125852380Y-27690476D01*
X125852380Y-27309523D01*
X125900000Y-27214285D01*
X125947619Y-27166666D01*
X126042857Y-27119047D01*
X126185714Y-27119047D01*
X126280952Y-27166666D01*
X126328571Y-27214285D01*
X126376190Y-27309523D01*
X126376190Y-27690476D01*
X125947619Y-26738095D02*
X125900000Y-26690476D01*
X125852380Y-26595238D01*
X125852380Y-26357142D01*
X125900000Y-26261904D01*
X125947619Y-26214285D01*
X126042857Y-26166666D01*
X126138095Y-26166666D01*
X126280952Y-26214285D01*
X126852380Y-26785714D01*
X126852380Y-26166666D01*
X126852380Y-25214285D02*
X126852380Y-25785714D01*
X126852380Y-25500000D02*
X125852380Y-25500000D01*
X125995238Y-25595238D01*
X126090476Y-25690476D01*
X126138095Y-25785714D01*
X125852380Y-24595238D02*
X125852380Y-24500000D01*
X125900000Y-24404761D01*
X125947619Y-24357142D01*
X126042857Y-24309523D01*
X126233333Y-24261904D01*
X126471428Y-24261904D01*
X126661904Y-24309523D01*
X126757142Y-24357142D01*
X126804761Y-24404761D01*
X126852380Y-24500000D01*
X126852380Y-24595238D01*
X126804761Y-24690476D01*
X126757142Y-24738095D01*
X126661904Y-24785714D01*
X126471428Y-24833333D01*
X126233333Y-24833333D01*
X126042857Y-24785714D01*
X125947619Y-24738095D01*
X125900000Y-24690476D01*
X125852380Y-24595238D01*
%TO.C,R119*%
X126882380Y-73119047D02*
X126406190Y-73452380D01*
X126882380Y-73690476D02*
X125882380Y-73690476D01*
X125882380Y-73309523D01*
X125930000Y-73214285D01*
X125977619Y-73166666D01*
X126072857Y-73119047D01*
X126215714Y-73119047D01*
X126310952Y-73166666D01*
X126358571Y-73214285D01*
X126406190Y-73309523D01*
X126406190Y-73690476D01*
X126882380Y-72166666D02*
X126882380Y-72738095D01*
X126882380Y-72452380D02*
X125882380Y-72452380D01*
X126025238Y-72547619D01*
X126120476Y-72642857D01*
X126168095Y-72738095D01*
X126882380Y-71214285D02*
X126882380Y-71785714D01*
X126882380Y-71500000D02*
X125882380Y-71500000D01*
X126025238Y-71595238D01*
X126120476Y-71690476D01*
X126168095Y-71785714D01*
X126882380Y-70738095D02*
X126882380Y-70547619D01*
X126834761Y-70452380D01*
X126787142Y-70404761D01*
X126644285Y-70309523D01*
X126453809Y-70261904D01*
X126072857Y-70261904D01*
X125977619Y-70309523D01*
X125930000Y-70357142D01*
X125882380Y-70452380D01*
X125882380Y-70642857D01*
X125930000Y-70738095D01*
X125977619Y-70785714D01*
X126072857Y-70833333D01*
X126310952Y-70833333D01*
X126406190Y-70785714D01*
X126453809Y-70738095D01*
X126501428Y-70642857D01*
X126501428Y-70452380D01*
X126453809Y-70357142D01*
X126406190Y-70309523D01*
X126310952Y-70261904D01*
%TO.C,R207*%
X103102380Y-27119047D02*
X102626190Y-27452380D01*
X103102380Y-27690476D02*
X102102380Y-27690476D01*
X102102380Y-27309523D01*
X102150000Y-27214285D01*
X102197619Y-27166666D01*
X102292857Y-27119047D01*
X102435714Y-27119047D01*
X102530952Y-27166666D01*
X102578571Y-27214285D01*
X102626190Y-27309523D01*
X102626190Y-27690476D01*
X102197619Y-26738095D02*
X102150000Y-26690476D01*
X102102380Y-26595238D01*
X102102380Y-26357142D01*
X102150000Y-26261904D01*
X102197619Y-26214285D01*
X102292857Y-26166666D01*
X102388095Y-26166666D01*
X102530952Y-26214285D01*
X103102380Y-26785714D01*
X103102380Y-26166666D01*
X102102380Y-25547619D02*
X102102380Y-25452380D01*
X102150000Y-25357142D01*
X102197619Y-25309523D01*
X102292857Y-25261904D01*
X102483333Y-25214285D01*
X102721428Y-25214285D01*
X102911904Y-25261904D01*
X103007142Y-25309523D01*
X103054761Y-25357142D01*
X103102380Y-25452380D01*
X103102380Y-25547619D01*
X103054761Y-25642857D01*
X103007142Y-25690476D01*
X102911904Y-25738095D01*
X102721428Y-25785714D01*
X102483333Y-25785714D01*
X102292857Y-25738095D01*
X102197619Y-25690476D01*
X102150000Y-25642857D01*
X102102380Y-25547619D01*
X102102380Y-24880952D02*
X102102380Y-24214285D01*
X103102380Y-24642857D01*
%TO.C,R230*%
X146852380Y-21869047D02*
X146376190Y-22202380D01*
X146852380Y-22440476D02*
X145852380Y-22440476D01*
X145852380Y-22059523D01*
X145900000Y-21964285D01*
X145947619Y-21916666D01*
X146042857Y-21869047D01*
X146185714Y-21869047D01*
X146280952Y-21916666D01*
X146328571Y-21964285D01*
X146376190Y-22059523D01*
X146376190Y-22440476D01*
X145947619Y-21488095D02*
X145900000Y-21440476D01*
X145852380Y-21345238D01*
X145852380Y-21107142D01*
X145900000Y-21011904D01*
X145947619Y-20964285D01*
X146042857Y-20916666D01*
X146138095Y-20916666D01*
X146280952Y-20964285D01*
X146852380Y-21535714D01*
X146852380Y-20916666D01*
X145852380Y-20583333D02*
X145852380Y-19964285D01*
X146233333Y-20297619D01*
X146233333Y-20154761D01*
X146280952Y-20059523D01*
X146328571Y-20011904D01*
X146423809Y-19964285D01*
X146661904Y-19964285D01*
X146757142Y-20011904D01*
X146804761Y-20059523D01*
X146852380Y-20154761D01*
X146852380Y-20440476D01*
X146804761Y-20535714D01*
X146757142Y-20583333D01*
X145852380Y-19345238D02*
X145852380Y-19250000D01*
X145900000Y-19154761D01*
X145947619Y-19107142D01*
X146042857Y-19059523D01*
X146233333Y-19011904D01*
X146471428Y-19011904D01*
X146661904Y-19059523D01*
X146757142Y-19107142D01*
X146804761Y-19154761D01*
X146852380Y-19250000D01*
X146852380Y-19345238D01*
X146804761Y-19440476D01*
X146757142Y-19488095D01*
X146661904Y-19535714D01*
X146471428Y-19583333D01*
X146233333Y-19583333D01*
X146042857Y-19535714D01*
X145947619Y-19488095D01*
X145900000Y-19440476D01*
X145852380Y-19345238D01*
%TO.C,R208*%
X109952380Y-54869047D02*
X109476190Y-55202380D01*
X109952380Y-55440476D02*
X108952380Y-55440476D01*
X108952380Y-55059523D01*
X109000000Y-54964285D01*
X109047619Y-54916666D01*
X109142857Y-54869047D01*
X109285714Y-54869047D01*
X109380952Y-54916666D01*
X109428571Y-54964285D01*
X109476190Y-55059523D01*
X109476190Y-55440476D01*
X109047619Y-54488095D02*
X109000000Y-54440476D01*
X108952380Y-54345238D01*
X108952380Y-54107142D01*
X109000000Y-54011904D01*
X109047619Y-53964285D01*
X109142857Y-53916666D01*
X109238095Y-53916666D01*
X109380952Y-53964285D01*
X109952380Y-54535714D01*
X109952380Y-53916666D01*
X108952380Y-53297619D02*
X108952380Y-53202380D01*
X109000000Y-53107142D01*
X109047619Y-53059523D01*
X109142857Y-53011904D01*
X109333333Y-52964285D01*
X109571428Y-52964285D01*
X109761904Y-53011904D01*
X109857142Y-53059523D01*
X109904761Y-53107142D01*
X109952380Y-53202380D01*
X109952380Y-53297619D01*
X109904761Y-53392857D01*
X109857142Y-53440476D01*
X109761904Y-53488095D01*
X109571428Y-53535714D01*
X109333333Y-53535714D01*
X109142857Y-53488095D01*
X109047619Y-53440476D01*
X109000000Y-53392857D01*
X108952380Y-53297619D01*
X109380952Y-52392857D02*
X109333333Y-52488095D01*
X109285714Y-52535714D01*
X109190476Y-52583333D01*
X109142857Y-52583333D01*
X109047619Y-52535714D01*
X109000000Y-52488095D01*
X108952380Y-52392857D01*
X108952380Y-52202380D01*
X109000000Y-52107142D01*
X109047619Y-52059523D01*
X109142857Y-52011904D01*
X109190476Y-52011904D01*
X109285714Y-52059523D01*
X109333333Y-52107142D01*
X109380952Y-52202380D01*
X109380952Y-52392857D01*
X109428571Y-52488095D01*
X109476190Y-52535714D01*
X109571428Y-52583333D01*
X109761904Y-52583333D01*
X109857142Y-52535714D01*
X109904761Y-52488095D01*
X109952380Y-52392857D01*
X109952380Y-52202380D01*
X109904761Y-52107142D01*
X109857142Y-52059523D01*
X109761904Y-52011904D01*
X109571428Y-52011904D01*
X109476190Y-52059523D01*
X109428571Y-52107142D01*
X109380952Y-52202380D01*
%TO.C,R120*%
X129882380Y-73119047D02*
X129406190Y-73452380D01*
X129882380Y-73690476D02*
X128882380Y-73690476D01*
X128882380Y-73309523D01*
X128930000Y-73214285D01*
X128977619Y-73166666D01*
X129072857Y-73119047D01*
X129215714Y-73119047D01*
X129310952Y-73166666D01*
X129358571Y-73214285D01*
X129406190Y-73309523D01*
X129406190Y-73690476D01*
X129882380Y-72166666D02*
X129882380Y-72738095D01*
X129882380Y-72452380D02*
X128882380Y-72452380D01*
X129025238Y-72547619D01*
X129120476Y-72642857D01*
X129168095Y-72738095D01*
X128977619Y-71785714D02*
X128930000Y-71738095D01*
X128882380Y-71642857D01*
X128882380Y-71404761D01*
X128930000Y-71309523D01*
X128977619Y-71261904D01*
X129072857Y-71214285D01*
X129168095Y-71214285D01*
X129310952Y-71261904D01*
X129882380Y-71833333D01*
X129882380Y-71214285D01*
X128882380Y-70595238D02*
X128882380Y-70500000D01*
X128930000Y-70404761D01*
X128977619Y-70357142D01*
X129072857Y-70309523D01*
X129263333Y-70261904D01*
X129501428Y-70261904D01*
X129691904Y-70309523D01*
X129787142Y-70357142D01*
X129834761Y-70404761D01*
X129882380Y-70500000D01*
X129882380Y-70595238D01*
X129834761Y-70690476D01*
X129787142Y-70738095D01*
X129691904Y-70785714D01*
X129501428Y-70833333D01*
X129263333Y-70833333D01*
X129072857Y-70785714D01*
X128977619Y-70738095D01*
X128930000Y-70690476D01*
X128882380Y-70595238D01*
%TO.C,R215*%
X116352380Y-27119047D02*
X115876190Y-27452380D01*
X116352380Y-27690476D02*
X115352380Y-27690476D01*
X115352380Y-27309523D01*
X115400000Y-27214285D01*
X115447619Y-27166666D01*
X115542857Y-27119047D01*
X115685714Y-27119047D01*
X115780952Y-27166666D01*
X115828571Y-27214285D01*
X115876190Y-27309523D01*
X115876190Y-27690476D01*
X115447619Y-26738095D02*
X115400000Y-26690476D01*
X115352380Y-26595238D01*
X115352380Y-26357142D01*
X115400000Y-26261904D01*
X115447619Y-26214285D01*
X115542857Y-26166666D01*
X115638095Y-26166666D01*
X115780952Y-26214285D01*
X116352380Y-26785714D01*
X116352380Y-26166666D01*
X116352380Y-25214285D02*
X116352380Y-25785714D01*
X116352380Y-25500000D02*
X115352380Y-25500000D01*
X115495238Y-25595238D01*
X115590476Y-25690476D01*
X115638095Y-25785714D01*
X115352380Y-24309523D02*
X115352380Y-24785714D01*
X115828571Y-24833333D01*
X115780952Y-24785714D01*
X115733333Y-24690476D01*
X115733333Y-24452380D01*
X115780952Y-24357142D01*
X115828571Y-24309523D01*
X115923809Y-24261904D01*
X116161904Y-24261904D01*
X116257142Y-24309523D01*
X116304761Y-24357142D01*
X116352380Y-24452380D01*
X116352380Y-24690476D01*
X116304761Y-24785714D01*
X116257142Y-24833333D01*
%TO.C,U205*%
X127702380Y-36214285D02*
X128511904Y-36214285D01*
X128607142Y-36166666D01*
X128654761Y-36119047D01*
X128702380Y-36023809D01*
X128702380Y-35833333D01*
X128654761Y-35738095D01*
X128607142Y-35690476D01*
X128511904Y-35642857D01*
X127702380Y-35642857D01*
X127797619Y-35214285D02*
X127750000Y-35166666D01*
X127702380Y-35071428D01*
X127702380Y-34833333D01*
X127750000Y-34738095D01*
X127797619Y-34690476D01*
X127892857Y-34642857D01*
X127988095Y-34642857D01*
X128130952Y-34690476D01*
X128702380Y-35261904D01*
X128702380Y-34642857D01*
X127702380Y-34023809D02*
X127702380Y-33928571D01*
X127750000Y-33833333D01*
X127797619Y-33785714D01*
X127892857Y-33738095D01*
X128083333Y-33690476D01*
X128321428Y-33690476D01*
X128511904Y-33738095D01*
X128607142Y-33785714D01*
X128654761Y-33833333D01*
X128702380Y-33928571D01*
X128702380Y-34023809D01*
X128654761Y-34119047D01*
X128607142Y-34166666D01*
X128511904Y-34214285D01*
X128321428Y-34261904D01*
X128083333Y-34261904D01*
X127892857Y-34214285D01*
X127797619Y-34166666D01*
X127750000Y-34119047D01*
X127702380Y-34023809D01*
X127702380Y-32785714D02*
X127702380Y-33261904D01*
X128178571Y-33309523D01*
X128130952Y-33261904D01*
X128083333Y-33166666D01*
X128083333Y-32928571D01*
X128130952Y-32833333D01*
X128178571Y-32785714D01*
X128273809Y-32738095D01*
X128511904Y-32738095D01*
X128607142Y-32785714D01*
X128654761Y-32833333D01*
X128702380Y-32928571D01*
X128702380Y-33166666D01*
X128654761Y-33261904D01*
X128607142Y-33309523D01*
%TO.C,C111*%
X117107142Y-67119047D02*
X117154761Y-67166666D01*
X117202380Y-67309523D01*
X117202380Y-67404761D01*
X117154761Y-67547619D01*
X117059523Y-67642857D01*
X116964285Y-67690476D01*
X116773809Y-67738095D01*
X116630952Y-67738095D01*
X116440476Y-67690476D01*
X116345238Y-67642857D01*
X116250000Y-67547619D01*
X116202380Y-67404761D01*
X116202380Y-67309523D01*
X116250000Y-67166666D01*
X116297619Y-67119047D01*
X117202380Y-66166666D02*
X117202380Y-66738095D01*
X117202380Y-66452380D02*
X116202380Y-66452380D01*
X116345238Y-66547619D01*
X116440476Y-66642857D01*
X116488095Y-66738095D01*
X117202380Y-65214285D02*
X117202380Y-65785714D01*
X117202380Y-65500000D02*
X116202380Y-65500000D01*
X116345238Y-65595238D01*
X116440476Y-65690476D01*
X116488095Y-65785714D01*
X117202380Y-64261904D02*
X117202380Y-64833333D01*
X117202380Y-64547619D02*
X116202380Y-64547619D01*
X116345238Y-64642857D01*
X116440476Y-64738095D01*
X116488095Y-64833333D01*
%TO.C,R118*%
X123882380Y-73119047D02*
X123406190Y-73452380D01*
X123882380Y-73690476D02*
X122882380Y-73690476D01*
X122882380Y-73309523D01*
X122930000Y-73214285D01*
X122977619Y-73166666D01*
X123072857Y-73119047D01*
X123215714Y-73119047D01*
X123310952Y-73166666D01*
X123358571Y-73214285D01*
X123406190Y-73309523D01*
X123406190Y-73690476D01*
X123882380Y-72166666D02*
X123882380Y-72738095D01*
X123882380Y-72452380D02*
X122882380Y-72452380D01*
X123025238Y-72547619D01*
X123120476Y-72642857D01*
X123168095Y-72738095D01*
X123882380Y-71214285D02*
X123882380Y-71785714D01*
X123882380Y-71500000D02*
X122882380Y-71500000D01*
X123025238Y-71595238D01*
X123120476Y-71690476D01*
X123168095Y-71785714D01*
X123310952Y-70642857D02*
X123263333Y-70738095D01*
X123215714Y-70785714D01*
X123120476Y-70833333D01*
X123072857Y-70833333D01*
X122977619Y-70785714D01*
X122930000Y-70738095D01*
X122882380Y-70642857D01*
X122882380Y-70452380D01*
X122930000Y-70357142D01*
X122977619Y-70309523D01*
X123072857Y-70261904D01*
X123120476Y-70261904D01*
X123215714Y-70309523D01*
X123263333Y-70357142D01*
X123310952Y-70452380D01*
X123310952Y-70642857D01*
X123358571Y-70738095D01*
X123406190Y-70785714D01*
X123501428Y-70833333D01*
X123691904Y-70833333D01*
X123787142Y-70785714D01*
X123834761Y-70738095D01*
X123882380Y-70642857D01*
X123882380Y-70452380D01*
X123834761Y-70357142D01*
X123787142Y-70309523D01*
X123691904Y-70261904D01*
X123501428Y-70261904D01*
X123406190Y-70309523D01*
X123358571Y-70357142D01*
X123310952Y-70452380D01*
%TO.C,R113*%
X86630952Y-51772380D02*
X86297619Y-51296190D01*
X86059523Y-51772380D02*
X86059523Y-50772380D01*
X86440476Y-50772380D01*
X86535714Y-50820000D01*
X86583333Y-50867619D01*
X86630952Y-50962857D01*
X86630952Y-51105714D01*
X86583333Y-51200952D01*
X86535714Y-51248571D01*
X86440476Y-51296190D01*
X86059523Y-51296190D01*
X87583333Y-51772380D02*
X87011904Y-51772380D01*
X87297619Y-51772380D02*
X87297619Y-50772380D01*
X87202380Y-50915238D01*
X87107142Y-51010476D01*
X87011904Y-51058095D01*
X88535714Y-51772380D02*
X87964285Y-51772380D01*
X88250000Y-51772380D02*
X88250000Y-50772380D01*
X88154761Y-50915238D01*
X88059523Y-51010476D01*
X87964285Y-51058095D01*
X88869047Y-50772380D02*
X89488095Y-50772380D01*
X89154761Y-51153333D01*
X89297619Y-51153333D01*
X89392857Y-51200952D01*
X89440476Y-51248571D01*
X89488095Y-51343809D01*
X89488095Y-51581904D01*
X89440476Y-51677142D01*
X89392857Y-51724761D01*
X89297619Y-51772380D01*
X89011904Y-51772380D01*
X88916666Y-51724761D01*
X88869047Y-51677142D01*
%TO.C,U204*%
X124352380Y-61214285D02*
X125161904Y-61214285D01*
X125257142Y-61166666D01*
X125304761Y-61119047D01*
X125352380Y-61023809D01*
X125352380Y-60833333D01*
X125304761Y-60738095D01*
X125257142Y-60690476D01*
X125161904Y-60642857D01*
X124352380Y-60642857D01*
X124447619Y-60214285D02*
X124400000Y-60166666D01*
X124352380Y-60071428D01*
X124352380Y-59833333D01*
X124400000Y-59738095D01*
X124447619Y-59690476D01*
X124542857Y-59642857D01*
X124638095Y-59642857D01*
X124780952Y-59690476D01*
X125352380Y-60261904D01*
X125352380Y-59642857D01*
X124352380Y-59023809D02*
X124352380Y-58928571D01*
X124400000Y-58833333D01*
X124447619Y-58785714D01*
X124542857Y-58738095D01*
X124733333Y-58690476D01*
X124971428Y-58690476D01*
X125161904Y-58738095D01*
X125257142Y-58785714D01*
X125304761Y-58833333D01*
X125352380Y-58928571D01*
X125352380Y-59023809D01*
X125304761Y-59119047D01*
X125257142Y-59166666D01*
X125161904Y-59214285D01*
X124971428Y-59261904D01*
X124733333Y-59261904D01*
X124542857Y-59214285D01*
X124447619Y-59166666D01*
X124400000Y-59119047D01*
X124352380Y-59023809D01*
X124685714Y-57833333D02*
X125352380Y-57833333D01*
X124304761Y-58071428D02*
X125019047Y-58309523D01*
X125019047Y-57690476D01*
%TO.C,F102*%
X61208571Y-76285714D02*
X61208571Y-76619047D01*
X61732380Y-76619047D02*
X60732380Y-76619047D01*
X60732380Y-76142857D01*
X61732380Y-75238095D02*
X61732380Y-75809523D01*
X61732380Y-75523809D02*
X60732380Y-75523809D01*
X60875238Y-75619047D01*
X60970476Y-75714285D01*
X61018095Y-75809523D01*
X60732380Y-74619047D02*
X60732380Y-74523809D01*
X60780000Y-74428571D01*
X60827619Y-74380952D01*
X60922857Y-74333333D01*
X61113333Y-74285714D01*
X61351428Y-74285714D01*
X61541904Y-74333333D01*
X61637142Y-74380952D01*
X61684761Y-74428571D01*
X61732380Y-74523809D01*
X61732380Y-74619047D01*
X61684761Y-74714285D01*
X61637142Y-74761904D01*
X61541904Y-74809523D01*
X61351428Y-74857142D01*
X61113333Y-74857142D01*
X60922857Y-74809523D01*
X60827619Y-74761904D01*
X60780000Y-74714285D01*
X60732380Y-74619047D01*
X60827619Y-73904761D02*
X60780000Y-73857142D01*
X60732380Y-73761904D01*
X60732380Y-73523809D01*
X60780000Y-73428571D01*
X60827619Y-73380952D01*
X60922857Y-73333333D01*
X61018095Y-73333333D01*
X61160952Y-73380952D01*
X61732380Y-73952380D01*
X61732380Y-73333333D01*
%TO.C,R204*%
X102702380Y-54781547D02*
X102226190Y-55114880D01*
X102702380Y-55352976D02*
X101702380Y-55352976D01*
X101702380Y-54972023D01*
X101750000Y-54876785D01*
X101797619Y-54829166D01*
X101892857Y-54781547D01*
X102035714Y-54781547D01*
X102130952Y-54829166D01*
X102178571Y-54876785D01*
X102226190Y-54972023D01*
X102226190Y-55352976D01*
X101797619Y-54400595D02*
X101750000Y-54352976D01*
X101702380Y-54257738D01*
X101702380Y-54019642D01*
X101750000Y-53924404D01*
X101797619Y-53876785D01*
X101892857Y-53829166D01*
X101988095Y-53829166D01*
X102130952Y-53876785D01*
X102702380Y-54448214D01*
X102702380Y-53829166D01*
X101702380Y-53210119D02*
X101702380Y-53114880D01*
X101750000Y-53019642D01*
X101797619Y-52972023D01*
X101892857Y-52924404D01*
X102083333Y-52876785D01*
X102321428Y-52876785D01*
X102511904Y-52924404D01*
X102607142Y-52972023D01*
X102654761Y-53019642D01*
X102702380Y-53114880D01*
X102702380Y-53210119D01*
X102654761Y-53305357D01*
X102607142Y-53352976D01*
X102511904Y-53400595D01*
X102321428Y-53448214D01*
X102083333Y-53448214D01*
X101892857Y-53400595D01*
X101797619Y-53352976D01*
X101750000Y-53305357D01*
X101702380Y-53210119D01*
X102035714Y-52019642D02*
X102702380Y-52019642D01*
X101654761Y-52257738D02*
X102369047Y-52495833D01*
X102369047Y-51876785D01*
%TO.C,R107*%
X74380952Y-29272380D02*
X74047619Y-28796190D01*
X73809523Y-29272380D02*
X73809523Y-28272380D01*
X74190476Y-28272380D01*
X74285714Y-28320000D01*
X74333333Y-28367619D01*
X74380952Y-28462857D01*
X74380952Y-28605714D01*
X74333333Y-28700952D01*
X74285714Y-28748571D01*
X74190476Y-28796190D01*
X73809523Y-28796190D01*
X75333333Y-29272380D02*
X74761904Y-29272380D01*
X75047619Y-29272380D02*
X75047619Y-28272380D01*
X74952380Y-28415238D01*
X74857142Y-28510476D01*
X74761904Y-28558095D01*
X75952380Y-28272380D02*
X76047619Y-28272380D01*
X76142857Y-28320000D01*
X76190476Y-28367619D01*
X76238095Y-28462857D01*
X76285714Y-28653333D01*
X76285714Y-28891428D01*
X76238095Y-29081904D01*
X76190476Y-29177142D01*
X76142857Y-29224761D01*
X76047619Y-29272380D01*
X75952380Y-29272380D01*
X75857142Y-29224761D01*
X75809523Y-29177142D01*
X75761904Y-29081904D01*
X75714285Y-28891428D01*
X75714285Y-28653333D01*
X75761904Y-28462857D01*
X75809523Y-28367619D01*
X75857142Y-28320000D01*
X75952380Y-28272380D01*
X76619047Y-28272380D02*
X77285714Y-28272380D01*
X76857142Y-29272380D01*
%TO.C,U102*%
X132452380Y-66464285D02*
X133261904Y-66464285D01*
X133357142Y-66416666D01*
X133404761Y-66369047D01*
X133452380Y-66273809D01*
X133452380Y-66083333D01*
X133404761Y-65988095D01*
X133357142Y-65940476D01*
X133261904Y-65892857D01*
X132452380Y-65892857D01*
X133452380Y-64892857D02*
X133452380Y-65464285D01*
X133452380Y-65178571D02*
X132452380Y-65178571D01*
X132595238Y-65273809D01*
X132690476Y-65369047D01*
X132738095Y-65464285D01*
X132452380Y-64273809D02*
X132452380Y-64178571D01*
X132500000Y-64083333D01*
X132547619Y-64035714D01*
X132642857Y-63988095D01*
X132833333Y-63940476D01*
X133071428Y-63940476D01*
X133261904Y-63988095D01*
X133357142Y-64035714D01*
X133404761Y-64083333D01*
X133452380Y-64178571D01*
X133452380Y-64273809D01*
X133404761Y-64369047D01*
X133357142Y-64416666D01*
X133261904Y-64464285D01*
X133071428Y-64511904D01*
X132833333Y-64511904D01*
X132642857Y-64464285D01*
X132547619Y-64416666D01*
X132500000Y-64369047D01*
X132452380Y-64273809D01*
X132547619Y-63559523D02*
X132500000Y-63511904D01*
X132452380Y-63416666D01*
X132452380Y-63178571D01*
X132500000Y-63083333D01*
X132547619Y-63035714D01*
X132642857Y-62988095D01*
X132738095Y-62988095D01*
X132880952Y-63035714D01*
X133452380Y-63607142D01*
X133452380Y-62988095D01*
%TO.C,R222*%
X133602380Y-21869047D02*
X133126190Y-22202380D01*
X133602380Y-22440476D02*
X132602380Y-22440476D01*
X132602380Y-22059523D01*
X132650000Y-21964285D01*
X132697619Y-21916666D01*
X132792857Y-21869047D01*
X132935714Y-21869047D01*
X133030952Y-21916666D01*
X133078571Y-21964285D01*
X133126190Y-22059523D01*
X133126190Y-22440476D01*
X132697619Y-21488095D02*
X132650000Y-21440476D01*
X132602380Y-21345238D01*
X132602380Y-21107142D01*
X132650000Y-21011904D01*
X132697619Y-20964285D01*
X132792857Y-20916666D01*
X132888095Y-20916666D01*
X133030952Y-20964285D01*
X133602380Y-21535714D01*
X133602380Y-20916666D01*
X132697619Y-20535714D02*
X132650000Y-20488095D01*
X132602380Y-20392857D01*
X132602380Y-20154761D01*
X132650000Y-20059523D01*
X132697619Y-20011904D01*
X132792857Y-19964285D01*
X132888095Y-19964285D01*
X133030952Y-20011904D01*
X133602380Y-20583333D01*
X133602380Y-19964285D01*
X132697619Y-19583333D02*
X132650000Y-19535714D01*
X132602380Y-19440476D01*
X132602380Y-19202380D01*
X132650000Y-19107142D01*
X132697619Y-19059523D01*
X132792857Y-19011904D01*
X132888095Y-19011904D01*
X133030952Y-19059523D01*
X133602380Y-19630952D01*
X133602380Y-19011904D01*
%TO.C,SW101*%
X75695238Y-61714285D02*
X75647619Y-61857142D01*
X75647619Y-62095238D01*
X75695238Y-62190476D01*
X75742857Y-62238095D01*
X75838095Y-62285714D01*
X75933333Y-62285714D01*
X76028571Y-62238095D01*
X76076190Y-62190476D01*
X76123809Y-62095238D01*
X76171428Y-61904761D01*
X76219047Y-61809523D01*
X76266666Y-61761904D01*
X76361904Y-61714285D01*
X76457142Y-61714285D01*
X76552380Y-61761904D01*
X76600000Y-61809523D01*
X76647619Y-61904761D01*
X76647619Y-62142857D01*
X76600000Y-62285714D01*
X76647619Y-62619047D02*
X75647619Y-62857142D01*
X76361904Y-63047619D01*
X75647619Y-63238095D01*
X76647619Y-63476190D01*
X75647619Y-64380952D02*
X75647619Y-63809523D01*
X75647619Y-64095238D02*
X76647619Y-64095238D01*
X76504761Y-64000000D01*
X76409523Y-63904761D01*
X76361904Y-63809523D01*
X76647619Y-65000000D02*
X76647619Y-65095238D01*
X76600000Y-65190476D01*
X76552380Y-65238095D01*
X76457142Y-65285714D01*
X76266666Y-65333333D01*
X76028571Y-65333333D01*
X75838095Y-65285714D01*
X75742857Y-65238095D01*
X75695238Y-65190476D01*
X75647619Y-65095238D01*
X75647619Y-65000000D01*
X75695238Y-64904761D01*
X75742857Y-64857142D01*
X75838095Y-64809523D01*
X76028571Y-64761904D01*
X76266666Y-64761904D01*
X76457142Y-64809523D01*
X76552380Y-64857142D01*
X76600000Y-64904761D01*
X76647619Y-65000000D01*
X75647619Y-66285714D02*
X75647619Y-65714285D01*
X75647619Y-66000000D02*
X76647619Y-66000000D01*
X76504761Y-65904761D01*
X76409523Y-65809523D01*
X76361904Y-65714285D01*
%TO.C,D106*%
X86059523Y-54772380D02*
X86059523Y-53772380D01*
X86297619Y-53772380D01*
X86440476Y-53820000D01*
X86535714Y-53915238D01*
X86583333Y-54010476D01*
X86630952Y-54200952D01*
X86630952Y-54343809D01*
X86583333Y-54534285D01*
X86535714Y-54629523D01*
X86440476Y-54724761D01*
X86297619Y-54772380D01*
X86059523Y-54772380D01*
X87583333Y-54772380D02*
X87011904Y-54772380D01*
X87297619Y-54772380D02*
X87297619Y-53772380D01*
X87202380Y-53915238D01*
X87107142Y-54010476D01*
X87011904Y-54058095D01*
X88202380Y-53772380D02*
X88297619Y-53772380D01*
X88392857Y-53820000D01*
X88440476Y-53867619D01*
X88488095Y-53962857D01*
X88535714Y-54153333D01*
X88535714Y-54391428D01*
X88488095Y-54581904D01*
X88440476Y-54677142D01*
X88392857Y-54724761D01*
X88297619Y-54772380D01*
X88202380Y-54772380D01*
X88107142Y-54724761D01*
X88059523Y-54677142D01*
X88011904Y-54581904D01*
X87964285Y-54391428D01*
X87964285Y-54153333D01*
X88011904Y-53962857D01*
X88059523Y-53867619D01*
X88107142Y-53820000D01*
X88202380Y-53772380D01*
X89392857Y-53772380D02*
X89202380Y-53772380D01*
X89107142Y-53820000D01*
X89059523Y-53867619D01*
X88964285Y-54010476D01*
X88916666Y-54200952D01*
X88916666Y-54581904D01*
X88964285Y-54677142D01*
X89011904Y-54724761D01*
X89107142Y-54772380D01*
X89297619Y-54772380D01*
X89392857Y-54724761D01*
X89440476Y-54677142D01*
X89488095Y-54581904D01*
X89488095Y-54343809D01*
X89440476Y-54248571D01*
X89392857Y-54200952D01*
X89297619Y-54153333D01*
X89107142Y-54153333D01*
X89011904Y-54200952D01*
X88964285Y-54248571D01*
X88916666Y-54343809D01*
%TO.C,R220*%
X130452380Y-49119047D02*
X129976190Y-49452380D01*
X130452380Y-49690476D02*
X129452380Y-49690476D01*
X129452380Y-49309523D01*
X129500000Y-49214285D01*
X129547619Y-49166666D01*
X129642857Y-49119047D01*
X129785714Y-49119047D01*
X129880952Y-49166666D01*
X129928571Y-49214285D01*
X129976190Y-49309523D01*
X129976190Y-49690476D01*
X129547619Y-48738095D02*
X129500000Y-48690476D01*
X129452380Y-48595238D01*
X129452380Y-48357142D01*
X129500000Y-48261904D01*
X129547619Y-48214285D01*
X129642857Y-48166666D01*
X129738095Y-48166666D01*
X129880952Y-48214285D01*
X130452380Y-48785714D01*
X130452380Y-48166666D01*
X129547619Y-47785714D02*
X129500000Y-47738095D01*
X129452380Y-47642857D01*
X129452380Y-47404761D01*
X129500000Y-47309523D01*
X129547619Y-47261904D01*
X129642857Y-47214285D01*
X129738095Y-47214285D01*
X129880952Y-47261904D01*
X130452380Y-47833333D01*
X130452380Y-47214285D01*
X129452380Y-46595238D02*
X129452380Y-46500000D01*
X129500000Y-46404761D01*
X129547619Y-46357142D01*
X129642857Y-46309523D01*
X129833333Y-46261904D01*
X130071428Y-46261904D01*
X130261904Y-46309523D01*
X130357142Y-46357142D01*
X130404761Y-46404761D01*
X130452380Y-46500000D01*
X130452380Y-46595238D01*
X130404761Y-46690476D01*
X130357142Y-46738095D01*
X130261904Y-46785714D01*
X130071428Y-46833333D01*
X129833333Y-46833333D01*
X129642857Y-46785714D01*
X129547619Y-46738095D01*
X129500000Y-46690476D01*
X129452380Y-46595238D01*
%TO.C,R112*%
X88380952Y-66882380D02*
X88047619Y-66406190D01*
X87809523Y-66882380D02*
X87809523Y-65882380D01*
X88190476Y-65882380D01*
X88285714Y-65930000D01*
X88333333Y-65977619D01*
X88380952Y-66072857D01*
X88380952Y-66215714D01*
X88333333Y-66310952D01*
X88285714Y-66358571D01*
X88190476Y-66406190D01*
X87809523Y-66406190D01*
X89333333Y-66882380D02*
X88761904Y-66882380D01*
X89047619Y-66882380D02*
X89047619Y-65882380D01*
X88952380Y-66025238D01*
X88857142Y-66120476D01*
X88761904Y-66168095D01*
X90285714Y-66882380D02*
X89714285Y-66882380D01*
X90000000Y-66882380D02*
X90000000Y-65882380D01*
X89904761Y-66025238D01*
X89809523Y-66120476D01*
X89714285Y-66168095D01*
X90666666Y-65977619D02*
X90714285Y-65930000D01*
X90809523Y-65882380D01*
X91047619Y-65882380D01*
X91142857Y-65930000D01*
X91190476Y-65977619D01*
X91238095Y-66072857D01*
X91238095Y-66168095D01*
X91190476Y-66310952D01*
X90619047Y-66882380D01*
X91238095Y-66882380D01*
D11*
%TO.C,C106*%
X89140580Y-80490000D02*
X88859420Y-80490000D01*
X89140580Y-81510000D02*
X88859420Y-81510000D01*
%TO.C,D101*%
X76800000Y-55015000D02*
X74515000Y-55015000D01*
X74515000Y-56485000D02*
X76800000Y-56485000D01*
X74515000Y-55015000D02*
X74515000Y-56485000D01*
%TO.C,R201*%
X107265000Y-25772936D02*
X107265000Y-26227064D01*
X108735000Y-25772936D02*
X108735000Y-26227064D01*
%TO.C,R114*%
X75012742Y-40727500D02*
X75487258Y-40727500D01*
X75012742Y-41772500D02*
X75487258Y-41772500D01*
%TO.C,R104*%
X79512742Y-38227500D02*
X79987258Y-38227500D01*
X79512742Y-39272500D02*
X79987258Y-39272500D01*
%TO.C,R109*%
X79512742Y-51022500D02*
X79987258Y-51022500D01*
X79512742Y-49977500D02*
X79987258Y-49977500D01*
%TO.C,C109*%
X112490000Y-66140580D02*
X112490000Y-65859420D01*
X113510000Y-66140580D02*
X113510000Y-65859420D01*
%TO.C,C113*%
X83490000Y-25059420D02*
X83490000Y-25340580D01*
X84510000Y-25059420D02*
X84510000Y-25340580D01*
%TO.C,F101*%
X62645000Y-74276263D02*
X62645000Y-75723737D01*
X65355000Y-74276263D02*
X65355000Y-75723737D01*
%TO.C,R218*%
X137765000Y-20522936D02*
X137765000Y-20977064D01*
X139235000Y-20522936D02*
X139235000Y-20977064D01*
%TO.C,U206*%
X138560000Y-54000000D02*
X138560000Y-50550000D01*
X128440000Y-54000000D02*
X128440000Y-52050000D01*
X138560000Y-54000000D02*
X138560000Y-55950000D01*
X128440000Y-54000000D02*
X128440000Y-55950000D01*
%TO.C,R101*%
X75762742Y-53522500D02*
X76237258Y-53522500D01*
X75762742Y-52477500D02*
X76237258Y-52477500D01*
%TO.C,J103*%
X67350000Y-18467500D02*
X67850000Y-18967500D01*
X67850000Y-18967500D02*
X68350000Y-18467500D01*
X71730000Y-19152500D02*
X53770000Y-19152500D01*
X68350000Y-18467500D02*
X67350000Y-18467500D01*
X53770000Y-19152500D02*
X53770000Y-34672500D01*
X71730000Y-34672500D02*
X53770000Y-34672500D01*
X71730000Y-34672500D02*
X71730000Y-19152500D01*
%TO.C,R106*%
X75262742Y-32727500D02*
X75737258Y-32727500D01*
X75262742Y-33772500D02*
X75737258Y-33772500D01*
%TO.C,R206*%
X103265000Y-25772936D02*
X103265000Y-26227064D01*
X104735000Y-25772936D02*
X104735000Y-26227064D01*
%TO.C,R117*%
X89237258Y-77477500D02*
X88762742Y-77477500D01*
X89237258Y-78522500D02*
X88762742Y-78522500D01*
%TO.C,R110*%
X83762742Y-51022500D02*
X84237258Y-51022500D01*
X83762742Y-49977500D02*
X84237258Y-49977500D01*
%TO.C,R205*%
X101485000Y-53889564D02*
X101485000Y-53435436D01*
X100015000Y-53889564D02*
X100015000Y-53435436D01*
%TO.C,R102*%
X79512742Y-33772500D02*
X79987258Y-33772500D01*
X79512742Y-32727500D02*
X79987258Y-32727500D01*
%TO.C,Q101*%
X88740000Y-62580000D02*
X88740000Y-61650000D01*
X88740000Y-59420000D02*
X88740000Y-60350000D01*
X88740000Y-62580000D02*
X90900000Y-62580000D01*
X88740000Y-59420000D02*
X90200000Y-59420000D01*
%TO.C,R203*%
X107265000Y-53977064D02*
X107265000Y-53522936D01*
X108735000Y-53977064D02*
X108735000Y-53522936D01*
%TO.C,R229*%
X141265000Y-48227064D02*
X141265000Y-47772936D01*
X142735000Y-48227064D02*
X142735000Y-47772936D01*
%TO.C,C103*%
X139661252Y-72735000D02*
X139138748Y-72735000D01*
X139661252Y-71265000D02*
X139138748Y-71265000D01*
%TO.C,R219*%
X136485000Y-48227064D02*
X136485000Y-47772936D01*
X135015000Y-48227064D02*
X135015000Y-47772936D01*
%TO.C,C110*%
X116010000Y-66140580D02*
X116010000Y-65859420D01*
X114990000Y-66140580D02*
X114990000Y-65859420D01*
%TO.C,D105*%
X74700000Y-48150000D02*
X80400000Y-48150000D01*
X74700000Y-43850000D02*
X80400000Y-43850000D01*
X74700000Y-43850000D02*
X74700000Y-48150000D01*
%TO.C,R111*%
X84262742Y-45477500D02*
X84737258Y-45477500D01*
X84262742Y-46522500D02*
X84737258Y-46522500D01*
%TO.C,R122*%
X92277500Y-64837258D02*
X92277500Y-64362742D01*
X93322500Y-64837258D02*
X93322500Y-64362742D01*
%TO.C,J104*%
X71730000Y-53422500D02*
X71730000Y-37902500D01*
X68350000Y-37217500D02*
X67350000Y-37217500D01*
X67350000Y-37217500D02*
X67850000Y-37717500D01*
X71730000Y-53422500D02*
X53770000Y-53422500D01*
X67850000Y-37717500D02*
X68350000Y-37217500D01*
X71730000Y-37902500D02*
X53770000Y-37902500D01*
X53770000Y-37902500D02*
X53770000Y-53422500D01*
%TO.C,R231*%
X142485000Y-20522936D02*
X142485000Y-20977064D01*
X141015000Y-20522936D02*
X141015000Y-20977064D01*
%TO.C,C112*%
X76910000Y-24859420D02*
X76910000Y-25140580D01*
X75890000Y-24859420D02*
X75890000Y-25140580D01*
%TO.C,R209*%
X121015000Y-25772936D02*
X121015000Y-26227064D01*
X122485000Y-25772936D02*
X122485000Y-26227064D01*
%TO.C,C108*%
X119990000Y-66140580D02*
X119990000Y-65859420D01*
X121010000Y-66140580D02*
X121010000Y-65859420D01*
%TO.C,R213*%
X114985000Y-53727064D02*
X114985000Y-53272936D01*
X113515000Y-53727064D02*
X113515000Y-53272936D01*
%TO.C,R211*%
X122485000Y-53727064D02*
X122485000Y-53272936D01*
X121015000Y-53727064D02*
X121015000Y-53272936D01*
%TO.C,C104*%
X132735000Y-67738748D02*
X132735000Y-68261252D01*
X131265000Y-67738748D02*
X131265000Y-68261252D01*
%TO.C,C105*%
X146485000Y-67488748D02*
X146485000Y-68011252D01*
X145015000Y-67488748D02*
X145015000Y-68011252D01*
%TO.C,C101*%
X133235000Y-61761252D02*
X133235000Y-61238748D01*
X131765000Y-61761252D02*
X131765000Y-61238748D01*
%TO.C,C102*%
X135661252Y-71265000D02*
X135138748Y-71265000D01*
X135661252Y-72735000D02*
X135138748Y-72735000D01*
%TO.C,C107*%
X125490000Y-66140580D02*
X125490000Y-65859420D01*
X126510000Y-66140580D02*
X126510000Y-65859420D01*
%TO.C,R108*%
X79512742Y-29727500D02*
X79987258Y-29727500D01*
X79512742Y-30772500D02*
X79987258Y-30772500D01*
%TO.C,U101*%
X81580000Y-23990000D02*
X80650000Y-23990000D01*
X78420000Y-23990000D02*
X79350000Y-23990000D01*
X81580000Y-23990000D02*
X81580000Y-25450000D01*
X78420000Y-23990000D02*
X78420000Y-26150000D01*
%TO.C,U208*%
X141440000Y-54000000D02*
X141440000Y-55950000D01*
X151560000Y-54000000D02*
X151560000Y-50550000D01*
X151560000Y-54000000D02*
X151560000Y-55950000D01*
X141440000Y-54000000D02*
X141440000Y-52050000D01*
D10*
%TO.C,U207*%
X140750000Y-27075000D02*
X140750000Y-41925000D01*
X149350000Y-33650000D02*
X149350000Y-28150000D01*
X143275000Y-41525000D02*
X148775000Y-41525000D01*
X142675000Y-33750000D02*
X142675000Y-28250000D01*
X143175000Y-34450000D02*
X148675000Y-34450000D01*
X142500000Y-40800000D02*
X142500000Y-35300000D01*
X143325000Y-27475000D02*
X148825000Y-27475000D01*
X153250000Y-41925000D02*
X153250000Y-27075000D01*
X149350000Y-40625000D02*
X149350000Y-35125000D01*
X151507367Y-40575000D02*
G75*
G03*
X151507367Y-40575000I-682367J0D01*
G01*
D11*
%TO.C,R103*%
X83762742Y-49022500D02*
X84237258Y-49022500D01*
X83762742Y-47977500D02*
X84237258Y-47977500D01*
%TO.C,U202*%
X110560000Y-59500000D02*
X110560000Y-56050000D01*
X110560000Y-59500000D02*
X110560000Y-61450000D01*
X100440000Y-59500000D02*
X100440000Y-61450000D01*
X100440000Y-59500000D02*
X100440000Y-57550000D01*
%TO.C,R224*%
X139485000Y-48227064D02*
X139485000Y-47772936D01*
X138015000Y-48227064D02*
X138015000Y-47772936D01*
%TO.C,R121*%
X68462742Y-78422500D02*
X68937258Y-78422500D01*
X68462742Y-77377500D02*
X68937258Y-77377500D01*
%TO.C,Q103*%
X81010000Y-56080000D02*
X79550000Y-56080000D01*
X81010000Y-56080000D02*
X81010000Y-55150000D01*
X81010000Y-52920000D02*
X81010000Y-53850000D01*
X81010000Y-52920000D02*
X78850000Y-52920000D01*
%TO.C,R212*%
X117985000Y-53727064D02*
X117985000Y-53272936D01*
X116515000Y-53727064D02*
X116515000Y-53272936D01*
%TO.C,R216*%
X125735000Y-53727064D02*
X125735000Y-53272936D01*
X124265000Y-53727064D02*
X124265000Y-53272936D01*
%TO.C,R217*%
X134765000Y-20522936D02*
X134765000Y-20977064D01*
X136235000Y-20522936D02*
X136235000Y-20977064D01*
%TO.C,R228*%
X144265000Y-48227064D02*
X144265000Y-47772936D01*
X145735000Y-48227064D02*
X145735000Y-47772936D01*
%TO.C,D103*%
X145750000Y-83350000D02*
X145750000Y-79050000D01*
X145750000Y-79050000D02*
X140050000Y-79050000D01*
X145750000Y-83350000D02*
X140050000Y-83350000D01*
%TO.C,R202*%
X110265000Y-25772936D02*
X110265000Y-26227064D01*
X111735000Y-25772936D02*
X111735000Y-26227064D01*
%TO.C,R226*%
X151515000Y-20522936D02*
X151515000Y-20977064D01*
X152985000Y-20522936D02*
X152985000Y-20977064D01*
%TO.C,Q102*%
X92740000Y-62580000D02*
X92740000Y-61650000D01*
X92740000Y-59420000D02*
X94200000Y-59420000D01*
X92740000Y-62580000D02*
X94900000Y-62580000D01*
X92740000Y-59420000D02*
X92740000Y-60350000D01*
%TO.C,R214*%
X117985000Y-25772936D02*
X117985000Y-26227064D01*
X116515000Y-25772936D02*
X116515000Y-26227064D01*
D12*
%TO.C,REF\u002A\u002A*%
X91135000Y-42470000D02*
X90500000Y-42470000D01*
X88595000Y-39930000D02*
X92405000Y-39930000D01*
X92405000Y-39930000D02*
X93040000Y-39930000D01*
X91135000Y-42470000D02*
X92405000Y-42470000D01*
X88595000Y-42470000D02*
X87960000Y-42470000D01*
X90500000Y-39930000D02*
X90500000Y-42470000D01*
X92405000Y-39930000D02*
G75*
G03*
X91770000Y-40565000I0J-635000D01*
G01*
X92405000Y-42470000D02*
G75*
G03*
X93040000Y-41835000I0J635000D01*
G01*
X93040000Y-41835000D02*
G75*
G03*
X92405000Y-41200000I-635000J0D01*
G01*
X91770000Y-40565000D02*
G75*
G03*
X92405000Y-41200000I635000J0D01*
G01*
X88595000Y-39930000D02*
G75*
G03*
X87960000Y-40565000I0J-635000D01*
G01*
X88595000Y-42470000D02*
G75*
G03*
X89230000Y-41835000I0J635000D01*
G01*
X89230000Y-41835000D02*
G75*
G03*
X88595000Y-41200000I-635000J0D01*
G01*
X87960000Y-40565000D02*
G75*
G03*
X88595000Y-41200000I635000J0D01*
G01*
D10*
%TO.C,U203*%
X115825000Y-32975000D02*
X121325000Y-32975000D01*
X113250000Y-32575000D02*
X113250000Y-47425000D01*
X121850000Y-46125000D02*
X121850000Y-40625000D01*
X115000000Y-46300000D02*
X115000000Y-40800000D01*
X115775000Y-47025000D02*
X121275000Y-47025000D01*
X121850000Y-39150000D02*
X121850000Y-33650000D01*
X125750000Y-47425000D02*
X125750000Y-32575000D01*
X115175000Y-39250000D02*
X115175000Y-33750000D01*
X115675000Y-39950000D02*
X121175000Y-39950000D01*
X124007367Y-46075000D02*
G75*
G03*
X124007367Y-46075000I-682367J0D01*
G01*
D11*
%TO.C,R227*%
X148515000Y-48227064D02*
X148515000Y-47772936D01*
X149985000Y-48227064D02*
X149985000Y-47772936D01*
%TO.C,R232*%
X151515000Y-48227064D02*
X151515000Y-47772936D01*
X152985000Y-48227064D02*
X152985000Y-47772936D01*
%TO.C,R225*%
X149985000Y-20522936D02*
X149985000Y-20977064D01*
X148515000Y-20522936D02*
X148515000Y-20977064D01*
%TO.C,R223*%
X129235000Y-20522936D02*
X129235000Y-20977064D01*
X127765000Y-20522936D02*
X127765000Y-20977064D01*
%TO.C,R221*%
X129235000Y-48227064D02*
X129235000Y-47772936D01*
X127765000Y-48227064D02*
X127765000Y-47772936D01*
D10*
%TO.C,U201*%
X101675000Y-39250000D02*
X101675000Y-33750000D01*
X99750000Y-32575000D02*
X99750000Y-47425000D01*
X108350000Y-46125000D02*
X108350000Y-40625000D01*
X102325000Y-32975000D02*
X107825000Y-32975000D01*
X102275000Y-47025000D02*
X107775000Y-47025000D01*
X112250000Y-47425000D02*
X112250000Y-32575000D01*
X102175000Y-39950000D02*
X107675000Y-39950000D01*
X108350000Y-39150000D02*
X108350000Y-33650000D01*
X101500000Y-46300000D02*
X101500000Y-40800000D01*
X110507367Y-46075000D02*
G75*
G03*
X110507367Y-46075000I-682367J0D01*
G01*
%TO.C,SW102*%
X86830000Y-57650000D02*
X76670000Y-57650000D01*
X76670000Y-57650000D02*
X76670000Y-70350000D01*
X76670000Y-70350000D02*
X86830000Y-70350000D01*
X86830000Y-70350000D02*
X86830000Y-57650000D01*
X83020000Y-64000000D02*
G75*
G03*
X83020000Y-64000000I-1270000J0D01*
G01*
D11*
%TO.C,R115*%
X79512742Y-41772500D02*
X79987258Y-41772500D01*
X79512742Y-40727500D02*
X79987258Y-40727500D01*
%TO.C,R210*%
X124015000Y-25772936D02*
X124015000Y-26227064D01*
X125485000Y-25772936D02*
X125485000Y-26227064D01*
%TO.C,R119*%
X124477500Y-71762742D02*
X124477500Y-72237258D01*
X125522500Y-71762742D02*
X125522500Y-72237258D01*
%TO.C,R207*%
X100265000Y-25772936D02*
X100265000Y-26227064D01*
X101735000Y-25772936D02*
X101735000Y-26227064D01*
%TO.C,R230*%
X145485000Y-20522936D02*
X145485000Y-20977064D01*
X144015000Y-20522936D02*
X144015000Y-20977064D01*
%TO.C,R208*%
X110265000Y-53977064D02*
X110265000Y-53522936D01*
X111735000Y-53977064D02*
X111735000Y-53522936D01*
%TO.C,R120*%
X127477500Y-71762742D02*
X127477500Y-72237258D01*
X128522500Y-71762742D02*
X128522500Y-72237258D01*
%TO.C,R215*%
X114985000Y-25772936D02*
X114985000Y-26227064D01*
X113515000Y-25772936D02*
X113515000Y-26227064D01*
D10*
%TO.C,U205*%
X129000000Y-40800000D02*
X129000000Y-35300000D01*
X135850000Y-40625000D02*
X135850000Y-35125000D01*
X127250000Y-27075000D02*
X127250000Y-41925000D01*
X129175000Y-33750000D02*
X129175000Y-28250000D01*
X139750000Y-41925000D02*
X139750000Y-27075000D01*
X135850000Y-33650000D02*
X135850000Y-28150000D01*
X129675000Y-34450000D02*
X135175000Y-34450000D01*
X129775000Y-41525000D02*
X135275000Y-41525000D01*
X129825000Y-27475000D02*
X135325000Y-27475000D01*
X138007367Y-40575000D02*
G75*
G03*
X138007367Y-40575000I-682367J0D01*
G01*
D11*
%TO.C,C111*%
X117490000Y-66140580D02*
X117490000Y-65859420D01*
X118510000Y-66140580D02*
X118510000Y-65859420D01*
%TO.C,R118*%
X122522500Y-71762742D02*
X122522500Y-72237258D01*
X121477500Y-71762742D02*
X121477500Y-72237258D01*
%TO.C,R113*%
X87512742Y-53272500D02*
X87987258Y-53272500D01*
X87512742Y-52227500D02*
X87987258Y-52227500D01*
%TO.C,U204*%
X124060000Y-59500000D02*
X124060000Y-56050000D01*
X113940000Y-59500000D02*
X113940000Y-61450000D01*
X124060000Y-59500000D02*
X124060000Y-61450000D01*
X113940000Y-59500000D02*
X113940000Y-57550000D01*
%TO.C,F102*%
X60355000Y-74276263D02*
X60355000Y-75723737D01*
X57645000Y-74276263D02*
X57645000Y-75723737D01*
%TO.C,R204*%
X103015000Y-53889564D02*
X103015000Y-53435436D01*
X104485000Y-53889564D02*
X104485000Y-53435436D01*
%TO.C,R107*%
X75262742Y-30772500D02*
X75737258Y-30772500D01*
X75262742Y-29727500D02*
X75737258Y-29727500D01*
%TO.C,U102*%
X144260000Y-64500000D02*
X144260000Y-60640000D01*
X133740000Y-60640000D02*
X133995000Y-60640000D01*
X133995000Y-68360000D02*
X133995000Y-70175000D01*
X133740000Y-68360000D02*
X133995000Y-68360000D01*
X133740000Y-64500000D02*
X133740000Y-68360000D01*
X133740000Y-64500000D02*
X133740000Y-60640000D01*
X144260000Y-64500000D02*
X144260000Y-68360000D01*
X144260000Y-68360000D02*
X144005000Y-68360000D01*
X144260000Y-60640000D02*
X144005000Y-60640000D01*
%TO.C,R222*%
X130765000Y-20522936D02*
X130765000Y-20977064D01*
X132235000Y-20522936D02*
X132235000Y-20977064D01*
D10*
%TO.C,SW101*%
X74830000Y-57650000D02*
X64670000Y-57650000D01*
X64670000Y-57650000D02*
X64670000Y-70350000D01*
X64670000Y-70350000D02*
X74830000Y-70350000D01*
X74830000Y-70350000D02*
X74830000Y-57650000D01*
X71020000Y-64000000D02*
G75*
G03*
X71020000Y-64000000I-1270000J0D01*
G01*
D11*
%TO.C,D106*%
X86265000Y-56485000D02*
X88550000Y-56485000D01*
X86265000Y-55015000D02*
X86265000Y-56485000D01*
X88550000Y-55015000D02*
X86265000Y-55015000D01*
%TO.C,R220*%
X132235000Y-48227064D02*
X132235000Y-47772936D01*
X130765000Y-48227064D02*
X130765000Y-47772936D01*
%TO.C,R112*%
X89737258Y-65522500D02*
X89262742Y-65522500D01*
X89737258Y-64477500D02*
X89262742Y-64477500D01*
%TD*%
M02*
