%TF.GenerationSoftware,KiCad,Pcbnew,(5.99.0-11737-gca42f31bb5)*%
%TF.CreationDate,2021-09-24T22:35:00+02:00*%
%TF.ProjectId,Drucksensor,44727563-6b73-4656-9e73-6f722e6b6963,rev?*%
%TF.SameCoordinates,Original*%
%TF.FileFunction,Legend,Bot*%
%TF.FilePolarity,Positive*%
%FSLAX46Y46*%
G04 Gerber Fmt 4.6, Leading zero omitted, Abs format (unit mm)*
G04 Created by KiCad (PCBNEW (5.99.0-11737-gca42f31bb5)) date 2021-09-24 22:35:00*
%MOMM*%
%LPD*%
G01*
G04 APERTURE LIST*
%ADD10C,0.150000*%
%ADD11C,0.120000*%
G04 APERTURE END LIST*
D10*
X72528571Y-80938095D02*
X72528571Y-80604761D01*
X73052380Y-80604761D02*
X72052380Y-80604761D01*
X72052380Y-81080952D01*
X73052380Y-81890476D02*
X72528571Y-81890476D01*
X72433333Y-81842857D01*
X72385714Y-81747619D01*
X72385714Y-81557142D01*
X72433333Y-81461904D01*
X73004761Y-81890476D02*
X73052380Y-81795238D01*
X73052380Y-81557142D01*
X73004761Y-81461904D01*
X72909523Y-81414285D01*
X72814285Y-81414285D01*
X72719047Y-81461904D01*
X72671428Y-81557142D01*
X72671428Y-81795238D01*
X72623809Y-81890476D01*
X72385714Y-82366666D02*
X73052380Y-82366666D01*
X72480952Y-82366666D02*
X72433333Y-82414285D01*
X72385714Y-82509523D01*
X72385714Y-82652380D01*
X72433333Y-82747619D01*
X72528571Y-82795238D01*
X73052380Y-82795238D01*
X70971428Y-75752380D02*
X70400000Y-75752380D01*
X70685714Y-76752380D02*
X70685714Y-75752380D01*
X69638095Y-76752380D02*
X69638095Y-76228571D01*
X69685714Y-76133333D01*
X69780952Y-76085714D01*
X69971428Y-76085714D01*
X70066666Y-76133333D01*
X69638095Y-76704761D02*
X69733333Y-76752380D01*
X69971428Y-76752380D01*
X70066666Y-76704761D01*
X70114285Y-76609523D01*
X70114285Y-76514285D01*
X70066666Y-76419047D01*
X69971428Y-76371428D01*
X69733333Y-76371428D01*
X69638095Y-76323809D01*
X68733333Y-76704761D02*
X68828571Y-76752380D01*
X69019047Y-76752380D01*
X69114285Y-76704761D01*
X69161904Y-76657142D01*
X69209523Y-76561904D01*
X69209523Y-76276190D01*
X69161904Y-76180952D01*
X69114285Y-76133333D01*
X69019047Y-76085714D01*
X68828571Y-76085714D01*
X68733333Y-76133333D01*
X68304761Y-76752380D02*
X68304761Y-75752380D01*
X67876190Y-76752380D02*
X67876190Y-76228571D01*
X67923809Y-76133333D01*
X68019047Y-76085714D01*
X68161904Y-76085714D01*
X68257142Y-76133333D01*
X68304761Y-76180952D01*
X67257142Y-76752380D02*
X67352380Y-76704761D01*
X67400000Y-76657142D01*
X67447619Y-76561904D01*
X67447619Y-76276190D01*
X67400000Y-76180952D01*
X67352380Y-76133333D01*
X67257142Y-76085714D01*
X67114285Y-76085714D01*
X67019047Y-76133333D01*
X66971428Y-76180952D01*
X66923809Y-76276190D01*
X66923809Y-76561904D01*
X66971428Y-76657142D01*
X67019047Y-76704761D01*
X67114285Y-76752380D01*
X67257142Y-76752380D01*
X70890476Y-73447619D02*
X70842857Y-73400000D01*
X70747619Y-73352380D01*
X70509523Y-73352380D01*
X70414285Y-73400000D01*
X70366666Y-73447619D01*
X70319047Y-73542857D01*
X70319047Y-73638095D01*
X70366666Y-73780952D01*
X70938095Y-74352380D01*
X70319047Y-74352380D01*
X69461904Y-73685714D02*
X69461904Y-74352380D01*
X69700000Y-73304761D02*
X69938095Y-74019047D01*
X69319047Y-74019047D01*
X69080952Y-73352380D02*
X68747619Y-74352380D01*
X68414285Y-73352380D01*
X149614285Y-70695238D02*
X149519047Y-70600000D01*
X149328571Y-70504761D01*
X148852380Y-70504761D01*
X148661904Y-70600000D01*
X148566666Y-70695238D01*
X148471428Y-70885714D01*
X148471428Y-71076190D01*
X148566666Y-71361904D01*
X149709523Y-72504761D01*
X148471428Y-72504761D01*
X146757142Y-71171428D02*
X146757142Y-72504761D01*
X147233333Y-70409523D02*
X147709523Y-71838095D01*
X146471428Y-71838095D01*
X145995238Y-70504761D02*
X145328571Y-72504761D01*
X144661904Y-70504761D01*
X138376190Y-70600000D02*
X138566666Y-70504761D01*
X138852380Y-70504761D01*
X139138095Y-70600000D01*
X139328571Y-70790476D01*
X139423809Y-70980952D01*
X139519047Y-71361904D01*
X139519047Y-71647619D01*
X139423809Y-72028571D01*
X139328571Y-72219047D01*
X139138095Y-72409523D01*
X138852380Y-72504761D01*
X138661904Y-72504761D01*
X138376190Y-72409523D01*
X138280952Y-72314285D01*
X138280952Y-71647619D01*
X138661904Y-71647619D01*
X137423809Y-72504761D02*
X137423809Y-70504761D01*
X136280952Y-72504761D01*
X136280952Y-70504761D01*
X135328571Y-72504761D02*
X135328571Y-70504761D01*
X134852380Y-70504761D01*
X134566666Y-70600000D01*
X134376190Y-70790476D01*
X134280952Y-70980952D01*
X134185714Y-71361904D01*
X134185714Y-71647619D01*
X134280952Y-72028571D01*
X134376190Y-72219047D01*
X134566666Y-72409523D01*
X134852380Y-72504761D01*
X135328571Y-72504761D01*
X149514285Y-81495238D02*
X149419047Y-81400000D01*
X149228571Y-81304761D01*
X148752380Y-81304761D01*
X148561904Y-81400000D01*
X148466666Y-81495238D01*
X148371428Y-81685714D01*
X148371428Y-81876190D01*
X148466666Y-82161904D01*
X149609523Y-83304761D01*
X148371428Y-83304761D01*
X146657142Y-81971428D02*
X146657142Y-83304761D01*
X147133333Y-81209523D02*
X147609523Y-82638095D01*
X146371428Y-82638095D01*
X145895238Y-81304761D02*
X145228571Y-83304761D01*
X144561904Y-81304761D01*
X138276190Y-81400000D02*
X138466666Y-81304761D01*
X138752380Y-81304761D01*
X139038095Y-81400000D01*
X139228571Y-81590476D01*
X139323809Y-81780952D01*
X139419047Y-82161904D01*
X139419047Y-82447619D01*
X139323809Y-82828571D01*
X139228571Y-83019047D01*
X139038095Y-83209523D01*
X138752380Y-83304761D01*
X138561904Y-83304761D01*
X138276190Y-83209523D01*
X138180952Y-83114285D01*
X138180952Y-82447619D01*
X138561904Y-82447619D01*
X137323809Y-83304761D02*
X137323809Y-81304761D01*
X136180952Y-83304761D01*
X136180952Y-81304761D01*
X135228571Y-83304761D02*
X135228571Y-81304761D01*
X134752380Y-81304761D01*
X134466666Y-81400000D01*
X134276190Y-81590476D01*
X134180952Y-81780952D01*
X134085714Y-82161904D01*
X134085714Y-82447619D01*
X134180952Y-82828571D01*
X134276190Y-83019047D01*
X134466666Y-83209523D01*
X134752380Y-83304761D01*
X135228571Y-83304761D01*
X127433333Y-26428571D02*
X127290476Y-26476190D01*
X127242857Y-26523809D01*
X127195238Y-26619047D01*
X127195238Y-26761904D01*
X127242857Y-26857142D01*
X127290476Y-26904761D01*
X127385714Y-26952380D01*
X127766666Y-26952380D01*
X127766666Y-25952380D01*
X127433333Y-25952380D01*
X127338095Y-26000000D01*
X127290476Y-26047619D01*
X127242857Y-26142857D01*
X127242857Y-26238095D01*
X127290476Y-26333333D01*
X127338095Y-26380952D01*
X127433333Y-26428571D01*
X127766666Y-26428571D01*
X126766666Y-26952380D02*
X126766666Y-26285714D01*
X126766666Y-26476190D02*
X126719047Y-26380952D01*
X126671428Y-26333333D01*
X126576190Y-26285714D01*
X126480952Y-26285714D01*
X126147619Y-26952380D02*
X126147619Y-26285714D01*
X126147619Y-25952380D02*
X126195238Y-26000000D01*
X126147619Y-26047619D01*
X126100000Y-26000000D01*
X126147619Y-25952380D01*
X126147619Y-26047619D01*
X125242857Y-26952380D02*
X125242857Y-25952380D01*
X125242857Y-26904761D02*
X125338095Y-26952380D01*
X125528571Y-26952380D01*
X125623809Y-26904761D01*
X125671428Y-26857142D01*
X125719047Y-26761904D01*
X125719047Y-26476190D01*
X125671428Y-26380952D01*
X125623809Y-26333333D01*
X125528571Y-26285714D01*
X125338095Y-26285714D01*
X125242857Y-26333333D01*
X124338095Y-26285714D02*
X124338095Y-27095238D01*
X124385714Y-27190476D01*
X124433333Y-27238095D01*
X124528571Y-27285714D01*
X124671428Y-27285714D01*
X124766666Y-27238095D01*
X124338095Y-26904761D02*
X124433333Y-26952380D01*
X124623809Y-26952380D01*
X124719047Y-26904761D01*
X124766666Y-26857142D01*
X124814285Y-26761904D01*
X124814285Y-26476190D01*
X124766666Y-26380952D01*
X124719047Y-26333333D01*
X124623809Y-26285714D01*
X124433333Y-26285714D01*
X124338095Y-26333333D01*
X123480952Y-26904761D02*
X123576190Y-26952380D01*
X123766666Y-26952380D01*
X123861904Y-26904761D01*
X123909523Y-26809523D01*
X123909523Y-26428571D01*
X123861904Y-26333333D01*
X123766666Y-26285714D01*
X123576190Y-26285714D01*
X123480952Y-26333333D01*
X123433333Y-26428571D01*
X123433333Y-26523809D01*
X123909523Y-26619047D01*
X122385714Y-26285714D02*
X122004761Y-26285714D01*
X122242857Y-26952380D02*
X122242857Y-26095238D01*
X122195238Y-26000000D01*
X122100000Y-25952380D01*
X122004761Y-25952380D01*
X121528571Y-26952380D02*
X121623809Y-26904761D01*
X121671428Y-26857142D01*
X121719047Y-26761904D01*
X121719047Y-26476190D01*
X121671428Y-26380952D01*
X121623809Y-26333333D01*
X121528571Y-26285714D01*
X121385714Y-26285714D01*
X121290476Y-26333333D01*
X121242857Y-26380952D01*
X121195238Y-26476190D01*
X121195238Y-26761904D01*
X121242857Y-26857142D01*
X121290476Y-26904761D01*
X121385714Y-26952380D01*
X121528571Y-26952380D01*
X120766666Y-26952380D02*
X120766666Y-26285714D01*
X120766666Y-26476190D02*
X120719047Y-26380952D01*
X120671428Y-26333333D01*
X120576190Y-26285714D01*
X120480952Y-26285714D01*
X118814285Y-26952380D02*
X119147619Y-26476190D01*
X119385714Y-26952380D02*
X119385714Y-25952380D01*
X119004761Y-25952380D01*
X118909523Y-26000000D01*
X118861904Y-26047619D01*
X118814285Y-26142857D01*
X118814285Y-26285714D01*
X118861904Y-26380952D01*
X118909523Y-26428571D01*
X119004761Y-26476190D01*
X119385714Y-26476190D01*
X118480952Y-25952380D02*
X117814285Y-26952380D01*
X117814285Y-25952380D02*
X118480952Y-26952380D01*
X116719047Y-25904761D02*
X117576190Y-27190476D01*
X116528571Y-25952380D02*
X115957142Y-25952380D01*
X116242857Y-26952380D02*
X116242857Y-25952380D01*
X115719047Y-25952380D02*
X115052380Y-26952380D01*
X115052380Y-25952380D02*
X115719047Y-26952380D01*
X114909523Y-27047619D02*
X114147619Y-27047619D01*
X113719047Y-25952380D02*
X113623809Y-25952380D01*
X113528571Y-26000000D01*
X113480952Y-26047619D01*
X113433333Y-26142857D01*
X113385714Y-26333333D01*
X113385714Y-26571428D01*
X113433333Y-26761904D01*
X113480952Y-26857142D01*
X113528571Y-26904761D01*
X113623809Y-26952380D01*
X113719047Y-26952380D01*
X113814285Y-26904761D01*
X113861904Y-26857142D01*
X113909523Y-26761904D01*
X113957142Y-26571428D01*
X113957142Y-26333333D01*
X113909523Y-26142857D01*
X113861904Y-26047619D01*
X113814285Y-26000000D01*
X113719047Y-25952380D01*
X153452380Y-63130952D02*
X153452380Y-63702380D01*
X154452380Y-63416666D02*
X153452380Y-63416666D01*
X153452380Y-63940476D02*
X154452380Y-64607142D01*
X153452380Y-64607142D02*
X154452380Y-63940476D01*
X154452380Y-66321428D02*
X153976190Y-65988095D01*
X154452380Y-65750000D02*
X153452380Y-65750000D01*
X153452380Y-66130952D01*
X153500000Y-66226190D01*
X153547619Y-66273809D01*
X153642857Y-66321428D01*
X153785714Y-66321428D01*
X153880952Y-66273809D01*
X153928571Y-66226190D01*
X153976190Y-66130952D01*
X153976190Y-65750000D01*
X153452380Y-66654761D02*
X154452380Y-67321428D01*
X153452380Y-67321428D02*
X154452380Y-66654761D01*
X70161904Y-78400000D02*
X70257142Y-78352380D01*
X70400000Y-78352380D01*
X70542857Y-78400000D01*
X70638095Y-78495238D01*
X70685714Y-78590476D01*
X70733333Y-78780952D01*
X70733333Y-78923809D01*
X70685714Y-79114285D01*
X70638095Y-79209523D01*
X70542857Y-79304761D01*
X70400000Y-79352380D01*
X70304761Y-79352380D01*
X70161904Y-79304761D01*
X70114285Y-79257142D01*
X70114285Y-78923809D01*
X70304761Y-78923809D01*
X69685714Y-79352380D02*
X69685714Y-78352380D01*
X69114285Y-79352380D01*
X69114285Y-78352380D01*
X68638095Y-79352380D02*
X68638095Y-78352380D01*
X68400000Y-78352380D01*
X68257142Y-78400000D01*
X68161904Y-78495238D01*
X68114285Y-78590476D01*
X68066666Y-78780952D01*
X68066666Y-78923809D01*
X68114285Y-79114285D01*
X68161904Y-79209523D01*
X68257142Y-79304761D01*
X68400000Y-79352380D01*
X68638095Y-79352380D01*
X77804761Y-72195238D02*
X77852380Y-72338095D01*
X77852380Y-72576190D01*
X77804761Y-72671428D01*
X77757142Y-72719047D01*
X77661904Y-72766666D01*
X77566666Y-72766666D01*
X77471428Y-72719047D01*
X77423809Y-72671428D01*
X77376190Y-72576190D01*
X77328571Y-72385714D01*
X77280952Y-72290476D01*
X77233333Y-72242857D01*
X77138095Y-72195238D01*
X77042857Y-72195238D01*
X76947619Y-72242857D01*
X76900000Y-72290476D01*
X76852380Y-72385714D01*
X76852380Y-72623809D01*
X76900000Y-72766666D01*
X77185714Y-73100000D02*
X77852380Y-73290476D01*
X77376190Y-73480952D01*
X77852380Y-73671428D01*
X77185714Y-73861904D01*
X77852380Y-74242857D02*
X77185714Y-74242857D01*
X76852380Y-74242857D02*
X76900000Y-74195238D01*
X76947619Y-74242857D01*
X76900000Y-74290476D01*
X76852380Y-74242857D01*
X76947619Y-74242857D01*
X77185714Y-74576190D02*
X77185714Y-74957142D01*
X76852380Y-74719047D02*
X77709523Y-74719047D01*
X77804761Y-74766666D01*
X77852380Y-74861904D01*
X77852380Y-74957142D01*
X77804761Y-75719047D02*
X77852380Y-75623809D01*
X77852380Y-75433333D01*
X77804761Y-75338095D01*
X77757142Y-75290476D01*
X77661904Y-75242857D01*
X77376190Y-75242857D01*
X77280952Y-75290476D01*
X77233333Y-75338095D01*
X77185714Y-75433333D01*
X77185714Y-75623809D01*
X77233333Y-75719047D01*
X77852380Y-76147619D02*
X76852380Y-76147619D01*
X77852380Y-76576190D02*
X77328571Y-76576190D01*
X77233333Y-76528571D01*
X77185714Y-76433333D01*
X77185714Y-76290476D01*
X77233333Y-76195238D01*
X77280952Y-76147619D01*
X77947619Y-76814285D02*
X77947619Y-77576190D01*
X77804761Y-77766666D02*
X77852380Y-77909523D01*
X77852380Y-78147619D01*
X77804761Y-78242857D01*
X77757142Y-78290476D01*
X77661904Y-78338095D01*
X77566666Y-78338095D01*
X77471428Y-78290476D01*
X77423809Y-78242857D01*
X77376190Y-78147619D01*
X77328571Y-77957142D01*
X77280952Y-77861904D01*
X77233333Y-77814285D01*
X77138095Y-77766666D01*
X77042857Y-77766666D01*
X76947619Y-77814285D01*
X76900000Y-77861904D01*
X76852380Y-77957142D01*
X76852380Y-78195238D01*
X76900000Y-78338095D01*
X77185714Y-78623809D02*
X77185714Y-79004761D01*
X76852380Y-78766666D02*
X77709523Y-78766666D01*
X77804761Y-78814285D01*
X77852380Y-78909523D01*
X77852380Y-79004761D01*
X77852380Y-79766666D02*
X77328571Y-79766666D01*
X77233333Y-79719047D01*
X77185714Y-79623809D01*
X77185714Y-79433333D01*
X77233333Y-79338095D01*
X77804761Y-79766666D02*
X77852380Y-79671428D01*
X77852380Y-79433333D01*
X77804761Y-79338095D01*
X77709523Y-79290476D01*
X77614285Y-79290476D01*
X77519047Y-79338095D01*
X77471428Y-79433333D01*
X77471428Y-79671428D01*
X77423809Y-79766666D01*
X77852380Y-80242857D02*
X77185714Y-80242857D01*
X77376190Y-80242857D02*
X77280952Y-80290476D01*
X77233333Y-80338095D01*
X77185714Y-80433333D01*
X77185714Y-80528571D01*
X77185714Y-80719047D02*
X77185714Y-81100000D01*
X76852380Y-80861904D02*
X77709523Y-80861904D01*
X77804761Y-80909523D01*
X77852380Y-81004761D01*
X77852380Y-81100000D01*
X87052380Y-72323809D02*
X87766666Y-72323809D01*
X87909523Y-72276190D01*
X88004761Y-72180952D01*
X88052380Y-72038095D01*
X88052380Y-71942857D01*
X87385714Y-73228571D02*
X88052380Y-73228571D01*
X87385714Y-72800000D02*
X87909523Y-72800000D01*
X88004761Y-72847619D01*
X88052380Y-72942857D01*
X88052380Y-73085714D01*
X88004761Y-73180952D01*
X87957142Y-73228571D01*
X88052380Y-73704761D02*
X87385714Y-73704761D01*
X87480952Y-73704761D02*
X87433333Y-73752380D01*
X87385714Y-73847619D01*
X87385714Y-73990476D01*
X87433333Y-74085714D01*
X87528571Y-74133333D01*
X88052380Y-74133333D01*
X87528571Y-74133333D02*
X87433333Y-74180952D01*
X87385714Y-74276190D01*
X87385714Y-74419047D01*
X87433333Y-74514285D01*
X87528571Y-74561904D01*
X88052380Y-74561904D01*
X87385714Y-75038095D02*
X88385714Y-75038095D01*
X87433333Y-75038095D02*
X87385714Y-75133333D01*
X87385714Y-75323809D01*
X87433333Y-75419047D01*
X87480952Y-75466666D01*
X87576190Y-75514285D01*
X87861904Y-75514285D01*
X87957142Y-75466666D01*
X88004761Y-75419047D01*
X88052380Y-75323809D01*
X88052380Y-75133333D01*
X88004761Y-75038095D01*
X88147619Y-75704761D02*
X88147619Y-76466666D01*
X88004761Y-76657142D02*
X88052380Y-76800000D01*
X88052380Y-77038095D01*
X88004761Y-77133333D01*
X87957142Y-77180952D01*
X87861904Y-77228571D01*
X87766666Y-77228571D01*
X87671428Y-77180952D01*
X87623809Y-77133333D01*
X87576190Y-77038095D01*
X87528571Y-76847619D01*
X87480952Y-76752380D01*
X87433333Y-76704761D01*
X87338095Y-76657142D01*
X87242857Y-76657142D01*
X87147619Y-76704761D01*
X87100000Y-76752380D01*
X87052380Y-76847619D01*
X87052380Y-77085714D01*
X87100000Y-77228571D01*
X88004761Y-78038095D02*
X88052380Y-77942857D01*
X88052380Y-77752380D01*
X88004761Y-77657142D01*
X87909523Y-77609523D01*
X87528571Y-77609523D01*
X87433333Y-77657142D01*
X87385714Y-77752380D01*
X87385714Y-77942857D01*
X87433333Y-78038095D01*
X87528571Y-78085714D01*
X87623809Y-78085714D01*
X87719047Y-77609523D01*
X88052380Y-78514285D02*
X87385714Y-78514285D01*
X87576190Y-78514285D02*
X87480952Y-78561904D01*
X87433333Y-78609523D01*
X87385714Y-78704761D01*
X87385714Y-78800000D01*
X88052380Y-79133333D02*
X87385714Y-79133333D01*
X87052380Y-79133333D02*
X87100000Y-79085714D01*
X87147619Y-79133333D01*
X87100000Y-79180952D01*
X87052380Y-79133333D01*
X87147619Y-79133333D01*
X88052380Y-80038095D02*
X87528571Y-80038095D01*
X87433333Y-79990476D01*
X87385714Y-79895238D01*
X87385714Y-79704761D01*
X87433333Y-79609523D01*
X88004761Y-80038095D02*
X88052380Y-79942857D01*
X88052380Y-79704761D01*
X88004761Y-79609523D01*
X87909523Y-79561904D01*
X87814285Y-79561904D01*
X87719047Y-79609523D01*
X87671428Y-79704761D01*
X87671428Y-79942857D01*
X87623809Y-80038095D01*
X88052380Y-80657142D02*
X88004761Y-80561904D01*
X87909523Y-80514285D01*
X87052380Y-80514285D01*
X154250000Y-57623571D02*
X154107142Y-57671190D01*
X154059523Y-57718809D01*
X154011904Y-57814047D01*
X154011904Y-57956904D01*
X154059523Y-58052142D01*
X154107142Y-58099761D01*
X154202380Y-58147380D01*
X154583333Y-58147380D01*
X154583333Y-57147380D01*
X154250000Y-57147380D01*
X154154761Y-57195000D01*
X154107142Y-57242619D01*
X154059523Y-57337857D01*
X154059523Y-57433095D01*
X154107142Y-57528333D01*
X154154761Y-57575952D01*
X154250000Y-57623571D01*
X154583333Y-57623571D01*
X153583333Y-58147380D02*
X153583333Y-57480714D01*
X153583333Y-57671190D02*
X153535714Y-57575952D01*
X153488095Y-57528333D01*
X153392857Y-57480714D01*
X153297619Y-57480714D01*
X152964285Y-58147380D02*
X152964285Y-57480714D01*
X152964285Y-57147380D02*
X153011904Y-57195000D01*
X152964285Y-57242619D01*
X152916666Y-57195000D01*
X152964285Y-57147380D01*
X152964285Y-57242619D01*
X152059523Y-58147380D02*
X152059523Y-57147380D01*
X152059523Y-58099761D02*
X152154761Y-58147380D01*
X152345238Y-58147380D01*
X152440476Y-58099761D01*
X152488095Y-58052142D01*
X152535714Y-57956904D01*
X152535714Y-57671190D01*
X152488095Y-57575952D01*
X152440476Y-57528333D01*
X152345238Y-57480714D01*
X152154761Y-57480714D01*
X152059523Y-57528333D01*
X151154761Y-57480714D02*
X151154761Y-58290238D01*
X151202380Y-58385476D01*
X151250000Y-58433095D01*
X151345238Y-58480714D01*
X151488095Y-58480714D01*
X151583333Y-58433095D01*
X151154761Y-58099761D02*
X151250000Y-58147380D01*
X151440476Y-58147380D01*
X151535714Y-58099761D01*
X151583333Y-58052142D01*
X151630952Y-57956904D01*
X151630952Y-57671190D01*
X151583333Y-57575952D01*
X151535714Y-57528333D01*
X151440476Y-57480714D01*
X151250000Y-57480714D01*
X151154761Y-57528333D01*
X150297619Y-58099761D02*
X150392857Y-58147380D01*
X150583333Y-58147380D01*
X150678571Y-58099761D01*
X150726190Y-58004523D01*
X150726190Y-57623571D01*
X150678571Y-57528333D01*
X150583333Y-57480714D01*
X150392857Y-57480714D01*
X150297619Y-57528333D01*
X150250000Y-57623571D01*
X150250000Y-57718809D01*
X150726190Y-57814047D01*
X149202380Y-57480714D02*
X148821428Y-57480714D01*
X149059523Y-58147380D02*
X149059523Y-57290238D01*
X149011904Y-57195000D01*
X148916666Y-57147380D01*
X148821428Y-57147380D01*
X148345238Y-58147380D02*
X148440476Y-58099761D01*
X148488095Y-58052142D01*
X148535714Y-57956904D01*
X148535714Y-57671190D01*
X148488095Y-57575952D01*
X148440476Y-57528333D01*
X148345238Y-57480714D01*
X148202380Y-57480714D01*
X148107142Y-57528333D01*
X148059523Y-57575952D01*
X148011904Y-57671190D01*
X148011904Y-57956904D01*
X148059523Y-58052142D01*
X148107142Y-58099761D01*
X148202380Y-58147380D01*
X148345238Y-58147380D01*
X147583333Y-58147380D02*
X147583333Y-57480714D01*
X147583333Y-57671190D02*
X147535714Y-57575952D01*
X147488095Y-57528333D01*
X147392857Y-57480714D01*
X147297619Y-57480714D01*
X145773809Y-58147380D02*
X145773809Y-57147380D01*
X145773809Y-58099761D02*
X145869047Y-58147380D01*
X146059523Y-58147380D01*
X146154761Y-58099761D01*
X146202380Y-58052142D01*
X146250000Y-57956904D01*
X146250000Y-57671190D01*
X146202380Y-57575952D01*
X146154761Y-57528333D01*
X146059523Y-57480714D01*
X145869047Y-57480714D01*
X145773809Y-57528333D01*
X145297619Y-58147380D02*
X145297619Y-57480714D01*
X145297619Y-57147380D02*
X145345238Y-57195000D01*
X145297619Y-57242619D01*
X145250000Y-57195000D01*
X145297619Y-57147380D01*
X145297619Y-57242619D01*
X144821428Y-58147380D02*
X144821428Y-57480714D01*
X144821428Y-57671190D02*
X144773809Y-57575952D01*
X144726190Y-57528333D01*
X144630952Y-57480714D01*
X144535714Y-57480714D01*
X143821428Y-58099761D02*
X143916666Y-58147380D01*
X144107142Y-58147380D01*
X144202380Y-58099761D01*
X144250000Y-58004523D01*
X144250000Y-57623571D01*
X144202380Y-57528333D01*
X144107142Y-57480714D01*
X143916666Y-57480714D01*
X143821428Y-57528333D01*
X143773809Y-57623571D01*
X143773809Y-57718809D01*
X144250000Y-57814047D01*
X142916666Y-58099761D02*
X143011904Y-58147380D01*
X143202380Y-58147380D01*
X143297619Y-58099761D01*
X143345238Y-58052142D01*
X143392857Y-57956904D01*
X143392857Y-57671190D01*
X143345238Y-57575952D01*
X143297619Y-57528333D01*
X143202380Y-57480714D01*
X143011904Y-57480714D01*
X142916666Y-57528333D01*
X142630952Y-57480714D02*
X142250000Y-57480714D01*
X142488095Y-57147380D02*
X142488095Y-58004523D01*
X142440476Y-58099761D01*
X142345238Y-58147380D01*
X142250000Y-58147380D01*
X140583333Y-58147380D02*
X140916666Y-57671190D01*
X141154761Y-58147380D02*
X141154761Y-57147380D01*
X140773809Y-57147380D01*
X140678571Y-57195000D01*
X140630952Y-57242619D01*
X140583333Y-57337857D01*
X140583333Y-57480714D01*
X140630952Y-57575952D01*
X140678571Y-57623571D01*
X140773809Y-57671190D01*
X141154761Y-57671190D01*
X140250000Y-57147380D02*
X139583333Y-58147380D01*
X139583333Y-57147380D02*
X140250000Y-58147380D01*
X138488095Y-57099761D02*
X139345238Y-58385476D01*
X138297619Y-57147380D02*
X137726190Y-57147380D01*
X138011904Y-58147380D02*
X138011904Y-57147380D01*
X137488095Y-57147380D02*
X136821428Y-58147380D01*
X136821428Y-57147380D02*
X137488095Y-58147380D01*
X151392857Y-58757380D02*
X151202380Y-58757380D01*
X151107142Y-58805000D01*
X151011904Y-58900238D01*
X150964285Y-59090714D01*
X150964285Y-59424047D01*
X151011904Y-59614523D01*
X151107142Y-59709761D01*
X151202380Y-59757380D01*
X151392857Y-59757380D01*
X151488095Y-59709761D01*
X151583333Y-59614523D01*
X151630952Y-59424047D01*
X151630952Y-59090714D01*
X151583333Y-58900238D01*
X151488095Y-58805000D01*
X151392857Y-58757380D01*
X150535714Y-59090714D02*
X150535714Y-60090714D01*
X150535714Y-59138333D02*
X150440476Y-59090714D01*
X150250000Y-59090714D01*
X150154761Y-59138333D01*
X150107142Y-59185952D01*
X150059523Y-59281190D01*
X150059523Y-59566904D01*
X150107142Y-59662142D01*
X150154761Y-59709761D01*
X150250000Y-59757380D01*
X150440476Y-59757380D01*
X150535714Y-59709761D01*
X149250000Y-59709761D02*
X149345238Y-59757380D01*
X149535714Y-59757380D01*
X149630952Y-59709761D01*
X149678571Y-59614523D01*
X149678571Y-59233571D01*
X149630952Y-59138333D01*
X149535714Y-59090714D01*
X149345238Y-59090714D01*
X149250000Y-59138333D01*
X149202380Y-59233571D01*
X149202380Y-59328809D01*
X149678571Y-59424047D01*
X148773809Y-59090714D02*
X148773809Y-59757380D01*
X148773809Y-59185952D02*
X148726190Y-59138333D01*
X148630952Y-59090714D01*
X148488095Y-59090714D01*
X148392857Y-59138333D01*
X148345238Y-59233571D01*
X148345238Y-59757380D01*
X147250000Y-59090714D02*
X146869047Y-59090714D01*
X147107142Y-59757380D02*
X147107142Y-58900238D01*
X147059523Y-58805000D01*
X146964285Y-58757380D01*
X146869047Y-58757380D01*
X146392857Y-59757380D02*
X146488095Y-59709761D01*
X146535714Y-59662142D01*
X146583333Y-59566904D01*
X146583333Y-59281190D01*
X146535714Y-59185952D01*
X146488095Y-59138333D01*
X146392857Y-59090714D01*
X146250000Y-59090714D01*
X146154761Y-59138333D01*
X146107142Y-59185952D01*
X146059523Y-59281190D01*
X146059523Y-59566904D01*
X146107142Y-59662142D01*
X146154761Y-59709761D01*
X146250000Y-59757380D01*
X146392857Y-59757380D01*
X145630952Y-59757380D02*
X145630952Y-59090714D01*
X145630952Y-59281190D02*
X145583333Y-59185952D01*
X145535714Y-59138333D01*
X145440476Y-59090714D01*
X145345238Y-59090714D01*
X143678571Y-59757380D02*
X144011904Y-59281190D01*
X144250000Y-59757380D02*
X144250000Y-58757380D01*
X143869047Y-58757380D01*
X143773809Y-58805000D01*
X143726190Y-58852619D01*
X143678571Y-58947857D01*
X143678571Y-59090714D01*
X143726190Y-59185952D01*
X143773809Y-59233571D01*
X143869047Y-59281190D01*
X144250000Y-59281190D01*
X143297619Y-59709761D02*
X143154761Y-59757380D01*
X142916666Y-59757380D01*
X142821428Y-59709761D01*
X142773809Y-59662142D01*
X142726190Y-59566904D01*
X142726190Y-59471666D01*
X142773809Y-59376428D01*
X142821428Y-59328809D01*
X142916666Y-59281190D01*
X143107142Y-59233571D01*
X143202380Y-59185952D01*
X143250000Y-59138333D01*
X143297619Y-59043095D01*
X143297619Y-58947857D01*
X143250000Y-58852619D01*
X143202380Y-58805000D01*
X143107142Y-58757380D01*
X142869047Y-58757380D01*
X142726190Y-58805000D01*
X142345238Y-58852619D02*
X142297619Y-58805000D01*
X142202380Y-58757380D01*
X141964285Y-58757380D01*
X141869047Y-58805000D01*
X141821428Y-58852619D01*
X141773809Y-58947857D01*
X141773809Y-59043095D01*
X141821428Y-59185952D01*
X142392857Y-59757380D01*
X141773809Y-59757380D01*
X141440476Y-58757380D02*
X140821428Y-58757380D01*
X141154761Y-59138333D01*
X141011904Y-59138333D01*
X140916666Y-59185952D01*
X140869047Y-59233571D01*
X140821428Y-59328809D01*
X140821428Y-59566904D01*
X140869047Y-59662142D01*
X140916666Y-59709761D01*
X141011904Y-59757380D01*
X141297619Y-59757380D01*
X141392857Y-59709761D01*
X141440476Y-59662142D01*
X140440476Y-58852619D02*
X140392857Y-58805000D01*
X140297619Y-58757380D01*
X140059523Y-58757380D01*
X139964285Y-58805000D01*
X139916666Y-58852619D01*
X139869047Y-58947857D01*
X139869047Y-59043095D01*
X139916666Y-59185952D01*
X140488095Y-59757380D01*
X139869047Y-59757380D01*
%TO.C,J106*%
X86285714Y-71682380D02*
X86285714Y-72396666D01*
X86333333Y-72539523D01*
X86428571Y-72634761D01*
X86571428Y-72682380D01*
X86666666Y-72682380D01*
X85285714Y-72682380D02*
X85857142Y-72682380D01*
X85571428Y-72682380D02*
X85571428Y-71682380D01*
X85666666Y-71825238D01*
X85761904Y-71920476D01*
X85857142Y-71968095D01*
X84666666Y-71682380D02*
X84571428Y-71682380D01*
X84476190Y-71730000D01*
X84428571Y-71777619D01*
X84380952Y-71872857D01*
X84333333Y-72063333D01*
X84333333Y-72301428D01*
X84380952Y-72491904D01*
X84428571Y-72587142D01*
X84476190Y-72634761D01*
X84571428Y-72682380D01*
X84666666Y-72682380D01*
X84761904Y-72634761D01*
X84809523Y-72587142D01*
X84857142Y-72491904D01*
X84904761Y-72301428D01*
X84904761Y-72063333D01*
X84857142Y-71872857D01*
X84809523Y-71777619D01*
X84761904Y-71730000D01*
X84666666Y-71682380D01*
X83476190Y-71682380D02*
X83666666Y-71682380D01*
X83761904Y-71730000D01*
X83809523Y-71777619D01*
X83904761Y-71920476D01*
X83952380Y-72110952D01*
X83952380Y-72491904D01*
X83904761Y-72587142D01*
X83857142Y-72634761D01*
X83761904Y-72682380D01*
X83571428Y-72682380D01*
X83476190Y-72634761D01*
X83428571Y-72587142D01*
X83380952Y-72491904D01*
X83380952Y-72253809D01*
X83428571Y-72158571D01*
X83476190Y-72110952D01*
X83571428Y-72063333D01*
X83761904Y-72063333D01*
X83857142Y-72110952D01*
X83904761Y-72158571D01*
X83952380Y-72253809D01*
%TO.C,J105*%
X131785714Y-70852380D02*
X131785714Y-71566666D01*
X131833333Y-71709523D01*
X131928571Y-71804761D01*
X132071428Y-71852380D01*
X132166666Y-71852380D01*
X130785714Y-71852380D02*
X131357142Y-71852380D01*
X131071428Y-71852380D02*
X131071428Y-70852380D01*
X131166666Y-70995238D01*
X131261904Y-71090476D01*
X131357142Y-71138095D01*
X130166666Y-70852380D02*
X130071428Y-70852380D01*
X129976190Y-70900000D01*
X129928571Y-70947619D01*
X129880952Y-71042857D01*
X129833333Y-71233333D01*
X129833333Y-71471428D01*
X129880952Y-71661904D01*
X129928571Y-71757142D01*
X129976190Y-71804761D01*
X130071428Y-71852380D01*
X130166666Y-71852380D01*
X130261904Y-71804761D01*
X130309523Y-71757142D01*
X130357142Y-71661904D01*
X130404761Y-71471428D01*
X130404761Y-71233333D01*
X130357142Y-71042857D01*
X130309523Y-70947619D01*
X130261904Y-70900000D01*
X130166666Y-70852380D01*
X128928571Y-70852380D02*
X129404761Y-70852380D01*
X129452380Y-71328571D01*
X129404761Y-71280952D01*
X129309523Y-71233333D01*
X129071428Y-71233333D01*
X128976190Y-71280952D01*
X128928571Y-71328571D01*
X128880952Y-71423809D01*
X128880952Y-71661904D01*
X128928571Y-71757142D01*
X128976190Y-71804761D01*
X129071428Y-71852380D01*
X129309523Y-71852380D01*
X129404761Y-71804761D01*
X129452380Y-71757142D01*
%TO.C,J107*%
X76185714Y-71552380D02*
X76185714Y-72266666D01*
X76233333Y-72409523D01*
X76328571Y-72504761D01*
X76471428Y-72552380D01*
X76566666Y-72552380D01*
X75185714Y-72552380D02*
X75757142Y-72552380D01*
X75471428Y-72552380D02*
X75471428Y-71552380D01*
X75566666Y-71695238D01*
X75661904Y-71790476D01*
X75757142Y-71838095D01*
X74566666Y-71552380D02*
X74471428Y-71552380D01*
X74376190Y-71600000D01*
X74328571Y-71647619D01*
X74280952Y-71742857D01*
X74233333Y-71933333D01*
X74233333Y-72171428D01*
X74280952Y-72361904D01*
X74328571Y-72457142D01*
X74376190Y-72504761D01*
X74471428Y-72552380D01*
X74566666Y-72552380D01*
X74661904Y-72504761D01*
X74709523Y-72457142D01*
X74757142Y-72361904D01*
X74804761Y-72171428D01*
X74804761Y-71933333D01*
X74757142Y-71742857D01*
X74709523Y-71647619D01*
X74661904Y-71600000D01*
X74566666Y-71552380D01*
X73900000Y-71552380D02*
X73233333Y-71552380D01*
X73661904Y-72552380D01*
%TO.C,J102*%
X81285714Y-71682380D02*
X81285714Y-72396666D01*
X81333333Y-72539523D01*
X81428571Y-72634761D01*
X81571428Y-72682380D01*
X81666666Y-72682380D01*
X80285714Y-72682380D02*
X80857142Y-72682380D01*
X80571428Y-72682380D02*
X80571428Y-71682380D01*
X80666666Y-71825238D01*
X80761904Y-71920476D01*
X80857142Y-71968095D01*
X79666666Y-71682380D02*
X79571428Y-71682380D01*
X79476190Y-71730000D01*
X79428571Y-71777619D01*
X79380952Y-71872857D01*
X79333333Y-72063333D01*
X79333333Y-72301428D01*
X79380952Y-72491904D01*
X79428571Y-72587142D01*
X79476190Y-72634761D01*
X79571428Y-72682380D01*
X79666666Y-72682380D01*
X79761904Y-72634761D01*
X79809523Y-72587142D01*
X79857142Y-72491904D01*
X79904761Y-72301428D01*
X79904761Y-72063333D01*
X79857142Y-71872857D01*
X79809523Y-71777619D01*
X79761904Y-71730000D01*
X79666666Y-71682380D01*
X78952380Y-71777619D02*
X78904761Y-71730000D01*
X78809523Y-71682380D01*
X78571428Y-71682380D01*
X78476190Y-71730000D01*
X78428571Y-71777619D01*
X78380952Y-71872857D01*
X78380952Y-71968095D01*
X78428571Y-72110952D01*
X79000000Y-72682380D01*
X78380952Y-72682380D01*
%TO.C,R123*%
X118602380Y-22580952D02*
X118126190Y-22247619D01*
X118602380Y-22009523D02*
X117602380Y-22009523D01*
X117602380Y-22390476D01*
X117650000Y-22485714D01*
X117697619Y-22533333D01*
X117792857Y-22580952D01*
X117935714Y-22580952D01*
X118030952Y-22533333D01*
X118078571Y-22485714D01*
X118126190Y-22390476D01*
X118126190Y-22009523D01*
X118602380Y-23533333D02*
X118602380Y-22961904D01*
X118602380Y-23247619D02*
X117602380Y-23247619D01*
X117745238Y-23152380D01*
X117840476Y-23057142D01*
X117888095Y-22961904D01*
X117697619Y-23914285D02*
X117650000Y-23961904D01*
X117602380Y-24057142D01*
X117602380Y-24295238D01*
X117650000Y-24390476D01*
X117697619Y-24438095D01*
X117792857Y-24485714D01*
X117888095Y-24485714D01*
X118030952Y-24438095D01*
X118602380Y-23866666D01*
X118602380Y-24485714D01*
X117602380Y-24819047D02*
X117602380Y-25438095D01*
X117983333Y-25104761D01*
X117983333Y-25247619D01*
X118030952Y-25342857D01*
X118078571Y-25390476D01*
X118173809Y-25438095D01*
X118411904Y-25438095D01*
X118507142Y-25390476D01*
X118554761Y-25342857D01*
X118602380Y-25247619D01*
X118602380Y-24961904D01*
X118554761Y-24866666D01*
X118507142Y-24819047D01*
%TO.C,R116*%
X146869047Y-64302380D02*
X147202380Y-63826190D01*
X147440476Y-64302380D02*
X147440476Y-63302380D01*
X147059523Y-63302380D01*
X146964285Y-63350000D01*
X146916666Y-63397619D01*
X146869047Y-63492857D01*
X146869047Y-63635714D01*
X146916666Y-63730952D01*
X146964285Y-63778571D01*
X147059523Y-63826190D01*
X147440476Y-63826190D01*
X145916666Y-64302380D02*
X146488095Y-64302380D01*
X146202380Y-64302380D02*
X146202380Y-63302380D01*
X146297619Y-63445238D01*
X146392857Y-63540476D01*
X146488095Y-63588095D01*
X144964285Y-64302380D02*
X145535714Y-64302380D01*
X145250000Y-64302380D02*
X145250000Y-63302380D01*
X145345238Y-63445238D01*
X145440476Y-63540476D01*
X145535714Y-63588095D01*
X144107142Y-63302380D02*
X144297619Y-63302380D01*
X144392857Y-63350000D01*
X144440476Y-63397619D01*
X144535714Y-63540476D01*
X144583333Y-63730952D01*
X144583333Y-64111904D01*
X144535714Y-64207142D01*
X144488095Y-64254761D01*
X144392857Y-64302380D01*
X144202380Y-64302380D01*
X144107142Y-64254761D01*
X144059523Y-64207142D01*
X144011904Y-64111904D01*
X144011904Y-63873809D01*
X144059523Y-63778571D01*
X144107142Y-63730952D01*
X144202380Y-63683333D01*
X144392857Y-63683333D01*
X144488095Y-63730952D01*
X144535714Y-63778571D01*
X144583333Y-63873809D01*
%TO.C,R124*%
X125402380Y-22680952D02*
X124926190Y-22347619D01*
X125402380Y-22109523D02*
X124402380Y-22109523D01*
X124402380Y-22490476D01*
X124450000Y-22585714D01*
X124497619Y-22633333D01*
X124592857Y-22680952D01*
X124735714Y-22680952D01*
X124830952Y-22633333D01*
X124878571Y-22585714D01*
X124926190Y-22490476D01*
X124926190Y-22109523D01*
X125402380Y-23633333D02*
X125402380Y-23061904D01*
X125402380Y-23347619D02*
X124402380Y-23347619D01*
X124545238Y-23252380D01*
X124640476Y-23157142D01*
X124688095Y-23061904D01*
X124497619Y-24014285D02*
X124450000Y-24061904D01*
X124402380Y-24157142D01*
X124402380Y-24395238D01*
X124450000Y-24490476D01*
X124497619Y-24538095D01*
X124592857Y-24585714D01*
X124688095Y-24585714D01*
X124830952Y-24538095D01*
X125402380Y-23966666D01*
X125402380Y-24585714D01*
X124735714Y-25442857D02*
X125402380Y-25442857D01*
X124354761Y-25204761D02*
X125069047Y-24966666D01*
X125069047Y-25585714D01*
%TO.C,A101*%
X129916666Y-41583333D02*
X129916666Y-42059523D01*
X130202380Y-41488095D02*
X129202380Y-41821428D01*
X130202380Y-42154761D01*
X130202380Y-43011904D02*
X130202380Y-42440476D01*
X130202380Y-42726190D02*
X129202380Y-42726190D01*
X129345238Y-42630952D01*
X129440476Y-42535714D01*
X129488095Y-42440476D01*
X129202380Y-43630952D02*
X129202380Y-43726190D01*
X129250000Y-43821428D01*
X129297619Y-43869047D01*
X129392857Y-43916666D01*
X129583333Y-43964285D01*
X129821428Y-43964285D01*
X130011904Y-43916666D01*
X130107142Y-43869047D01*
X130154761Y-43821428D01*
X130202380Y-43726190D01*
X130202380Y-43630952D01*
X130154761Y-43535714D01*
X130107142Y-43488095D01*
X130011904Y-43440476D01*
X129821428Y-43392857D01*
X129583333Y-43392857D01*
X129392857Y-43440476D01*
X129297619Y-43488095D01*
X129250000Y-43535714D01*
X129202380Y-43630952D01*
X130202380Y-44916666D02*
X130202380Y-44345238D01*
X130202380Y-44630952D02*
X129202380Y-44630952D01*
X129345238Y-44535714D01*
X129440476Y-44440476D01*
X129488095Y-44345238D01*
%TO.C,R105*%
X146869047Y-61052380D02*
X147202380Y-60576190D01*
X147440476Y-61052380D02*
X147440476Y-60052380D01*
X147059523Y-60052380D01*
X146964285Y-60100000D01*
X146916666Y-60147619D01*
X146869047Y-60242857D01*
X146869047Y-60385714D01*
X146916666Y-60480952D01*
X146964285Y-60528571D01*
X147059523Y-60576190D01*
X147440476Y-60576190D01*
X145916666Y-61052380D02*
X146488095Y-61052380D01*
X146202380Y-61052380D02*
X146202380Y-60052380D01*
X146297619Y-60195238D01*
X146392857Y-60290476D01*
X146488095Y-60338095D01*
X145297619Y-60052380D02*
X145202380Y-60052380D01*
X145107142Y-60100000D01*
X145059523Y-60147619D01*
X145011904Y-60242857D01*
X144964285Y-60433333D01*
X144964285Y-60671428D01*
X145011904Y-60861904D01*
X145059523Y-60957142D01*
X145107142Y-61004761D01*
X145202380Y-61052380D01*
X145297619Y-61052380D01*
X145392857Y-61004761D01*
X145440476Y-60957142D01*
X145488095Y-60861904D01*
X145535714Y-60671428D01*
X145535714Y-60433333D01*
X145488095Y-60242857D01*
X145440476Y-60147619D01*
X145392857Y-60100000D01*
X145297619Y-60052380D01*
X144059523Y-60052380D02*
X144535714Y-60052380D01*
X144583333Y-60528571D01*
X144535714Y-60480952D01*
X144440476Y-60433333D01*
X144202380Y-60433333D01*
X144107142Y-60480952D01*
X144059523Y-60528571D01*
X144011904Y-60623809D01*
X144011904Y-60861904D01*
X144059523Y-60957142D01*
X144107142Y-61004761D01*
X144202380Y-61052380D01*
X144440476Y-61052380D01*
X144535714Y-61004761D01*
X144583333Y-60957142D01*
%TO.C,J101*%
X143305714Y-71652380D02*
X143305714Y-72366666D01*
X143353333Y-72509523D01*
X143448571Y-72604761D01*
X143591428Y-72652380D01*
X143686666Y-72652380D01*
X142305714Y-72652380D02*
X142877142Y-72652380D01*
X142591428Y-72652380D02*
X142591428Y-71652380D01*
X142686666Y-71795238D01*
X142781904Y-71890476D01*
X142877142Y-71938095D01*
X141686666Y-71652380D02*
X141591428Y-71652380D01*
X141496190Y-71700000D01*
X141448571Y-71747619D01*
X141400952Y-71842857D01*
X141353333Y-72033333D01*
X141353333Y-72271428D01*
X141400952Y-72461904D01*
X141448571Y-72557142D01*
X141496190Y-72604761D01*
X141591428Y-72652380D01*
X141686666Y-72652380D01*
X141781904Y-72604761D01*
X141829523Y-72557142D01*
X141877142Y-72461904D01*
X141924761Y-72271428D01*
X141924761Y-72033333D01*
X141877142Y-71842857D01*
X141829523Y-71747619D01*
X141781904Y-71700000D01*
X141686666Y-71652380D01*
X140400952Y-72652380D02*
X140972380Y-72652380D01*
X140686666Y-72652380D02*
X140686666Y-71652380D01*
X140781904Y-71795238D01*
X140877142Y-71890476D01*
X140972380Y-71938095D01*
D11*
%TO.C,J106*%
X83670000Y-73670000D02*
X83670000Y-75000000D01*
X86330000Y-78870000D02*
X83670000Y-78870000D01*
X86330000Y-76270000D02*
X83670000Y-76270000D01*
X85000000Y-73670000D02*
X83670000Y-73670000D01*
X83670000Y-76270000D02*
X83670000Y-78870000D01*
X86330000Y-76270000D02*
X86330000Y-78870000D01*
%TO.C,J105*%
X98678530Y-76358256D02*
X99507267Y-81058256D01*
X121076689Y-74410000D02*
X100313311Y-74410000D01*
X101000000Y-71648675D02*
X101250000Y-71215662D01*
X101250000Y-71215662D02*
X100750000Y-71215662D01*
X92095000Y-84730000D02*
X129295000Y-84730000D01*
X122711470Y-76358256D02*
X121882733Y-81058256D01*
X120247952Y-82430000D02*
X101142048Y-82430000D01*
X130355000Y-83670000D02*
X130355000Y-73170000D01*
X129295000Y-72110000D02*
X92095000Y-72110000D01*
X91035000Y-73170000D02*
X91035000Y-83670000D01*
X100750000Y-71215662D02*
X101000000Y-71648675D01*
X121882733Y-81058256D02*
G75*
G02*
X120247952Y-82430000I-1634781J288256D01*
G01*
X91035000Y-73170000D02*
G75*
G02*
X92095000Y-72110000I1060000J0D01*
G01*
X129295000Y-84730000D02*
G75*
G03*
X130355000Y-83670000I0J1060000D01*
G01*
X98678530Y-76358256D02*
G75*
G02*
X100313311Y-74410000I1634781J288256D01*
G01*
X92095000Y-84730000D02*
G75*
G02*
X91035000Y-83670000I0J1060000D01*
G01*
X129295000Y-72110000D02*
G75*
G02*
X130355000Y-73170000I0J-1060000D01*
G01*
X122711470Y-76358256D02*
G75*
G03*
X121076689Y-74410000I-1634781J288256D01*
G01*
X99507267Y-81058256D02*
G75*
G03*
X101142048Y-82430000I1634781J288256D01*
G01*
%TO.C,J107*%
X73930000Y-75070000D02*
X71270000Y-75070000D01*
X73930000Y-80210000D02*
X71270000Y-80210000D01*
X71270000Y-72470000D02*
X71270000Y-73800000D01*
X73930000Y-75070000D02*
X73930000Y-80210000D01*
X71270000Y-75070000D02*
X71270000Y-80210000D01*
X72600000Y-72470000D02*
X71270000Y-72470000D01*
%TO.C,J102*%
X81330000Y-76270000D02*
X81330000Y-78870000D01*
X81330000Y-78870000D02*
X78670000Y-78870000D01*
X78670000Y-73670000D02*
X78670000Y-75000000D01*
X80000000Y-73670000D02*
X78670000Y-73670000D01*
X78670000Y-76270000D02*
X78670000Y-78870000D01*
X81330000Y-76270000D02*
X78670000Y-76270000D01*
%TO.C,R123*%
X120535000Y-23472936D02*
X120535000Y-23927064D01*
X119065000Y-23472936D02*
X119065000Y-23927064D01*
%TO.C,R116*%
X145977064Y-66235000D02*
X145522936Y-66235000D01*
X145977064Y-64765000D02*
X145522936Y-64765000D01*
%TO.C,R124*%
X125865000Y-23572936D02*
X125865000Y-24027064D01*
X127335000Y-23572936D02*
X127335000Y-24027064D01*
%TO.C,A101*%
X55655000Y-38910000D02*
X55655000Y-27230000D01*
X60105000Y-68120000D02*
X60105000Y-58980000D01*
X55655000Y-27230000D02*
X62005000Y-27230000D01*
X128305000Y-71300000D02*
X62005000Y-71300000D01*
X62005000Y-38910000D02*
X55655000Y-38910000D01*
X128305000Y-30780000D02*
X130845000Y-33320000D01*
X128305000Y-68630000D02*
X128305000Y-71300000D01*
X62005000Y-68120000D02*
X60105000Y-68120000D01*
X128305000Y-19350000D02*
X128305000Y-30780000D01*
X126655000Y-17700000D02*
X128305000Y-19350000D01*
X62005000Y-17700000D02*
X126655000Y-17700000D01*
X60105000Y-58980000D02*
X62005000Y-58980000D01*
X130845000Y-33320000D02*
X130845000Y-66090000D01*
X62005000Y-71300000D02*
X62005000Y-68120000D01*
X62005000Y-58980000D02*
X62005000Y-38910000D01*
X62005000Y-27230000D02*
X62005000Y-17700000D01*
X130845000Y-66090000D02*
X128305000Y-68630000D01*
%TO.C,R105*%
X145977064Y-61515000D02*
X145522936Y-61515000D01*
X145977064Y-62985000D02*
X145522936Y-62985000D01*
%TO.C,J101*%
X152160000Y-73190000D02*
X152160000Y-80810000D01*
X152160000Y-80810000D02*
X131840000Y-80810000D01*
X131840000Y-79540000D02*
X152160000Y-79540000D01*
X152160000Y-73190000D02*
X131840000Y-73190000D01*
X131840000Y-80810000D02*
X131840000Y-73190000D01*
%TD*%
M02*
