M48
; DRILL file {KiCad (5.99.0-11737-gca42f31bb5)} date Fri Sep 24 22:35:09 2021
; FORMAT={2:4/ absolute / inch / suppress leading zeros}
; #@! TF.CreationDate,2021-09-24T22:35:09+02:00
; #@! TF.GenerationSoftware,Kicad,Pcbnew,(5.99.0-11737-gca42f31bb5)
; #@! TF.FileFunction,Plated,1,2,PTH
FMAT,2
INCH,TZ
; #@! TA.AperFunction,Plated,PTH,ViaDrill
T1C0.0157
; #@! TA.AperFunction,Plated,PTH,ComponentDrill
T2C0.0299
; #@! TA.AperFunction,Plated,PTH,ComponentDrill
T3C0.0394
; #@! TA.AperFunction,Plated,PTH,ComponentDrill
T4C0.0598
; #@! TA.AperFunction,Plated,PTH,ComponentDrill
T5C0.0787
; #@! TA.AperFunction,Plated,PTH,ComponentDrill
T6C0.1260
%
G90
G05
T1
X26299Y-30709
X27854Y-13583
X28858Y-13091
X29035Y-16240
X29232Y-20866
X29626Y-18110
X29823Y-25984
X30315Y-9350
X30531Y-16240
X30551Y-11909
X30748Y-21417
X32264Y-19882
X32382Y-16240
X33169Y-17520
X33957Y-20768
X34409Y-9567
X34508Y-15079
X34744Y-23228
X35531Y-22343
X35630Y-23228
X36614Y-19173
X36909Y-22343
X37205Y-23228
X37283Y-9567
X37992Y-23031
X38150Y-24508
X38302Y-18602
X38332Y-23282
X38583Y-9055
X39764Y-9843
X39847Y-22170
X39862Y-24016
X40256Y-21457
X40256Y-22126
X40256Y-24803
X40256Y-25295
X40650Y-25295
X40748Y-22126
X40945Y-9877
X41240Y-22146
X41654Y-9211
X41732Y-12008
X41732Y-19488
X41772Y-10591
X41831Y-23819
X42047Y-9488
X43150Y-9606
X43307Y-22047
X43307Y-24803
X43819Y-22559
X44395Y-10536
X44980Y-9843
X45079Y-24803
X45098Y-22047
X45571Y-21358
X45571Y-22027
X45600Y-24793
X46063Y-22047
X46161Y-9877
X46555Y-22047
X47047Y-12008
X47047Y-19488
X47638Y-24016
X47795Y-9252
X47933Y-9843
X48130Y-24016
X48287Y-23209
X48524Y-24803
X48622Y-22146
X48720Y-23209
X49055Y-8819
X49114Y-9877
X49223Y-23179
X49902Y-21161
X50591Y-7776
X50807Y-19961
X51083Y-27165
X51181Y-19291
X51280Y-19960
X51280Y-22638
X51280Y-23130
X51772Y-7810
X51772Y-19960
X52264Y-20079
X52559Y-9843
X52559Y-17323
X52815Y-21772
X52885Y-23653
X53346Y-7776
X53839Y-21752
X53976Y-23297
X54232Y-19882
X54429Y-22539
X54528Y-7810
X55020Y-24508
X55512Y-24508
X55807Y-7776
X55925Y-19902
X56328Y-25255
X56398Y-22549
X56496Y-19291
X56496Y-19862
X56988Y-7810
X56988Y-19862
X57480Y-19882
X57874Y-9843
X57874Y-17323
X58169Y-22933
X58760Y-7776
X58937Y-25630
X58957Y-21752
X59449Y-19882
X59449Y-22638
X59941Y-7810
X60039Y-14961
X60138Y-14567
T2
X26713Y-8845
X26713Y-9845
X26713Y-10845
X26713Y-11845
X26713Y-16227
X26713Y-17227
X26713Y-18227
X26713Y-19227
X27713Y-9345
X27713Y-10345
X27713Y-11345
X27713Y-12345
X27713Y-16727
X27713Y-17727
X27713Y-18727
X27713Y-19727
T3
X28583Y-29055
X28583Y-30055
X28583Y-31055
X31496Y-29528
X31496Y-30528
X31864Y-8020
X32864Y-8020
X33465Y-29528
X33465Y-30528
X33864Y-8020
X34864Y-8020
X35463Y-27020
X35864Y-8020
X36463Y-27020
X36864Y-8020
X37463Y-27020
X37864Y-8020
X38463Y-27020
X38864Y-8020
X39463Y-27020
X39764Y-30315
X39864Y-8020
X40309Y-31433
X40463Y-27020
X40854Y-30315
X40864Y-8020
X41400Y-31433
X41463Y-27020
X41945Y-30315
X42463Y-8020
X42463Y-27020
X42490Y-31433
X43035Y-30315
X43463Y-8020
X43581Y-31433
X44126Y-30315
X44463Y-8020
X44463Y-27020
X44671Y-31433
X45217Y-30315
X45463Y-8020
X45463Y-27020
X45762Y-31433
X46307Y-30315
X46463Y-8020
X46463Y-27020
X46852Y-31433
X47398Y-30315
X47463Y-8020
X47463Y-27020
X48463Y-8020
X48463Y-27020
X49463Y-8020
X49463Y-27020
T4
X52906Y-30315
X54906Y-30315
X56906Y-30315
X58906Y-30315
T5
X26510Y-23346
X26510Y-25197
X26510Y-27047
X28411Y-23346
X28411Y-25197
X28411Y-27047
X31234Y-23346
X31234Y-25197
X31234Y-27047
X33136Y-23346
X33136Y-25197
X33136Y-27047
T6
X37026Y-30874
X50136Y-30874
T0
M30
