%TF.GenerationSoftware,KiCad,Pcbnew,(5.99.0-11737-gca42f31bb5)*%
%TF.CreationDate,2021-09-24T22:35:01+02:00*%
%TF.ProjectId,Drucksensor,44727563-6b73-4656-9e73-6f722e6b6963,rev?*%
%TF.SameCoordinates,Original*%
%TF.FileFunction,Soldermask,Bot*%
%TF.FilePolarity,Negative*%
%FSLAX46Y46*%
G04 Gerber Fmt 4.6, Leading zero omitted, Abs format (unit mm)*
G04 Created by KiCad (PCBNEW (5.99.0-11737-gca42f31bb5)) date 2021-09-24 22:35:01*
%MOMM*%
%LPD*%
G01*
G04 APERTURE LIST*
G04 Aperture macros list*
%AMRoundRect*
0 Rectangle with rounded corners*
0 $1 Rounding radius*
0 $2 $3 $4 $5 $6 $7 $8 $9 X,Y pos of 4 corners*
0 Add a 4 corners polygon primitive as box body*
4,1,4,$2,$3,$4,$5,$6,$7,$8,$9,$2,$3,0*
0 Add four circle primitives for the rounded corners*
1,1,$1+$1,$2,$3*
1,1,$1+$1,$4,$5*
1,1,$1+$1,$6,$7*
1,1,$1+$1,$8,$9*
0 Add four rect primitives between the rounded corners*
20,1,$1+$1,$2,$3,$4,$5,0*
20,1,$1+$1,$4,$5,$6,$7,0*
20,1,$1+$1,$6,$7,$8,$9,0*
20,1,$1+$1,$8,$9,$2,$3,0*%
G04 Aperture macros list end*
%ADD10O,3.200000X4.200000*%
%ADD11R,1.500000X1.500000*%
%ADD12C,1.500000*%
%ADD13C,2.500000*%
%ADD14R,1.700000X1.700000*%
%ADD15O,1.700000X1.700000*%
%ADD16C,4.000000*%
%ADD17R,1.600000X1.600000*%
%ADD18C,1.600000*%
%ADD19RoundRect,0.250000X-0.450000X0.262500X-0.450000X-0.262500X0.450000X-0.262500X0.450000X0.262500X0*%
%ADD20RoundRect,0.250000X0.262500X0.450000X-0.262500X0.450000X-0.262500X-0.450000X0.262500X-0.450000X0*%
%ADD21O,1.600000X1.600000*%
%ADD22C,3.000000*%
%ADD23R,3.000000X3.000000*%
G04 APERTURE END LIST*
D10*
%TO.C,J103*%
X61500000Y-32127500D03*
X61500000Y-21697500D03*
D11*
X67850000Y-22467500D03*
D12*
X70390000Y-23737500D03*
X67850000Y-25007500D03*
X70390000Y-26277500D03*
X67850000Y-27547500D03*
X70390000Y-28817500D03*
X67850000Y-30087500D03*
X70390000Y-31357500D03*
%TD*%
D10*
%TO.C,J104*%
X61500000Y-50877500D03*
X61500000Y-40447500D03*
D11*
X67850000Y-41217500D03*
D12*
X70390000Y-42487500D03*
X67850000Y-43757500D03*
X70390000Y-45027500D03*
X67850000Y-46297500D03*
X70390000Y-47567500D03*
X67850000Y-48837500D03*
X70390000Y-50107500D03*
%TD*%
D13*
%TO.C,SW102*%
X84165000Y-59300000D03*
X84165000Y-64000000D03*
X84165000Y-68700000D03*
X79335000Y-59300000D03*
X79335000Y-64000000D03*
X79335000Y-68700000D03*
%TD*%
%TO.C,SW101*%
X72165000Y-59300000D03*
X72165000Y-64000000D03*
X72165000Y-68700000D03*
X67335000Y-59300000D03*
X67335000Y-64000000D03*
X67335000Y-68700000D03*
%TD*%
D14*
%TO.C,J106*%
X85000000Y-75000000D03*
D15*
X85000000Y-77540000D03*
%TD*%
D16*
%TO.C,J105*%
X127345000Y-78420000D03*
X94045000Y-78420000D03*
D17*
X101000000Y-77000000D03*
D18*
X103770000Y-77000000D03*
X106540000Y-77000000D03*
X109310000Y-77000000D03*
X112080000Y-77000000D03*
X114850000Y-77000000D03*
X117620000Y-77000000D03*
X120390000Y-77000000D03*
X102385000Y-79840000D03*
X105155000Y-79840000D03*
X107925000Y-79840000D03*
X110695000Y-79840000D03*
X113465000Y-79840000D03*
X116235000Y-79840000D03*
X119005000Y-79840000D03*
%TD*%
D14*
%TO.C,J107*%
X72600000Y-73800000D03*
D15*
X72600000Y-76340000D03*
X72600000Y-78880000D03*
%TD*%
D14*
%TO.C,J102*%
X80000000Y-75000000D03*
D15*
X80000000Y-77540000D03*
%TD*%
D19*
%TO.C,R123*%
X119800000Y-22787500D03*
X119800000Y-24612500D03*
%TD*%
D20*
%TO.C,R116*%
X146662500Y-65500000D03*
X144837500Y-65500000D03*
%TD*%
D19*
%TO.C,R124*%
X126600000Y-22887500D03*
X126600000Y-24712500D03*
%TD*%
D17*
%TO.C,A101*%
X90075000Y-68630000D03*
D21*
X92615000Y-68630000D03*
X95155000Y-68630000D03*
X97695000Y-68630000D03*
X100235000Y-68630000D03*
X102775000Y-68630000D03*
X105315000Y-68630000D03*
X107855000Y-68630000D03*
X112935000Y-68630000D03*
X115475000Y-68630000D03*
X118015000Y-68630000D03*
X120555000Y-68630000D03*
X123095000Y-68630000D03*
X125635000Y-68630000D03*
X125635000Y-20370000D03*
X123095000Y-20370000D03*
X120555000Y-20370000D03*
X118015000Y-20370000D03*
X115475000Y-20370000D03*
X112935000Y-20370000D03*
X110395000Y-20370000D03*
X107855000Y-20370000D03*
X103795000Y-20370000D03*
X101255000Y-20370000D03*
X98715000Y-20370000D03*
X96175000Y-20370000D03*
X93635000Y-20370000D03*
X91095000Y-20370000D03*
X88555000Y-20370000D03*
X86015000Y-20370000D03*
X83475000Y-20370000D03*
X80935000Y-20370000D03*
%TD*%
D20*
%TO.C,R105*%
X146662500Y-62250000D03*
X144837500Y-62250000D03*
%TD*%
D22*
%TO.C,J101*%
X144540000Y-77000000D03*
D23*
X149620000Y-77000000D03*
D22*
X134380000Y-77000000D03*
X139460000Y-77000000D03*
%TD*%
M02*
